<svg width="40" height="40" viewBox="0 0 40 40" xmlns="http://www.w3.org/2000/svg">
<path d="M19.9999 3.3335C10.7999 3.3335 3.33325 10.8002 3.33325 20.0002C3.33325 29.2002 10.7999 36.6668 19.9999 36.6668C29.1999 36.6668 36.6666 29.2002 36.6666 20.0002C36.6666 10.8002 29.1999 3.3335 19.9999 3.3335ZM27.7332 14.6668C27.4832 17.3002 26.3999 23.7002 25.8499 26.6502C25.6166 27.9002 25.1499 28.3168 24.7166 28.3668C23.7499 28.4502 23.0166 27.7335 22.0833 27.1168C20.6166 26.1502 19.7833 25.5502 18.3666 24.6168C16.7166 23.5335 17.7833 22.9335 18.7333 21.9668C18.9833 21.7168 23.2499 17.8335 23.3333 17.4835C23.3448 17.4305 23.3433 17.3754 23.3288 17.3232C23.3142 17.2709 23.2872 17.2229 23.2499 17.1835C23.1499 17.1002 23.0166 17.1335 22.8999 17.1502C22.7499 17.1835 20.4166 18.7335 15.8666 21.8002C15.1999 22.2502 14.5999 22.4835 14.0666 22.4668C13.4666 22.4502 12.3333 22.1335 11.4833 21.8502C10.4333 21.5168 9.61659 21.3335 9.68325 20.7502C9.71659 20.4502 10.1333 20.1502 10.9166 19.8335C15.7833 17.7168 19.0166 16.3168 20.6333 15.6502C25.2666 13.7168 26.2166 13.3835 26.8499 13.3835C26.9833 13.3835 27.2999 13.4168 27.4999 13.5835C27.6666 13.7168 27.7166 13.9002 27.7332 14.0335C27.7166 14.1335 27.7499 14.4335 27.7332 14.6668Z" />
</svg>
