<svg width="40" height="40" viewBox="0 0 40 40" xmlns="http://www.w3.org/2000/svg">
<path fill-rule="evenodd" clip-rule="evenodd" d="M27.7934 4.38008C22.5497 3.20794 17.112 3.20794 11.8684 4.38008L11.3034 4.50508C9.82798 4.83396 8.47283 5.56587 7.38879 6.61931C6.30474 7.67275 5.53434 9.00639 5.16335 10.4717C3.8365 15.7096 3.8365 21.1956 5.16335 26.4334C5.51719 27.8309 6.23464 29.1098 7.24281 30.1402C8.25097 31.1706 9.51393 31.9158 10.9034 32.3001L11.6784 36.9267C11.7031 37.0737 11.7668 37.2113 11.8627 37.3252C11.9587 37.4392 12.0835 37.5253 12.2241 37.5746C12.3646 37.624 12.5159 37.6348 12.662 37.6058C12.8082 37.5769 12.9439 37.5093 13.055 37.4101L17.6067 33.3384C21.0235 33.5447 24.4523 33.2715 27.7934 32.5267L28.36 32.4017C29.8354 32.0729 31.1905 31.341 32.2746 30.2875C33.3586 29.2341 34.129 27.9004 34.5 26.4351C35.8269 21.1972 35.8269 15.7112 34.5 10.4734C34.1289 9.00784 33.3582 7.67406 32.2739 6.6206C31.1895 5.56714 29.834 4.83535 28.3584 4.50674L27.7934 4.38008ZM13.275 10.3367C12.9653 10.2914 12.6493 10.3537 12.38 10.5134H12.3567C11.7317 10.8801 11.1684 11.3417 10.6884 11.8851C10.2884 12.3467 10.0717 12.8134 10.015 13.2634C9.98168 13.5301 10.005 13.8001 10.0834 14.0551L10.1134 14.0717C10.5634 15.3934 11.15 16.6651 11.8667 17.8617C12.7912 19.5423 13.9283 21.0968 15.25 22.4867L15.29 22.5434L15.3534 22.5901L15.3917 22.6351L15.4384 22.6751C16.8333 24.0006 18.3914 25.1432 20.075 26.0751C22 27.1234 23.1684 27.6184 23.87 27.8251V27.8351C24.075 27.8984 24.2617 27.9267 24.45 27.9267C25.0479 27.8839 25.6139 27.6408 26.0567 27.2367C26.5984 26.7567 27.0567 26.1917 27.4134 25.5634V25.5517C27.7484 24.9184 27.635 24.3217 27.1517 23.9167C26.1817 23.0674 25.1318 22.3139 24.0167 21.6667C23.27 21.2617 22.5117 21.5067 22.205 21.9167L21.55 22.7434C21.2134 23.1534 20.6034 23.0967 20.6034 23.0967L20.5867 23.1067C16.035 21.9451 14.82 17.3367 14.82 17.3367C14.82 17.3367 14.7634 16.7101 15.185 16.3901L16.005 15.7301C16.3984 15.4101 16.6717 14.6534 16.25 13.9067C15.6043 12.7925 14.8525 11.7431 14.005 10.7734C13.8196 10.5457 13.56 10.3905 13.2717 10.3351M20.965 8.33341C20.744 8.33341 20.532 8.42121 20.3758 8.57749C20.2195 8.73377 20.1317 8.94573 20.1317 9.16674C20.1317 9.38776 20.2195 9.59972 20.3758 9.756C20.532 9.91228 20.744 10.0001 20.965 10.0001C23.0734 10.0001 24.8234 10.6884 26.2084 12.0084C26.92 12.7301 27.475 13.5851 27.8384 14.5217C28.2034 15.4601 28.37 16.4617 28.3267 17.4651C28.3221 17.5745 28.3391 17.6838 28.3767 17.7866C28.4144 17.8895 28.4719 17.984 28.546 18.0646C28.6957 18.2274 28.904 18.3241 29.125 18.3334C29.346 18.3427 29.5617 18.2638 29.7245 18.1141C29.8874 17.9644 29.9841 17.7561 29.9934 17.5351C30.0431 16.301 29.8383 15.0699 29.3917 13.9184C28.943 12.7611 28.2598 11.709 27.385 10.8284L27.3684 10.8117C25.65 9.17008 23.475 8.33341 20.965 8.33341ZM20.9084 11.0734C20.6873 11.0734 20.4754 11.1612 20.3191 11.3175C20.1628 11.4738 20.075 11.6857 20.075 11.9067C20.075 12.1278 20.1628 12.3397 20.3191 12.496C20.4754 12.6523 20.6873 12.7401 20.9084 12.7401H20.9367C22.4567 12.8484 23.5634 13.3551 24.3384 14.1867C25.1334 15.0434 25.545 16.1084 25.5134 17.4251C25.5083 17.6461 25.5912 17.8601 25.7439 18.0199C25.8966 18.1798 26.1065 18.2725 26.3275 18.2776C26.5485 18.2827 26.7625 18.1997 26.9224 18.0471C27.0823 17.8944 27.1749 17.6844 27.18 17.4634C27.22 15.7351 26.6634 14.2434 25.56 13.0534V13.0501C24.4317 11.8401 22.8834 11.2001 21.02 11.0751L20.9917 11.0717L20.9084 11.0734ZM20.8767 13.8651C20.7652 13.8552 20.6528 13.868 20.5463 13.9025C20.4398 13.9371 20.3414 13.9927 20.2569 14.0661C20.1724 14.1396 20.1035 14.2293 20.0544 14.3299C20.0054 14.4305 19.9771 14.54 19.9712 14.6518C19.9654 14.7636 19.9822 14.8755 20.0205 14.9806C20.0589 15.0858 20.118 15.1822 20.1944 15.264C20.2709 15.3458 20.363 15.4114 20.4653 15.4568C20.5676 15.5023 20.6781 15.5266 20.79 15.5284C21.4867 15.5651 21.9317 15.7751 22.2117 16.0567C22.4934 16.3401 22.7034 16.7951 22.7417 17.5067C22.7438 17.6186 22.7683 17.7288 22.8139 17.831C22.8595 17.9331 22.9252 18.025 23.0071 18.1012C23.089 18.1774 23.1854 18.2364 23.2905 18.2746C23.3956 18.3127 23.5074 18.3293 23.6191 18.3234C23.7308 18.3175 23.8401 18.2891 23.9406 18.24C24.0411 18.1909 24.1307 18.1221 24.2041 18.0377C24.2774 17.9532 24.333 17.8549 24.3675 17.7485C24.402 17.6421 24.4148 17.5298 24.405 17.4184C24.3517 16.4184 24.0384 15.5351 23.3967 14.8851C22.7517 14.2351 21.8734 13.9184 20.8767 13.8651Z"/>
</svg>
