<svg width="40" height="40" viewBox="0 0 40 40" xmlns="http://www.w3.org/2000/svg">
<path fill-rule="evenodd" clip-rule="evenodd" d="M20 2.08325C29.895 2.08325 37.9167 10.1049 37.9167 19.9999C37.9167 29.8949 29.895 37.9166 20 37.9166C16.9 37.9166 13.9834 37.1283 11.4384 35.7416L3.53838 37.0666C3.34367 37.0991 3.14402 37.085 2.9558 37.0255C2.76757 36.966 2.59612 36.8627 2.45548 36.7242C2.31483 36.5857 2.209 36.4158 2.14664 36.2285C2.08428 36.0412 2.06718 35.8418 2.09672 35.6466L3.43005 26.8299C2.53684 24.6638 2.07923 22.3429 2.08338 19.9999C2.08338 10.1049 10.105 2.08325 20 2.08325ZM13.2384 11.1666C12.0134 11.1666 10.9984 12.1999 11.1884 13.4766C11.5484 15.8699 12.6117 20.2799 15.775 23.4666C19.0817 26.7983 23.8134 28.2233 26.375 28.7849C27.7017 29.0766 28.8334 28.0266 28.8334 26.7316V23.6916C28.8334 23.5906 28.8029 23.4919 28.7457 23.4086C28.6886 23.3253 28.6076 23.2613 28.5134 23.2249L25.2467 21.9699C25.1585 21.9362 25.0626 21.9281 24.9701 21.9466L21.6751 22.5899C19.5501 21.4899 18.2634 20.2566 17.4917 18.3983L18.1117 15.0399C18.1283 14.9506 18.1203 14.8584 18.0884 14.7733L16.8634 11.4916C16.8278 11.3964 16.7641 11.3143 16.6808 11.2563C16.5974 11.1982 16.4983 11.1669 16.3967 11.1666H13.2384Z" />
</svg>
