<svg width="24" height="24" viewBox="0 0 24 24" fill="none" xmlns="http://www.w3.org/2000/svg">
<path d="M10.95 12.175L10.225 11.45C10.025 11.2667 9.79167 11.175 9.525 11.175C9.25833 11.175 9.025 11.275 8.825 11.475C8.625 11.675 8.525 11.9083 8.525 12.175C8.525 12.4417 8.625 12.675 8.825 12.875L10.225 14.3C10.425 14.5 10.6627 14.6 10.938 14.6C11.2133 14.6 11.4507 14.5 11.65 14.3L15.175 10.75C15.375 10.55 15.475 10.3167 15.475 10.05C15.475 9.78333 15.375 9.55 15.175 9.35C14.975 9.15 14.7417 9.05 14.475 9.05C14.2083 9.05 13.975 9.15 13.775 9.35L10.95 12.175ZM12 19L7.8 20.8C7.13333 21.0833 6.5 21.0293 5.9 20.638C5.3 20.2467 5 19.6923 5 18.975V6C5 5.45 5.196 4.97933 5.588 4.588C5.98 4.19667 6.45067 4.00067 7 4H17C17.55 4 18.021 4.196 18.413 4.588C18.805 4.98 19.0007 5.45067 19 6V18.975C19 19.6917 18.7 20.246 18.1 20.638C17.5 21.03 16.8667 21.084 16.2 20.8L12 19Z" fill="#FAFCF7" fill-opacity="0.8"/>
</svg>
