<svg width="279" height="279" viewBox="0 0 279 279" fill="none" xmlns="http://www.w3.org/2000/svg">
<g clip-path="url(#clip0_1629_3825)">
<path d="M40.5343 156.38C37.744 156.872 35.2124 156.431 32.9394 155.058C30.6665 153.685 29.4766 151.736 29.3696 149.209C28.0585 135.055 29.3686 121.37 33.2999 108.153C37.2312 94.9363 43.2505 83.0031 51.3577 72.3535C59.4649 61.7039 69.3886 52.7175 81.1286 45.3943C92.8686 38.0711 105.797 33.1682 119.914 30.6859C134.03 28.2035 147.856 28.3888 161.39 31.2419C174.925 34.0951 187.324 39.1455 198.586 46.3931C209.849 53.6407 219.587 62.7956 227.799 73.8576C236.012 84.9196 241.924 97.3316 245.535 111.094C246.297 113.498 245.846 115.737 244.181 117.811C242.516 119.885 240.287 121.164 237.496 121.65C234.87 122.113 232.427 121.697 230.168 120.403C227.909 119.109 226.384 117.178 225.593 114.61C219.301 92.3645 206.438 75.0856 187.005 62.7731C167.572 50.4606 146.366 46.3302 123.387 50.382C100.408 54.4338 81.8933 65.568 67.8431 83.7845C53.793 102.001 47.6159 122.637 49.3119 145.693C49.4467 148.377 48.674 150.713 46.9938 152.702C45.3136 154.691 43.1604 155.916 40.5343 156.38ZM79.9266 149.434C77.1363 149.926 74.6365 149.436 72.4274 147.963C70.2182 146.491 69.0639 144.495 68.9647 141.974C68.2526 124.499 73.3318 108.923 84.2023 95.2479C95.0727 81.5725 109.292 73.1826 126.86 70.0782C144.427 66.9737 160.659 69.9944 175.553 79.1403C190.448 88.2862 200.547 101.185 205.853 117.837C206.615 120.241 206.21 122.512 204.638 124.651C203.065 126.79 200.887 128.105 198.104 128.596C195.477 129.059 193.017 128.772 190.722 127.735C188.427 126.697 186.895 124.98 186.128 122.584C182.074 111.114 174.839 102.235 164.423 95.9484C154.006 89.6618 142.643 87.6037 130.333 89.7743C118.023 91.9449 108.048 97.7653 100.41 107.236C92.7719 116.706 89.0099 127.523 89.1241 139.688C89.2299 142.208 88.3787 144.349 86.5703 146.109C84.7619 147.87 82.5473 148.978 79.9266 149.434ZM151.865 211.89L133.208 238.535C131.721 240.659 129.583 241.967 126.792 242.459C124.002 242.951 121.545 242.453 119.421 240.966C117.297 239.479 115.989 237.34 115.497 234.55C115.005 231.76 115.503 229.303 116.99 227.179L138.891 195.9L133.161 163.402C128.382 162.214 124.275 159.807 120.84 156.182C117.405 152.556 115.257 148.281 114.395 143.356C113.179 136.462 114.532 130.216 118.452 124.617C122.373 119.017 127.78 115.61 134.674 114.395C141.567 113.179 147.814 114.532 153.413 118.452C159.012 122.373 162.42 127.78 163.635 134.673C164.503 139.598 163.944 144.35 161.956 148.932C159.968 153.513 156.935 157.179 152.857 159.929L158.587 192.427L189.866 214.329C191.99 215.816 193.297 217.955 193.789 220.745C194.281 223.535 193.784 225.992 192.297 228.116C190.81 230.24 188.671 231.548 185.881 232.04C183.09 232.532 180.633 232.034 178.509 230.547L151.865 211.89Z" fill="#FAFCF7" fill-opacity="0.1"/>
</g>
<defs>
<clipPath id="clip0_1629_3825">
<rect width="240" height="240" fill="white" transform="translate(0 41.6756) rotate(-10)"/>
</clipPath>
</defs>
</svg>
