<svg width="279" height="279" viewBox="0 0 279 279" fill="none" xmlns="http://www.w3.org/2000/svg">
<path d="M223.579 215.492C217.178 216.621 211.108 215.789 205.369 212.996C199.63 210.204 195.269 206.105 192.285 200.701L141.322 209.688C130.489 211.598 120.535 209.376 111.46 203.022C102.386 196.668 96.8936 188.074 94.9834 177.241C93.0733 166.408 95.2953 156.455 101.649 147.38C108.003 138.306 116.597 132.813 127.43 130.903L147.126 127.43C152.542 126.475 156.841 123.73 160.022 119.196C163.203 114.661 164.312 109.683 163.349 104.261C162.386 98.8392 159.642 94.5438 155.116 91.3749C150.591 88.2059 145.612 87.0936 140.18 88.0379L89.2163 97.0242C88.0954 103.145 85.3562 108.495 80.9986 113.075C76.641 117.655 71.2642 120.505 64.8684 121.626C56.6617 123.073 49.1795 121.431 42.4218 116.699C35.6642 111.967 31.5618 105.498 30.1147 97.2911C28.6677 89.0844 30.31 81.6022 35.0418 74.8445C39.7735 68.0868 46.2428 63.9845 54.4495 62.5374C60.8508 61.4087 66.882 62.2508 72.5431 65.0639C78.2043 67.8769 82.6043 71.9649 85.7433 77.328L136.707 68.3417C147.54 66.4316 157.494 68.6536 166.568 75.0076C175.643 81.3617 181.135 89.9552 183.045 100.788C184.955 111.621 182.733 121.575 176.379 130.649C170.025 139.724 161.432 145.216 150.599 147.126L130.903 150.599C125.486 151.554 121.192 154.302 118.018 158.842C114.845 163.382 113.732 168.357 114.68 173.768C115.627 179.179 118.375 183.478 122.924 186.663C127.473 189.848 132.448 190.957 137.849 189.992L188.813 181.005C189.933 174.884 192.673 169.537 197.032 164.964C201.391 160.391 206.767 157.538 213.16 156.404C221.367 154.957 228.849 156.599 235.607 161.331C242.365 166.062 246.467 172.532 247.914 180.738C249.361 188.945 247.719 196.427 242.987 203.185C238.255 209.943 231.786 214.045 223.579 215.492ZM61.3954 101.93C64.1857 101.438 66.3596 100.08 67.917 97.8554C69.4744 95.6311 70.0044 93.1277 69.507 90.3452C69.0096 87.5626 67.6521 85.392 65.4344 83.8334C63.2167 82.2748 60.7128 81.7416 57.9225 82.2336C55.1322 82.7256 52.9616 84.0831 51.4107 86.3062C49.8599 88.5293 49.3266 91.0332 49.8109 93.8181C50.2952 96.603 51.6533 98.7769 53.8852 100.34C56.1172 101.903 58.6206 102.433 61.3954 101.93Z" fill="#FAFCF7" fill-opacity="0.1"/>
</svg>
