<svg width="279" height="279" viewBox="0 0 279 279" fill="none" xmlns="http://www.w3.org/2000/svg">
<path d="M97.7115 135.128C99.3322 144.319 105.394 152.305 115.898 159.084C126.401 165.863 135.181 171.507 142.238 176.017C143.368 176.664 144.55 176.879 145.784 176.661C147.018 176.443 148.052 175.838 148.886 174.845C153.84 168.386 160.071 160.055 167.579 149.849C175.088 139.643 178.06 130.106 176.496 121.236C175.454 115.327 172.423 110.615 167.403 107.1C162.383 103.585 156.919 102.348 151.01 103.39C147.563 103.998 144.361 105.284 141.404 107.247C138.447 109.21 136.203 111.593 134.673 114.394C132.269 112.28 129.385 110.801 126.021 109.959C122.657 109.117 119.169 109.012 115.557 109.642C109.648 110.684 104.936 113.715 101.421 118.734C97.9062 123.754 96.6696 129.219 97.7115 135.128ZM156.205 236.511C155.056 236.713 153.975 236.819 152.961 236.829C151.947 236.838 150.919 236.766 149.876 236.611C126.416 233.132 106.362 222.578 89.714 204.947C73.0663 187.317 62.7171 167.016 58.6665 144.043L50.4616 97.5111C49.7381 93.4077 50.2785 89.5046 52.0829 85.8017C53.8874 82.0988 56.5436 79.1764 60.0516 77.0347L115.233 44.4577C117.386 43.2318 119.612 42.4163 121.91 42.0111C124.208 41.6059 126.578 41.6111 129.02 42.0266L192.016 53.7659C196.051 54.5774 199.55 56.4145 202.512 59.2769C205.474 62.1394 207.314 65.6229 208.031 69.7274L216.236 116.26C220.288 139.238 217.507 161.858 207.893 184.119C198.279 206.38 183.044 223.154 162.187 234.441C161.26 234.942 160.318 235.362 159.362 235.7C158.406 236.038 157.354 236.308 156.205 236.511Z" fill="#FAFCF7" fill-opacity="0.1"/>
</svg>
