<svg width="279" height="279" viewBox="0 0 279 279" fill="none" xmlns="http://www.w3.org/2000/svg">
<path d="M129.737 201.576C124.321 202.531 119.346 201.422 114.812 198.247C110.279 195.073 107.531 190.775 106.568 185.353L104.397 173.043C93.9129 168.291 85.2045 161.365 78.2721 152.264C71.3397 143.163 66.8718 132.95 64.8683 121.626C61.4821 102.422 65.3001 84.9538 76.3222 69.2208C87.3443 53.4878 102.453 43.9255 121.649 40.534C140.845 37.1424 158.317 40.9599 174.064 51.9862C189.812 63.0126 199.371 78.1222 202.741 97.3152C204.738 108.64 204.026 119.726 200.604 130.572C197.182 141.417 191.374 150.944 183.182 159.151L185.352 171.461C186.308 176.878 185.198 181.856 182.025 186.396C178.852 190.936 174.553 193.681 169.129 194.63L129.737 201.576ZM136.683 240.968C133.893 241.46 131.389 240.927 129.171 239.369C126.953 237.81 125.596 235.639 125.098 232.857C124.601 230.074 125.134 227.57 126.698 225.345C128.262 223.12 130.433 221.762 133.21 221.272L172.602 214.326C175.393 213.834 177.9 214.367 180.124 215.925C182.348 217.482 183.703 219.653 184.187 222.438C184.671 225.223 184.138 227.73 182.589 229.96C181.039 232.189 178.868 233.544 176.075 234.023L136.683 240.968Z" fill="#FAFCF7" fill-opacity="0.1"/>
</svg>
