<svg width="279" height="279" viewBox="0 0 279 279" fill="none" xmlns="http://www.w3.org/2000/svg">
<path d="M114.252 224.615C112.447 224.933 110.687 224.78 108.972 224.155C107.258 223.53 105.841 222.466 104.724 220.964L79.4855 190.128L93.7653 187.61L103.423 200.631C104.562 202.292 106.032 203.431 107.833 204.047C109.634 204.664 111.437 204.81 113.241 204.485L124.813 202.444C126.126 202.213 127.188 201.518 127.999 200.359C128.81 199.201 129.1 197.965 128.869 196.652C128.637 195.339 127.942 194.277 126.784 193.466C125.625 192.655 124.389 192.365 123.076 192.596L111.259 194.68L101.601 181.659C100.462 179.999 98.9918 178.86 97.1907 178.243C95.3896 177.627 93.5869 177.481 91.7826 177.806L72.3326 181.235L53.9579 159.09C53.4849 158.327 53.0546 157.556 52.667 156.779C52.2794 156.001 52.0099 155.202 51.8587 154.383C51.7429 153.726 51.8638 152.012 52.2214 149.241L61.9137 122.147L81.3637 118.717C83.1692 118.399 84.8133 117.645 86.296 116.456C87.7788 115.268 88.7707 113.695 89.2719 111.738L93.8938 96.1993L105.712 94.1155C107.025 93.884 108.087 93.189 108.898 92.0305C109.709 90.8721 109.999 89.6363 109.767 88.3232C109.536 87.0102 108.841 85.948 107.682 85.1369C106.524 84.3257 105.288 84.0359 103.975 84.2674L92.4036 86.3078C90.5981 86.6262 88.9545 87.3831 87.473 88.5785C85.9914 89.7739 84.9988 91.3435 84.4954 93.2871L79.8734 108.826L65.5937 111.344L78.7632 73.7354C79.2944 71.9494 80.262 70.4689 81.666 69.2939C83.07 68.1189 84.6708 67.3695 86.4686 67.0458L110.35 62.8348C113.14 62.3428 115.648 62.8755 117.872 64.4329C120.096 65.9904 121.45 68.1615 121.935 70.9464L128.881 110.339L114.109 112.943C112.795 113.175 111.733 113.87 110.922 115.028C110.111 116.187 109.821 117.423 110.053 118.736C110.284 120.049 110.979 121.111 112.138 121.922C113.296 122.733 114.532 123.023 115.845 122.792L130.617 120.187L135.827 149.731L114.161 153.551L104.503 140.531C103.364 138.87 101.894 137.731 100.093 137.114C98.2918 136.498 96.489 136.352 94.6847 136.677L78.1892 139.586C76.8761 139.817 75.814 140.512 75.0028 141.67C74.1917 142.829 73.9019 144.065 74.1334 145.378C74.3649 146.691 75.0599 147.753 76.2184 148.564C77.3768 149.375 78.6126 149.665 79.9257 149.434L96.6674 146.482L106.325 159.502C107.464 161.163 108.934 162.302 110.735 162.918C112.536 163.535 114.339 163.681 116.143 163.356L137.563 159.579L146.245 208.819C146.737 211.61 146.208 214.116 144.657 216.34C143.106 218.563 140.932 219.917 138.134 220.404L114.252 224.615ZM172.602 214.326C167.186 215.281 162.211 214.172 157.677 210.997C153.144 207.823 150.396 203.525 149.433 198.103C148.767 194.328 149.084 190.847 150.384 187.659C151.684 184.472 153.651 181.712 156.286 179.379L141.439 95.1777C138.166 93.8931 135.374 91.9755 133.063 89.4248C130.751 86.8741 129.262 83.7079 128.595 79.9262C127.64 74.5098 128.753 69.5343 131.934 64.9997C135.115 60.4651 139.41 57.7176 144.818 56.7571C150.227 55.7966 155.206 56.909 159.755 60.0941C164.304 63.2793 167.048 67.5747 167.988 72.9803C168.653 76.7554 168.337 80.2399 167.038 83.4339C165.74 86.6279 163.772 89.3849 161.135 91.7047L165.52 116.571L183.132 101.28C182.148 95.6999 183.239 90.5996 186.405 85.9797C189.571 81.3598 193.858 78.5728 199.268 77.6189C204.678 76.665 209.657 77.7774 214.205 80.956C218.752 84.1345 221.497 88.4299 222.437 93.8421C223.378 99.2543 222.269 104.233 219.11 108.777C215.951 113.321 211.653 116.066 206.214 117.011C204.409 117.33 202.689 117.423 201.054 117.291C199.42 117.16 197.795 116.81 196.178 116.242L176.161 133.734L204.501 149.045C205.563 148.35 206.654 147.82 207.774 147.453C208.894 147.086 210.111 146.787 211.424 146.555C216.84 145.6 221.819 146.713 226.36 149.893C230.901 153.072 233.645 157.368 234.593 162.779C235.54 168.19 234.431 173.168 231.266 177.713C228.1 182.259 223.801 185.004 218.37 185.948C212.297 187.019 206.925 185.596 202.254 181.681C197.583 177.766 195.14 172.781 194.926 166.727L172.162 154.24L176.025 176.152C179.298 177.437 182.051 179.364 184.285 181.936C186.519 184.507 187.95 187.595 188.579 191.201C189.534 196.617 188.465 201.588 185.37 206.114C182.276 210.641 178.02 213.378 172.602 214.326Z" fill="#FAFCF7" fill-opacity="0.1"/>
</svg>
