<svg viewBox="0 0 24 24" xmlns="http://www.w3.org/2000/svg">
<path d="M12 13.4142L14.1213 15.5355C14.3217 15.7359 14.5576 15.8361 14.8291 15.8361C15.1006 15.8361 15.3361 15.7359 15.5355 15.5355C15.7349 15.3352 15.8351 15.0992 15.836 14.8277C15.837 14.5562 15.7368 14.3207 15.5355 14.1213L13.4142 12L15.5355 9.87868C15.7359 9.67833 15.836 9.4424 15.836 9.17087C15.836 8.89934 15.7359 8.66387 15.5355 8.46447C15.3352 8.26506 15.0995 8.16512 14.8284 8.16465C14.5574 8.16418 14.3217 8.26412 14.1213 8.46447L12 10.5858L9.87866 8.46447C9.67832 8.26412 9.44262 8.16418 9.17156 8.16465C8.9005 8.16512 8.6648 8.26506 8.46445 8.46447C8.2641 8.66387 8.16417 8.89957 8.16464 9.17157C8.16511 9.44357 8.26505 9.67927 8.46445 9.87868L10.5858 12L8.46445 14.1213C8.2641 14.3217 8.16417 14.5574 8.16464 14.8284C8.16511 15.0995 8.26505 15.3352 8.46445 15.5355C8.66386 15.7359 8.89979 15.8361 9.17227 15.8361C9.44474 15.8361 9.6802 15.7359 9.87867 15.5355L12 13.4142ZM19.0711 19.0711C18.0929 20.0492 16.9879 20.7827 15.7561 21.2716C14.5244 21.7604 13.2723 22.0051 12 22.0056C10.7277 22.006 9.47561 21.7614 8.24383 21.2716C7.01205 20.7818 5.90708 20.0483 4.92892 19.0711C3.95075 18.0938 3.21725 16.9889 2.7284 15.7562C2.23956 14.5234 1.9949 13.2714 1.99442 12C1.99395 10.7286 2.23861 9.47657 2.7284 8.24385C3.21819 7.01112 3.9517 5.90615 4.92892 4.92893C5.90614 3.95171 7.01111 3.21821 8.24383 2.72842C9.47656 2.23863 10.7286 1.99397 12 1.99444C13.2714 1.99491 14.5236 2.23933 15.7568 2.72771C16.99 3.21608 18.0948 3.94982 19.0711 4.92893C20.0473 5.90804 20.7808 7.01301 21.2716 8.24385C21.7623 9.47468 22.007 10.7267 22.0055 12C22.0041 13.2733 21.7597 14.5255 21.2723 15.7569C20.7848 16.9882 20.0511 18.0929 19.0711 19.0711Z" />
</svg>
