<svg width="24" height="25" viewBox="0 0 24 25" fill="none" xmlns="http://www.w3.org/2000/svg">
<path d="M12 15.4748C11.8667 15.4748 11.7417 15.4541 11.625 15.4128C11.5083 15.3715 11.4 15.3005 11.3 15.1998L6.69999 10.5998C6.51665 10.4165 6.42499 10.1831 6.42499 9.8998C6.42499 9.61647 6.51665 9.38314 6.69999 9.1998C6.88332 9.01647 7.11665 8.9248 7.39999 8.9248C7.68332 8.9248 7.91665 9.01647 8.09999 9.1998L12 13.0998L15.9 9.1998C16.0833 9.01647 16.3167 8.9248 16.6 8.9248C16.8833 8.9248 17.1167 9.01647 17.3 9.1998C17.4833 9.38314 17.575 9.61647 17.575 9.8998C17.575 10.1831 17.4833 10.4165 17.3 10.5998L12.7 15.1998C12.6 15.2998 12.4917 15.3708 12.375 15.4128C12.2583 15.4548 12.1333 15.4755 12 15.4748Z" fill="#E76715"/>
</svg>
