<svg viewBox="0 0 15 16" xmlns="http://www.w3.org/2000/svg">
<path d="M0.300524 0.299843C0.500871 0.0994953 0.736573 -0.000441938 1.00763 2.94326e-05C1.27869 0.000500803 1.51439 0.100439 1.71474 0.299843L7.37159 5.9567L13.0284 0.299842C13.2288 0.0994954 13.4645 -0.000442148 13.7356 2.91797e-05C14.0066 0.000500518 14.2423 0.100438 14.4427 0.299842C14.643 0.499246 14.7429 0.734949 14.7425 1.00695C14.742 1.27895 14.6421 1.51465 14.4427 1.71406L8.0787 8.07802C7.87835 8.27836 7.64241 8.37854 7.37088 8.37854C7.09936 8.37854 6.86389 8.27836 6.66448 8.07802L0.300524 1.71406C0.100177 1.51371 4.20339e-06 1.27777 4.20339e-06 1.00624C4.20339e-06 0.734713 0.100177 0.499246 0.300524 0.299843ZM0.300524 7.37091C0.500871 7.17056 0.736573 7.07063 1.00763 7.0711C1.27869 7.07157 1.51439 7.17151 1.71474 7.37091L7.37159 13.0278L13.0284 7.37091C13.2288 7.17056 13.4645 7.07063 13.7356 7.0711C14.0066 7.07157 14.2423 7.17151 14.4427 7.37091C14.643 7.57031 14.7429 7.80602 14.7425 8.07802C14.742 8.35002 14.6421 8.58572 14.4427 8.78512L8.0787 15.1491C7.87835 15.3494 7.64241 15.4496 7.37089 15.4496C7.09936 15.4496 6.86389 15.3494 6.66448 15.1491L0.300524 8.78512C0.100177 8.58478 3.52904e-06 8.34884 3.52904e-06 8.07731C3.52904e-06 7.80578 0.100177 7.57031 0.300524 7.37091Z"/>
</svg>
