<svg width="40" height="40" viewBox="0 0 40 40" fill="none" xmlns="http://www.w3.org/2000/svg">
<path d="M17.6668 22.9999L14.0835 19.4166C13.7779 19.111 13.3891 18.9583 12.9168 18.9583C12.4446 18.9583 12.0557 19.111 11.7502 19.4166C11.4446 19.7221 11.2918 20.111 11.2918 20.5833C11.2918 21.0555 11.4446 21.4444 11.7502 21.7499L16.5002 26.4999C16.8335 26.8333 17.2224 26.9999 17.6668 26.9999C18.1113 26.9999 18.5002 26.8333 18.8335 26.4999L28.2502 17.0833C28.5557 16.7777 28.7085 16.3888 28.7085 15.9166C28.7085 15.4444 28.5557 15.0555 28.2502 14.7499C27.9446 14.4444 27.5557 14.2916 27.0835 14.2916C26.6113 14.2916 26.2224 14.4444 25.9168 14.7499L17.6668 22.9999ZM20.0002 36.6666C17.6946 36.6666 15.5279 36.2288 13.5002 35.3533C11.4724 34.4777 9.7085 33.2905 8.2085 31.7916C6.7085 30.2927 5.52128 28.5288 4.64683 26.4999C3.77239 24.471 3.33461 22.3044 3.3335 19.9999C3.33239 17.6955 3.77016 15.5288 4.64683 13.4999C5.5235 11.471 6.71072 9.70714 8.2085 8.20825C9.70628 6.70936 11.4702 5.52214 13.5002 4.64659C15.5302 3.77103 17.6968 3.33325 20.0002 3.33325C22.3035 3.33325 24.4702 3.77103 26.5002 4.64659C28.5302 5.52214 30.2941 6.70936 31.7918 8.20825C33.2896 9.70714 34.4774 11.471 35.3552 13.4999C36.2329 15.5288 36.6702 17.6955 36.6668 19.9999C36.6635 22.3044 36.2257 24.471 35.3535 26.4999C34.4813 28.5288 33.2941 30.2927 31.7918 31.7916C30.2896 33.2905 28.5257 34.4783 26.5002 35.3549C24.4746 36.2316 22.3079 36.6688 20.0002 36.6666Z" fill="#14AE5C"/>
</svg>
