<svg width="40" height="40" viewBox="0 0 40 40" fill="none" xmlns="http://www.w3.org/2000/svg">
<path d="M27.2083 31.3333L25.2917 33.25C24.8194 33.7222 24.2361 33.9656 23.5417 33.98C22.8472 33.9944 22.25 33.7511 21.75 33.25C21.2778 32.7778 21.0417 32.1878 21.0417 31.48C21.0417 30.7722 21.2778 30.1817 21.75 29.7083L23.6667 27.7917C23.5556 27.4861 23.4722 27.1667 23.4167 26.8333C23.3611 26.5 23.3333 26.1667 23.3333 25.8333C23.3333 24.2222 23.9028 22.8472 25.0417 21.7083C26.1806 20.5694 27.5556 20 29.1667 20C29.4167 20 29.6667 20.0072 29.9167 20.0217C30.1667 20.0361 30.4028 20.0844 30.625 20.1667C30.9306 20.2778 31.1183 20.5072 31.1883 20.855C31.2583 21.2028 31.1817 21.4872 30.9583 21.7083L29.1667 23.5C28.8611 23.8056 28.7083 24.1944 28.7083 24.6667C28.7083 25.1389 28.8611 25.5278 29.1667 25.8333C29.4722 26.1389 29.8611 26.2917 30.3333 26.2917C30.8056 26.2917 31.1944 26.1389 31.5 25.8333L33.2917 24.0417C33.5139 23.8194 33.7983 23.7428 34.145 23.8117C34.4917 23.8806 34.7211 24.0683 34.8333 24.375C34.9167 24.5972 34.9656 24.8333 34.98 25.0833C34.9944 25.3333 35.0011 25.5833 35 25.8333C35 27.4444 34.4306 28.8194 33.2917 29.9583C32.1528 31.0972 30.7778 31.6667 29.1667 31.6667C28.8056 31.6667 28.4656 31.6389 28.1467 31.5833C27.8278 31.5278 27.515 31.4444 27.2083 31.3333ZM20 8.33333C16.75 8.33333 13.9933 9.46556 11.73 11.73C9.46667 13.9944 8.33444 16.7511 8.33333 20C8.33333 22 8.785 23.8333 9.68833 25.5C10.5917 27.1667 11.8067 28.5278 13.3333 29.5833V26.6667C13.3333 26.1944 13.4933 25.7989 13.8133 25.48C14.1333 25.1611 14.5289 25.0011 15 25C15.4711 24.9989 15.8672 25.1589 16.1883 25.48C16.5094 25.8011 16.6689 26.1967 16.6667 26.6667V33.3333C16.6667 33.8056 16.5067 34.2017 16.1867 34.5217C15.8667 34.8417 15.4711 35.0011 15 35H8.33333C7.86111 35 7.46556 34.84 7.14667 34.52C6.82778 34.2 6.66778 33.8044 6.66667 33.3333C6.66556 32.8622 6.82556 32.4667 7.14667 32.1467C7.46778 31.8267 7.86333 31.6667 8.33333 31.6667H10.5833C8.86111 30.2778 7.5 28.5767 6.5 26.5633C5.5 24.55 5 22.3622 5 20C5 17.9167 5.39611 15.9656 6.18833 14.1467C6.98056 12.3278 8.04944 10.7444 9.395 9.39667C10.7406 8.04889 12.3239 6.97944 14.145 6.18833C15.9661 5.39722 17.9178 5.00111 20 5C23.1389 5 25.9656 5.875 28.48 7.625C30.9944 9.375 32.8067 11.625 33.9167 14.375C34.0833 14.8194 34.0833 15.25 33.9167 15.6667C33.75 16.0833 33.4444 16.375 33 16.5417C32.5556 16.7083 32.1178 16.7083 31.6867 16.5417C31.2556 16.375 30.9572 16.0694 30.7917 15.625C29.9306 13.4583 28.5344 11.7017 26.6033 10.355C24.6722 9.00833 22.4711 8.33444 20 8.33333Z" fill="#337BFF"/>
</svg>
