<svg width="459" height="400" viewBox="0 0 459 400" fill="none" xmlns="http://www.w3.org/2000/svg">
<path d="M159.68 232.972L95.8909 196.144C90.7878 193.197 87.5173 189.041 86.0794 183.675C84.6415 178.309 85.3957 173.074 88.342 167.971L125.17 104.182C128.117 99.079 132.273 95.8085 137.639 94.3706C143.006 92.9327 148.24 93.6869 153.343 96.6332L217.132 133.462C222.235 136.408 225.506 140.564 226.944 145.93C228.381 151.297 227.627 156.531 224.681 161.635L187.852 225.423C184.906 230.526 180.75 233.797 175.384 235.235C170.017 236.673 164.783 235.918 159.68 232.972ZM319.86 412.205C314.158 413.733 308.865 413.081 303.979 410.249C299.094 407.417 295.882 403.158 294.344 397.474L272.776 316.98C255.647 320.132 238.551 322.735 221.488 324.791C204.425 326.847 187.182 328.232 169.759 328.946C163.698 329.132 158.236 327.181 153.373 323.092C148.51 319.003 146.146 313.885 146.282 307.737C146.418 301.59 148.736 296.475 153.235 292.394C157.735 288.313 163.002 286.182 169.036 286.003C195.048 285.145 220.82 282.373 246.352 277.688C271.885 273.004 297.221 267.293 322.362 260.557C347.503 253.82 372.307 246.096 396.775 237.383C421.243 228.67 444.941 218.186 467.87 205.931C473.212 203.062 478.845 202.271 484.769 203.56C490.694 204.848 495.251 208.12 498.443 213.376C501.634 218.632 502.153 224.245 499.999 230.214C497.846 236.183 494.085 240.606 488.716 243.482C473.27 251.575 457.645 258.997 441.84 265.748C426.035 272.499 409.927 278.792 393.517 284.627L415.085 365.121C416.613 370.823 415.969 376.121 413.154 381.017C410.339 385.912 406.072 389.119 400.354 390.637L319.86 412.205ZM162.443 186.939L178.647 158.871L150.58 142.667L134.376 170.734L162.443 186.939ZM279.226 99.5691C262.456 104.062 246.629 102.013 231.745 93.4192C216.861 84.8259 207.173 72.1445 202.679 55.3749C198.186 38.6054 200.236 22.7786 208.829 7.89454C217.422 -6.98951 230.104 -16.6782 246.873 -21.1716C263.643 -25.665 279.47 -23.615 294.354 -15.0217C309.238 -6.42842 318.927 6.25301 323.42 23.0226C327.913 39.7921 325.863 55.6189 317.27 70.503C308.677 85.387 295.995 95.0757 279.226 99.5691ZM316.97 240.433C305.902 243.399 295.376 241.999 285.391 236.234C275.406 230.47 268.922 222.048 265.939 210.971C262.957 199.893 264.363 189.365 270.158 179.386C275.954 169.407 284.368 162.925 295.402 159.939C306.436 156.954 316.971 158.359 327.007 164.153C337.043 169.947 343.518 178.364 346.433 189.402C349.348 200.441 347.95 210.974 342.24 221.002C336.529 231.03 328.106 237.507 316.97 240.433ZM268.442 59.3222C274.143 57.7944 278.408 54.5811 281.237 49.6821C284.065 44.7831 284.711 39.4913 283.173 33.8067C281.636 28.122 278.424 23.8637 273.538 21.0317C268.653 18.1997 263.359 17.5475 257.658 19.0753C251.956 20.603 247.698 23.8146 244.883 28.71C242.068 33.6054 241.415 38.899 242.926 44.5908C244.437 50.2826 247.65 54.5477 252.566 57.3859C257.482 60.2242 262.774 60.8696 268.442 59.3222ZM399.58 164.378L365.654 130.332C363.168 127.762 361.431 124.633 360.442 120.944C359.454 117.254 359.393 113.676 360.261 110.208L372.619 63.7603C373.398 59.957 375.071 56.8125 377.64 54.3268C380.21 51.841 383.339 50.1038 387.028 49.1153L432.306 36.9832C435.995 35.9946 439.574 35.9344 443.042 36.8026C446.51 37.6707 449.531 39.5571 452.107 42.4616L486.033 76.5077C488.519 79.0768 490.256 82.2061 491.245 85.8954C492.233 89.5847 492.293 93.1633 491.425 96.6311L479.067 143.079C478.289 146.882 476.615 150.027 474.046 152.512C471.477 154.998 468.348 156.735 464.658 157.724L419.381 169.856C415.691 170.845 412.113 170.905 408.645 170.037C405.177 169.168 402.155 167.282 399.58 164.378ZM420.167 126.509L442.303 120.577L447.979 97.4883L431.519 80.3305L409.383 86.2618L403.707 109.351L420.167 126.509Z" fill="#FAFCF7" fill-opacity="0.2"/>
</svg>
