<svg width="459" height="400" viewBox="0 0 459 400" fill="none" xmlns="http://www.w3.org/2000/svg">
<path d="M354.715 381.297C340.628 385.072 327.419 383.399 315.086 376.279C302.754 369.159 294.7 358.555 290.926 344.469C287.152 330.383 288.824 317.173 295.945 304.841C303.065 292.508 313.668 284.455 327.754 280.68C341.841 276.906 355.05 278.579 367.383 285.699C379.715 292.819 387.769 303.422 391.543 317.509C395.318 331.595 393.645 344.804 386.525 357.137C379.404 369.469 368.801 377.523 354.715 381.297ZM295.402 159.939C320.556 153.199 345.535 150.82 370.337 152.802C395.14 154.783 418.645 160.347 440.852 169.495C448.908 172.728 454.125 178.434 456.503 186.611C458.881 194.788 457.852 202.699 453.415 210.343C449.241 217.573 442.985 222.398 434.647 224.819C426.309 227.24 418.155 226.995 410.186 224.084C395.104 218.778 379.176 215.677 362.4 214.78C345.624 213.883 328.683 215.727 311.578 220.31C294.473 224.893 278.881 231.767 264.801 240.932C250.721 250.097 238.477 260.747 228.068 272.882C222.619 279.375 215.657 283.577 207.182 285.488C198.707 287.399 190.855 286.268 183.626 282.094C176.307 277.585 171.547 271.225 169.347 263.015C167.147 254.804 168.725 247.278 174.082 240.437C188.754 221.407 206.356 204.915 226.887 190.958C247.419 177.002 270.258 166.662 295.402 159.939ZM263.05 39.1987C304.974 27.9652 346.311 24.2579 387.063 28.0768C427.815 31.8956 466.312 42.4298 502.553 59.6794C510.789 63.5837 516.197 69.6833 518.779 77.9782C521.362 86.2731 520.443 94.2478 516.024 101.903C511.85 109.132 505.594 113.957 497.256 116.378C488.918 118.799 480.674 118.219 472.525 114.636C443.074 101.319 411.884 93.234 378.955 90.3818C346.025 87.5297 312.782 90.5921 279.226 99.5691C245.67 108.546 215.356 122.514 188.285 141.472C161.214 160.43 138.238 183.028 119.358 209.267C114.088 216.431 107.239 221.055 98.8112 223.141C90.3833 225.227 82.5528 224.176 75.3198 219.989C67.6652 215.569 62.8822 209.122 60.9709 200.648C59.0596 192.173 60.694 184.186 65.874 176.687C88.6484 143.624 116.727 115.252 150.11 91.5683C183.493 67.8851 221.139 50.4286 263.05 39.1987Z" fill="#FAFCF7" fill-opacity="0.2"/>
</svg>
