<svg width="24" height="25" viewBox="0 0 24 25" fill="none" xmlns="http://www.w3.org/2000/svg">
<path d="M8 17.5C8.28333 17.5 8.521 17.404 8.713 17.212C8.905 17.02 9.00067 16.7827 9 16.5C8.99933 16.2173 8.90333 15.98 8.712 15.788C8.52067 15.596 8.28333 15.5 8 15.5C7.71667 15.5 7.47933 15.596 7.288 15.788C7.09667 15.98 7.00067 16.2173 7 16.5C6.99933 16.7827 7.09533 17.0203 7.288 17.213C7.48067 17.4057 7.718 17.5013 8 17.5ZM8 13.5C8.28333 13.5 8.521 13.404 8.713 13.212C8.905 13.02 9.00067 12.7827 9 12.5C8.99933 12.2173 8.90333 11.98 8.712 11.788C8.52067 11.596 8.28333 11.5 8 11.5C7.71667 11.5 7.47933 11.596 7.288 11.788C7.09667 11.98 7.00067 12.2173 7 12.5C6.99933 12.7827 7.09533 13.0203 7.288 13.213C7.48067 13.4057 7.718 13.5013 8 13.5ZM8 9.5C8.28333 9.5 8.521 9.404 8.713 9.212C8.905 9.02 9.00067 8.78267 9 8.5C8.99933 8.21733 8.90333 7.98 8.712 7.788C8.52067 7.596 8.28333 7.5 8 7.5C7.71667 7.5 7.47933 7.596 7.288 7.788C7.09667 7.98 7.00067 8.21733 7 8.5C6.99933 8.78267 7.09533 9.02033 7.288 9.213C7.48067 9.40567 7.718 9.50133 8 9.5ZM12 17.5H16C16.2833 17.5 16.521 17.404 16.713 17.212C16.905 17.02 17.0007 16.7827 17 16.5C16.9993 16.2173 16.9033 15.98 16.712 15.788C16.5207 15.596 16.2833 15.5 16 15.5H12C11.7167 15.5 11.4793 15.596 11.288 15.788C11.0967 15.98 11.0007 16.2173 11 16.5C10.9993 16.7827 11.0953 17.0203 11.288 17.213C11.4807 17.4057 11.718 17.5013 12 17.5ZM12 13.5H16C16.2833 13.5 16.521 13.404 16.713 13.212C16.905 13.02 17.0007 12.7827 17 12.5C16.9993 12.2173 16.9033 11.98 16.712 11.788C16.5207 11.596 16.2833 11.5 16 11.5H12C11.7167 11.5 11.4793 11.596 11.288 11.788C11.0967 11.98 11.0007 12.2173 11 12.5C10.9993 12.7827 11.0953 13.0203 11.288 13.213C11.4807 13.4057 11.718 13.5013 12 13.5ZM12 9.5H16C16.2833 9.5 16.521 9.404 16.713 9.212C16.905 9.02 17.0007 8.78267 17 8.5C16.9993 8.21733 16.9033 7.98 16.712 7.788C16.5207 7.596 16.2833 7.5 16 7.5H12C11.7167 7.5 11.4793 7.596 11.288 7.788C11.0967 7.98 11.0007 8.21733 11 8.5C10.9993 8.78267 11.0953 9.02033 11.288 9.213C11.4807 9.40567 11.718 9.50133 12 9.5ZM5 21.5C4.45 21.5 3.97933 21.3043 3.588 20.913C3.19667 20.5217 3.00067 20.0507 3 19.5V5.5C3 4.95 3.196 4.47933 3.588 4.088C3.98 3.69667 4.45067 3.50067 5 3.5H19C19.55 3.5 20.021 3.696 20.413 4.088C20.805 4.48 21.0007 4.95067 21 5.5V19.5C21 20.05 20.8043 20.521 20.413 20.913C20.0217 21.305 19.5507 21.5007 19 21.5H5Z" fill="#FAFCF7"/>
</svg>
