<svg width="24" height="24" viewBox="0 0 24 24" fill="none" xmlns="http://www.w3.org/2000/svg">
<path d="M9.025 12.0002C9.025 12.1335 9.04566 12.2585 9.087 12.3752C9.12833 12.4919 9.19933 12.6002 9.3 12.7002L13.9 17.3002C14.0833 17.4835 14.3167 17.5752 14.6 17.5752C14.8833 17.5752 15.1167 17.4835 15.3 17.3002C15.4833 17.1169 15.575 16.8835 15.575 16.6002C15.575 16.3169 15.4833 16.0835 15.3 15.9002L11.4 12.0002L15.3 8.1002C15.4833 7.91686 15.575 7.68353 15.575 7.4002C15.575 7.11686 15.4833 6.88353 15.3 6.7002C15.1167 6.51686 14.8833 6.42519 14.6 6.42519C14.3167 6.42519 14.0833 6.51686 13.9 6.7002L9.3 11.3002C9.2 11.4002 9.129 11.5085 9.087 11.6252C9.045 11.7419 9.02433 11.8669 9.025 12.0002Z" fill="#1A267C" fill-opacity="0.8"/>
</svg>
