<svg width="20" height="20" viewBox="0 0 20 20" fill="none" xmlns="http://www.w3.org/2000/svg">
<path d="M3.99999 9.74967L1.91666 7.66634C1.74999 7.49967 1.66666 7.30523 1.66666 7.08301C1.66666 6.86079 1.74999 6.66634 1.91666 6.49967L3.99999 4.41634C4.16666 4.24967 4.3611 4.16634 4.58332 4.16634C4.80555 4.16634 4.99999 4.24967 5.16666 4.41634L7.24999 6.49967C7.41666 6.66634 7.49999 6.86079 7.49999 7.08301C7.49999 7.30523 7.41666 7.49967 7.24999 7.66634L5.16666 9.74967C4.99999 9.91634 4.80555 9.99967 4.58332 9.99967C4.3611 9.99967 4.16666 9.91634 3.99999 9.74967ZM8.33332 18.333C8.09721 18.333 7.89943 18.253 7.73999 18.093C7.58055 17.933 7.50055 17.7352 7.49999 17.4997V14.1663C6.80555 14.1108 6.11805 14.0344 5.43749 13.9372C4.75693 13.84 4.07638 13.715 3.39582 13.5622C3.15971 13.5066 2.96888 13.3747 2.82332 13.1663C2.67777 12.958 2.63943 12.7358 2.70832 12.4997C2.77721 12.2636 2.91971 12.09 3.13582 11.9788C3.35193 11.8677 3.57749 11.84 3.81249 11.8955C4.82638 12.1316 5.85082 12.2913 6.88582 12.3747C7.92082 12.458 8.95888 12.4997 9.99999 12.4997C11.0411 12.4997 12.0794 12.458 13.115 12.3747C14.1505 12.2913 15.1747 12.1316 16.1875 11.8955C16.4236 11.84 16.6494 11.8677 16.865 11.9788C17.0805 12.09 17.2228 12.2636 17.2917 12.4997C17.3605 12.7358 17.3225 12.958 17.1775 13.1663C17.0325 13.3747 16.8414 13.5066 16.6042 13.5622C15.9236 13.715 15.243 13.84 14.5625 13.9372C13.8819 14.0344 13.1944 14.1108 12.5 14.1663V17.4997C12.5 17.7358 12.4203 17.9338 12.2608 18.0938C12.1014 18.2538 11.9033 18.3336 11.6667 18.333H8.33332ZM4.58332 7.99967L5.49999 7.08301L4.58332 6.16634L3.66666 7.08301L4.58332 7.99967ZM9.99999 5.83301C9.30555 5.83301 8.71527 5.58995 8.22916 5.10384C7.74305 4.61773 7.49999 4.02745 7.49999 3.33301C7.49999 2.63856 7.74305 2.04829 8.22916 1.56217C8.71527 1.07606 9.30555 0.833008 9.99999 0.833008C10.6944 0.833008 11.2847 1.07606 11.7708 1.56217C12.2569 2.04829 12.5 2.63856 12.5 3.33301C12.5 4.02745 12.2569 4.61773 11.7708 5.10384C11.2847 5.58995 10.6944 5.83301 9.99999 5.83301ZM9.99999 11.6663C9.54166 11.6663 9.14944 11.5033 8.82332 11.1772C8.49721 10.8511 8.33388 10.4586 8.33332 9.99967C8.33277 9.54078 8.4961 9.14856 8.82332 8.82301C9.15055 8.49745 9.54277 8.33412 9.99999 8.33301C10.4572 8.3319 10.8497 8.49523 11.1775 8.82301C11.5053 9.15079 11.6683 9.54301 11.6667 9.99967C11.665 10.4563 11.5019 10.8488 11.1775 11.1772C10.853 11.5055 10.4605 11.6686 9.99999 11.6663ZM9.99999 4.16634C10.2361 4.16634 10.4342 4.08634 10.5942 3.92634C10.7542 3.76634 10.8339 3.56856 10.8333 3.33301C10.8328 3.09745 10.7528 2.89967 10.5933 2.73967C10.4339 2.57967 10.2361 2.49967 9.99999 2.49967C9.76388 2.49967 9.5661 2.57967 9.40666 2.73967C9.24721 2.89967 9.16721 3.09745 9.16666 3.33301C9.1661 3.56856 9.2461 3.76662 9.40666 3.92717C9.56721 4.08773 9.76499 4.16745 9.99999 4.16634ZM13.9792 9.58301L13.0208 7.91634C12.9514 7.79134 12.9167 7.65245 12.9167 7.49967C12.9167 7.3469 12.9514 7.20801 13.0208 7.08301L13.9792 5.41634C14.0486 5.27745 14.1458 5.17329 14.2708 5.10384C14.3958 5.0344 14.5347 4.99967 14.6875 4.99967H16.5625C16.7153 4.99967 16.8542 5.0344 16.9792 5.10384C17.1042 5.17329 17.2014 5.27745 17.2708 5.41634L18.2292 7.08301C18.2986 7.20801 18.3333 7.3469 18.3333 7.49967C18.3333 7.65245 18.2986 7.79134 18.2292 7.91634L17.2708 9.58301C17.2014 9.7219 17.1042 9.82606 16.9792 9.89551C16.8542 9.96495 16.7153 9.99967 16.5625 9.99967H14.6875C14.5347 9.99967 14.3958 9.96495 14.2708 9.89551C14.1458 9.82606 14.0486 9.7219 13.9792 9.58301ZM15.1667 8.33301H16.0833L16.5417 7.49967L16.0833 6.66634H15.1667L14.7083 7.49967L15.1667 8.33301Z" fill="#1A267C" fill-opacity="0.8"/>
</svg>
