<svg width="24" height="24" viewBox="0 0 24 24" xmlns="http://www.w3.org/2000/svg">
<path d="M3 10.5V6C3 5.71667 3.096 5.47933 3.288 5.288C3.48 5.09667 3.71733 5.00067 4 5H7.325C7.60833 5 7.846 5.096 8.038 5.288C8.23 5.48 8.32567 5.71733 8.325 6V10.5C8.325 10.7833 8.22933 11.021 8.038 11.213C7.84667 11.405 7.609 11.5007 7.325 11.5H4C3.71667 11.5 3.47933 11.404 3.288 11.212C3.09667 11.02 3.00067 10.7827 3 10.5ZM10.325 11.5C10.0417 11.5 9.80433 11.404 9.613 11.212C9.42167 11.02 9.32567 10.7827 9.325 10.5V6C9.325 5.71667 9.421 5.47933 9.613 5.288C9.805 5.09667 10.0423 5.00067 10.325 5H13.675C13.9583 5 14.196 5.096 14.388 5.288C14.58 5.48 14.6757 5.71733 14.675 6V10.5C14.675 10.7833 14.579 11.021 14.387 11.213C14.195 11.405 13.9577 11.5007 13.675 11.5H10.325ZM16.675 11.5C16.3917 11.5 16.1543 11.404 15.963 11.212C15.7717 11.02 15.6757 10.7827 15.675 10.5V6C15.675 5.71667 15.771 5.47933 15.963 5.288C16.155 5.09667 16.3923 5.00067 16.675 5H20C20.2833 5 20.521 5.096 20.713 5.288C20.905 5.48 21.0007 5.71733 21 6V10.5C21 10.7833 20.904 11.021 20.712 11.213C20.52 11.405 20.2827 11.5007 20 11.5H16.675ZM7.325 19H4C3.71667 19 3.47933 18.904 3.288 18.712C3.09667 18.52 3.00067 18.2827 3 18V13.5C3 13.2167 3.096 12.9793 3.288 12.788C3.48 12.5967 3.71733 12.5007 4 12.5H7.325C7.60833 12.5 7.846 12.596 8.038 12.788C8.23 12.98 8.32567 13.2173 8.325 13.5V18C8.325 18.2833 8.22933 18.521 8.038 18.713C7.84667 18.905 7.609 19.0007 7.325 19ZM10.325 19C10.0417 19 9.80433 18.904 9.613 18.712C9.42167 18.52 9.32533 18.2827 9.324 18V13.5C9.324 13.2167 9.42 12.9793 9.612 12.788C9.804 12.5967 10.0413 12.5007 10.324 12.5H13.674C13.9573 12.5 14.195 12.596 14.387 12.788C14.579 12.98 14.6747 13.2173 14.674 13.5V18C14.674 18.2833 14.578 18.521 14.386 18.713C14.194 18.905 13.9567 19.0007 13.674 19H10.325ZM16.675 19C16.3917 19 16.1543 18.904 15.963 18.712C15.7717 18.52 15.6757 18.2827 15.675 18V13.5C15.675 13.2167 15.771 12.9793 15.963 12.788C16.155 12.5967 16.3923 12.5007 16.675 12.5H20C20.2833 12.5 20.521 12.596 20.713 12.788C20.905 12.98 21.0007 13.2173 21 13.5V18C21 18.2833 20.904 18.521 20.712 18.713C20.52 18.905 20.2827 19.0007 20 19H16.675Z" />
</svg>
