<svg width="20" height="20" viewBox="0 0 20 20" fill="none" xmlns="http://www.w3.org/2000/svg">
<path d="M10 9.99967C9.08337 9.99967 8.29865 9.67329 7.64587 9.02051C6.9931 8.36773 6.66671 7.58301 6.66671 6.66634C6.66671 5.74967 6.9931 4.96495 7.64587 4.31217C8.29865 3.6594 9.08337 3.33301 10 3.33301C10.9167 3.33301 11.7014 3.6594 12.3542 4.31217C13.007 4.96495 13.3334 5.74967 13.3334 6.66634C13.3334 7.58301 13.007 8.36773 12.3542 9.02051C11.7014 9.67329 10.9167 9.99967 10 9.99967ZM3.33337 14.9997V14.333C3.33337 13.8608 3.45504 13.4269 3.69837 13.0313C3.94171 12.6358 4.26449 12.3336 4.66671 12.1247C5.52782 11.6941 6.40282 11.3713 7.29171 11.1563C8.1806 10.9413 9.08337 10.8336 10 10.833C10.9167 10.8325 11.8195 10.9402 12.7084 11.1563C13.5973 11.3725 14.4723 11.6952 15.3334 12.1247C15.7362 12.333 16.0592 12.6352 16.3025 13.0313C16.5459 13.4275 16.6673 13.8613 16.6667 14.333V14.9997C16.6667 15.458 16.5037 15.8505 16.1775 16.1772C15.8514 16.5038 15.4589 16.6669 15 16.6663H5.00004C4.54171 16.6663 4.14948 16.5033 3.82337 16.1772C3.49726 15.8511 3.33393 15.4586 3.33337 14.9997Z" fill="#1A267C" fill-opacity="0.8"/>
</svg>
