<svg width="149" height="146" viewBox="0 0 149 146" fill="none" xmlns="http://www.w3.org/2000/svg">
<path d="M74.3638 88.2711C81.9913 88.2711 88.1679 82.1036 88.1679 74.4876C88.1679 66.8715 81.9913 60.7041 74.3638 60.7041C66.7363 60.7041 60.5596 66.8715 60.5596 74.4876C60.5452 82.1036 66.7363 88.2711 74.3638 88.2711Z" stroke="#E76715" stroke-width="10" stroke-linecap="round"/>
<path d="M19.1182 115.853C10.1405 103.919 5.28536 89.4044 5.31409 74.4735C5.31409 36.3932 36.2262 5.52734 74.3636 5.52734C112.501 5.52734 143.413 36.3932 143.413 74.4735C143.413 90.0068 138.271 104.321 129.609 115.853" stroke="#E76715" stroke-width="10" stroke-linecap="round"/>
<path d="M43.4943 104.335C38.1794 98.4117 34.6602 91.0251 33.4105 83.0935C32.1608 75.2336 33.2668 67.1729 36.5132 59.8581C39.8314 52.5432 45.0743 46.4188 51.8399 42.0729C58.5337 37.7271 66.3336 35.3892 74.3489 35.3892C82.3642 35.3892 90.1641 37.7271 96.8579 42.0729C103.623 46.4188 108.866 52.5576 112.185 59.8581C115.431 67.1729 116.537 75.2336 115.287 83.0935C114.038 91.0251 110.518 98.3973 105.204 104.335M74.3633 90.5518V124.602V125.018" stroke="#E76715" stroke-width="10" stroke-linecap="round"/>
<path d="M97.763 144.94C96.1111 145.7 92.994 145.7 86.8461 145.7H61.8664C55.7185 145.7 52.6158 145.7 50.9495 144.94C47.5595 143.42 45.9076 139.906 47.1573 136.664C47.7032 135.072 49.8435 133.15 54.1959 129.22C55.0865 128.46 55.9914 127.7 56.9538 127.011C58.4046 126.05 60.1284 125.419 61.9239 125.147C62.8145 125.003 63.7913 125.003 65.6586 125.003H83.0539C84.9212 125.003 85.8837 125.003 86.7886 125.147C88.5842 125.348 90.236 126.036 91.7587 127.011C92.7211 127.7 93.6261 128.46 94.5166 129.22C98.869 133.15 101.009 135.086 101.555 136.664C102.805 139.906 101.153 143.42 97.763 144.94Z" fill="#E76715"/>
</svg>
