<svg width="232" height="232" viewBox="0 0 232 232" fill="none" xmlns="http://www.w3.org/2000/svg">
<path d="M79.6288 198.388C75.1151 199.184 70.9693 198.259 67.1914 195.614C63.4136 192.969 61.1235 189.387 60.3212 184.869L47.2975 111.008C46.8393 108.41 46.9879 105.845 47.7432 103.314C48.4986 100.783 49.7667 98.5852 51.5476 96.7199L94.2762 51.1072C96.7627 48.4122 99.8524 46.7392 103.545 46.088C107.238 45.4368 110.714 45.9522 113.972 47.6342L169.725 75.8821C172.042 77.0249 173.988 78.6562 175.563 80.7759C177.138 82.8957 178.152 85.2554 178.605 87.8552C177.366 89.6251 176.476 91.5816 175.934 93.7249C175.392 95.8682 174.03 97.1296 171.846 97.509L122.605 106.191C118.091 106.987 114.512 109.277 111.868 113.06C109.224 116.844 108.296 120.99 109.086 125.499L114.874 158.326C115.67 162.84 117.96 166.421 121.744 169.071C125.529 171.721 129.674 172.646 134.182 171.845L183.422 163.163C185.747 162.753 187.837 163.197 189.69 164.495C191.544 165.792 192.672 167.602 193.076 169.923C193.479 172.243 193.036 174.333 191.744 176.191C190.453 178.049 188.643 179.177 186.316 179.576L79.6288 198.388ZM132.735 163.639C130.409 164.049 128.323 163.604 126.475 162.305C124.627 161.006 123.495 159.198 123.081 156.879L117.293 124.052C116.883 121.727 117.327 119.64 118.626 117.792C119.925 115.944 121.733 114.813 124.052 114.398L156.879 108.61C159.204 108.2 161.294 108.644 163.147 109.942C165.001 111.24 166.129 113.049 166.533 115.37L167.98 123.576L177.467 116.192C178.714 115.267 180.061 115.1 181.508 115.691C182.955 116.282 183.808 117.33 184.068 118.836L187.613 138.942C187.879 140.447 187.432 141.724 186.275 142.774C185.118 143.825 183.797 144.128 182.315 143.684L170.874 139.99L172.321 148.196C172.731 150.522 172.287 152.611 170.989 154.465C169.692 156.318 167.882 157.447 165.562 157.85L132.735 163.639Z" fill="#FAFCF7" fill-opacity="0.1"/>
</svg>
