<svg width="232" height="232" viewBox="0 0 232 232" fill="none" xmlns="http://www.w3.org/2000/svg">
<path d="M111.667 137.737L141.89 109.984C144.063 107.908 144.884 105.366 144.353 102.357C143.822 99.3478 142.181 97.2396 139.43 96.0324L101.537 80.2899C98.4882 78.9941 95.6602 79.3518 93.0531 81.3628C90.446 83.3738 89.4319 86.0207 90.0108 89.3034L97.7526 133.209C98.3314 136.492 100.19 138.632 103.327 139.631C106.465 140.629 109.245 139.997 111.667 137.737ZM60.3212 184.869C55.8075 185.665 51.6617 184.74 47.8839 182.095C44.106 179.45 41.8159 175.868 41.0136 171.35L23.6488 72.869C22.8529 68.3553 23.7803 64.2091 26.4311 60.4302C29.0818 56.6514 32.6608 54.3618 37.1681 53.5614L168.476 30.4083C172.989 29.6125 177.138 30.5394 180.923 33.1892C184.707 35.839 186.994 39.4185 187.783 43.9277L205.148 142.408C205.944 146.922 205.02 151.071 202.376 154.854C199.731 158.637 196.149 160.925 191.629 161.716L158.802 167.504L160.249 175.711C160.659 178.036 160.215 180.126 158.917 181.979C157.619 183.833 155.81 184.961 153.489 185.365L104.249 194.047C101.924 194.457 99.8371 194.013 97.989 192.714C96.141 191.415 95.0097 189.606 94.5952 187.288L93.1481 179.081L60.3212 184.869Z" fill="#FAFCF7" fill-opacity="0.1"/>
</svg>
