<svg width="232" height="232" viewBox="0 0 232 232" fill="none" xmlns="http://www.w3.org/2000/svg">
<path d="M56.3229 123.802L32.1885 106.903C30.2577 105.551 29.0994 103.781 28.7135 101.592C28.3276 99.404 28.8106 97.3444 30.1626 95.4136L47.0617 71.2791C48.4136 69.3484 50.1838 68.1901 52.3723 67.8042C54.5608 67.4183 56.6204 67.9013 58.5511 69.2533L82.6856 86.1524C84.6164 87.5043 85.7747 89.2745 86.1606 91.463C86.5465 93.6515 86.0635 95.7111 84.7115 97.6418L67.8124 121.776C66.4604 123.707 64.6902 124.865 62.5018 125.251C60.3133 125.637 58.2537 125.154 56.3229 123.802ZM113.903 200.807C111.578 201.217 109.491 200.772 107.643 199.474C105.795 198.175 104.663 196.366 104.249 194.047L98.4607 161.22C91.5253 161.879 84.6221 162.321 77.7511 162.545C70.8801 162.769 63.9609 162.72 56.9934 162.397C54.5717 162.26 52.4632 161.292 50.668 159.493C48.8728 157.694 48.1094 155.572 48.3778 153.127C48.6463 150.683 49.7481 148.725 51.6835 147.256C53.6188 145.786 55.7919 145.121 58.2026 145.26C68.5975 145.825 78.9637 145.619 89.3011 144.642C99.6386 143.666 109.934 142.273 120.187 140.466C130.44 138.658 140.593 136.444 150.646 133.825C160.7 131.206 170.509 127.855 180.073 123.771C182.301 122.814 184.574 122.695 186.889 123.415C189.205 124.135 190.907 125.598 191.996 127.804C193.084 130.009 193.095 132.264 192.029 134.567C190.963 136.871 189.31 138.502 187.07 139.461C180.633 142.147 174.148 144.56 167.615 146.699C161.081 148.839 154.444 150.785 147.701 152.538L153.489 185.365C153.899 187.69 153.458 189.779 152.166 191.631C150.873 193.484 149.061 194.613 146.73 195.019L113.903 200.807ZM59.0288 105.555L66.4644 94.936L55.8453 87.5003L48.4096 98.1195L59.0288 105.555ZM108.61 74.8117C101.771 76.0176 95.5361 74.649 89.9047 70.7058C84.2733 66.7627 80.8547 61.3716 79.6488 54.5327C78.4429 47.6938 79.8115 41.4586 83.7547 35.8272C87.6978 30.1958 93.0888 26.7772 99.9278 25.5713C106.767 24.3654 113.002 25.734 118.633 29.6772C124.265 33.6203 127.683 39.0114 128.889 45.8503C130.095 52.6892 128.726 58.9244 124.783 64.5558C120.84 70.1872 115.449 73.6058 108.61 74.8117ZM118.74 132.259C114.226 133.055 110.08 132.13 106.302 129.485C102.524 126.839 100.234 123.258 99.4321 118.739C98.6297 114.221 99.5572 110.075 102.214 106.301C104.872 102.526 108.451 100.237 112.951 99.4319C117.452 98.627 121.601 99.5539 125.398 102.213C129.196 104.872 131.482 108.451 132.259 112.951C133.036 117.451 132.111 121.6 129.486 125.397C126.861 129.194 123.279 131.481 118.74 132.259ZM105.716 58.3982C108.041 57.9882 109.853 56.8565 111.151 55.0029C112.449 53.1494 112.89 51.0632 112.476 48.7444C112.061 46.4256 110.93 44.6168 109.082 43.318C107.234 42.0192 105.147 41.5748 102.822 41.9848C100.497 42.3948 98.6879 43.5261 97.3955 45.3786C96.1031 47.2312 95.6587 49.3178 96.0623 51.6386C96.4658 53.9593 97.5976 55.7709 99.4576 57.0732C101.318 58.3756 103.404 58.8172 105.716 58.3982ZM154.309 104.832L141.977 90.0829C141.076 88.9725 140.493 87.665 140.228 86.1604C139.963 84.6559 140.063 83.2278 140.53 81.8762L147.074 63.7986C147.517 62.3102 148.293 61.1155 149.404 60.2146C150.514 59.3136 151.821 58.7305 153.326 58.4652L171.791 55.2093C173.296 54.944 174.724 55.0448 176.075 55.5116C177.427 55.9784 178.565 56.8355 179.49 58.0827L191.822 72.832C192.723 73.9424 193.306 75.2499 193.572 76.7545C193.837 78.259 193.736 79.6871 193.269 81.0387L186.726 99.1163C186.283 100.605 185.506 101.799 184.396 102.7C183.286 103.601 181.978 104.184 180.474 104.45L162.008 107.706C160.504 107.971 159.076 107.87 157.724 107.403C156.373 106.936 155.234 106.079 154.309 104.832ZM163.833 90.4601L172.861 88.8683L175.927 79.8657L169.966 72.4548L160.939 74.0466L157.872 83.0492L163.833 90.4601Z" fill="#FAFCF7" fill-opacity="0.1"/>
</svg>
