<svg width="232" height="232" viewBox="0 0 232 232" fill="none" xmlns="http://www.w3.org/2000/svg">
<path d="M128.869 189.706C123.125 190.719 117.919 189.592 113.253 186.325C108.587 183.057 105.748 178.551 104.735 172.807C103.722 167.062 104.849 161.857 108.116 157.191C111.383 152.525 115.889 149.685 121.634 148.672C127.379 147.659 132.584 148.786 137.25 152.054C141.916 155.321 144.755 159.827 145.768 165.571C146.781 171.316 145.654 176.522 142.387 181.188C139.12 185.854 134.614 188.693 128.869 189.706ZM112.952 99.4319C123.21 97.6231 133.246 97.5458 143.06 99.2C152.874 100.854 162.047 103.891 170.577 108.31C173.674 109.88 175.554 112.335 176.217 115.676C176.879 119.017 176.193 122.134 174.159 125.025C172.244 127.761 169.583 129.465 166.176 130.139C162.769 130.814 159.528 130.432 156.454 128.994C150.629 126.354 144.39 124.563 137.737 123.62C131.083 122.678 124.268 122.822 117.293 124.052C110.317 125.282 103.864 127.478 97.934 130.639C92.004 133.8 86.7537 137.617 82.1831 142.089C79.7852 144.487 76.8645 145.918 73.4209 146.385C69.9773 146.851 66.8879 146.126 64.1526 144.211C61.3933 142.159 59.7184 139.459 59.128 136.11C58.5376 132.762 59.4288 129.818 61.8016 127.279C68.3115 120.208 75.9005 114.249 84.5686 109.404C93.2366 104.558 102.698 101.234 112.952 99.4319ZM104.269 50.1915C121.366 47.1768 137.968 47.1406 154.074 50.0831C170.179 53.0255 185.152 58.5652 198.992 66.7022C202.137 68.5451 204.08 71.1642 204.82 74.5596C205.56 77.955 204.915 81.1007 202.888 83.9968C200.972 86.7321 198.311 88.4367 194.904 89.1108C191.497 89.7849 188.233 89.2661 185.11 87.5545C173.839 81.2211 161.693 76.9121 148.67 74.6276C135.648 72.343 122.295 72.4044 108.61 74.8117C94.926 77.219 82.3597 81.7279 70.9115 88.3385C59.4633 94.9492 49.5202 103.153 41.0822 112.951C38.7325 115.621 35.8421 117.225 32.411 117.763C28.98 118.3 25.8964 117.608 23.1602 115.688C20.264 113.66 18.5829 110.924 18.1167 107.48C17.6505 104.037 18.5802 100.911 20.9058 98.1036C31.1335 85.7228 43.3113 75.3957 57.4393 67.1223C71.5673 58.8489 87.1772 53.2053 104.269 50.1915Z" fill="#FAFCF7" fill-opacity="0.1"/>
</svg>
