<svg width="86" height="86" viewBox="0 0 86 86" fill="none" xmlns="http://www.w3.org/2000/svg">
<rect width="86" height="86" rx="20" fill="#1A267C"/>
<path d="M33 40.25C33 42.5833 34.1458 44.8125 36.4375 46.9375C38.7292 49.0625 40.6458 50.8333 42.1875 52.25C42.4375 52.4583 42.7192 52.5625 43.0325 52.5625C43.3458 52.5625 43.6267 52.4583 43.875 52.25C45.375 50.875 47.2708 49.0942 49.5625 46.9075C51.8542 44.7208 53 42.5017 53 40.25C53 38.75 52.4583 37.4583 51.375 36.375C50.2917 35.2917 49 34.75 47.5 34.75C46.625 34.75 45.7808 34.9275 44.9675 35.2825C44.1542 35.6375 43.4983 36.1267 43 36.75C42.5 36.125 41.8542 35.6358 41.0625 35.2825C40.2708 34.9292 39.4167 34.7517 38.5 34.75C37 34.75 35.7083 35.2917 34.625 36.375C33.5417 37.4583 33 38.75 33 40.25ZM43 67.75C42.7083 67.75 42.4375 67.7292 42.1875 67.6875C41.9375 67.6458 41.6875 67.5833 41.4375 67.5C35.8125 65.625 31.3333 62.1558 28 57.0925C24.6667 52.0292 23 46.5817 23 40.75V28.9375C23 27.8958 23.3025 26.9583 23.9075 26.125C24.5125 25.2917 25.2933 24.6875 26.25 24.3125L41.25 18.6875C41.8333 18.4792 42.4167 18.375 43 18.375C43.5833 18.375 44.1667 18.4792 44.75 18.6875L59.75 24.3125C60.7083 24.6875 61.49 25.2917 62.095 26.125C62.7 26.9583 63.0017 27.8958 63 28.9375V40.75C63 46.5833 61.3333 52.0317 58 57.095C54.6667 62.1583 50.1875 65.6267 44.5625 67.5C44.3125 67.5833 44.0625 67.6458 43.8125 67.6875C43.5625 67.7292 43.2917 67.75 43 67.75Z" fill="#FAFCF7"/>
</svg>
