<svg viewBox="0 0 86 87" fill="none" xmlns="http://www.w3.org/2000/svg">
<rect y="0.5" width="100%" height="100%" rx="20" fill="#1A267C"/>
<path d="M38 58.5C36.625 58.5 35.4483 58.0108 34.47 57.0325C33.4917 56.0542 33.0017 54.8767 33 53.5V50.375C30.625 48.75 28.7817 46.6667 27.47 44.125C26.1583 41.5833 25.5017 38.875 25.5 36C25.5 31.125 27.1983 26.99 30.595 23.595C33.9917 20.2 38.1267 18.5017 43 18.5C47.8733 18.4983 52.0092 20.1967 55.4075 23.595C58.8058 26.9933 60.5033 31.1283 60.5 36C60.5 38.875 59.8433 41.5733 58.53 44.095C57.2167 46.6167 55.3733 48.71 53 50.375V53.5C53 54.875 52.5108 56.0525 51.5325 57.0325C50.5542 58.0125 49.3767 58.5017 48 58.5H38ZM38 68.5C37.2917 68.5 36.6983 68.26 36.22 67.78C35.7417 67.3 35.5017 66.7067 35.5 66C35.4983 65.2933 35.7383 64.7 36.22 64.22C36.7017 63.74 37.295 63.5 38 63.5H48C48.7083 63.5 49.3025 63.74 49.7825 64.22C50.2625 64.7 50.5017 65.2933 50.5 66C50.4983 66.7067 50.2583 67.3008 49.78 67.7825C49.3017 68.2642 48.7083 68.5033 48 68.5H38Z" fill="#FAFCF7"/>
</svg>
