<svg viewBox="0 0 86 86" fill="none" xmlns="http://www.w3.org/2000/svg">
<rect width="100%" height="100%" rx="20" fill="#1A267C"/>
<path d="M43 43C40.25 43 37.8958 42.0208 35.9375 40.0625C33.9792 38.1042 33 35.75 33 33C33 30.25 33.9792 27.8958 35.9375 25.9375C37.8958 23.9792 40.25 23 43 23C45.75 23 48.1042 23.9792 50.0625 25.9375C52.0208 27.8958 53 30.25 53 33C53 35.75 52.0208 38.1042 50.0625 40.0625C48.1042 42.0208 45.75 43 43 43ZM28 63C26.625 63 25.4483 62.5108 24.47 61.5325C23.4917 60.5542 23.0017 59.3767 23 58V56C23 54.5833 23.365 53.2817 24.095 52.095C24.825 50.9083 25.7933 50.0017 27 49.375C29.0833 48.3333 31.1567 47.5108 33.22 46.9075C35.2833 46.3042 37.4392 45.8975 39.6875 45.6875C40.6458 45.6042 41.4167 45.9583 42 46.75C42.5833 47.5417 42.7708 48.4375 42.5625 49.4375C42.5208 49.6458 42.5 49.8442 42.5 50.0325V50.625C42.5 51.875 42.7192 53.115 43.1575 54.345C43.5958 55.575 44.3558 56.7308 45.4375 57.8125L46.4375 58.75C47.2292 59.5417 47.4067 60.4483 46.97 61.47C46.5333 62.4917 45.7517 63.0017 44.625 63H28ZM56 61.25L49 54.25C48.4583 53.7083 48.0733 53.125 47.845 52.5C47.6167 51.875 47.5017 51.25 47.5 50.625C47.5 49.2917 47.9792 48.1042 48.9375 47.0625C49.8958 46.0208 51.125 45.5 52.625 45.5C53.7917 45.5 54.7083 45.7708 55.375 46.3125C56.0417 46.8542 56.8333 47.5833 57.75 48.5C58.5833 47.6667 59.3442 46.9583 60.0325 46.375C60.7208 45.7917 61.6683 45.5 62.875 45.5C64.4167 45.5 65.6567 46.0317 66.595 47.095C67.5333 48.1583 68.0017 49.355 68 50.685C68 51.31 67.875 51.935 67.625 52.56C67.375 53.185 67 53.7475 66.5 54.2475L59.5 61.2475C59 61.7475 58.4167 61.9975 57.75 61.9975C57.0833 61.9975 56.5 61.75 56 61.25Z" fill="#FAFCF7"/>
</svg>
