<svg viewBox="0 0 86 86" fill="none" xmlns="http://www.w3.org/2000/svg">
<rect width="100%" height="100%" rx="20" fill="#1A267C"/>
<path d="M25 42.25L18.75 36C18.25 35.5 18 34.9167 18 34.25C18 33.5833 18.25 33 18.75 32.5L25 26.25C25.5 25.75 26.0833 25.5 26.75 25.5C27.4167 25.5 28 25.75 28.5 26.25L34.75 32.5C35.25 33 35.5 33.5833 35.5 34.25C35.5 34.9167 35.25 35.5 34.75 36L28.5 42.25C28 42.75 27.4167 43 26.75 43C26.0833 43 25.5 42.75 25 42.25ZM38 68C37.2917 68 36.6983 67.76 36.22 67.28C35.7417 66.8 35.5017 66.2067 35.5 65.5V55.5C33.4167 55.3333 31.3542 55.1042 29.3125 54.8125C27.2708 54.5208 25.2292 54.1458 23.1875 53.6875C22.4792 53.5208 21.9067 53.125 21.47 52.5C21.0333 51.875 20.9183 51.2083 21.125 50.5C21.3317 49.7917 21.7592 49.2708 22.4075 48.9375C23.0558 48.6042 23.7325 48.5208 24.4375 48.6875C27.4792 49.3958 30.5525 49.875 33.6575 50.125C36.7625 50.375 39.8767 50.5 43 50.5C46.1233 50.5 49.2383 50.375 52.345 50.125C55.4517 49.875 58.5242 49.3958 61.5625 48.6875C62.2708 48.5208 62.9483 48.6042 63.595 48.9375C64.2417 49.2708 64.6683 49.7917 64.875 50.5C65.0817 51.2083 64.9675 51.875 64.5325 52.5C64.0975 53.125 63.5242 53.5208 62.8125 53.6875C60.7708 54.1458 58.7292 54.5208 56.6875 54.8125C54.6458 55.1042 52.5833 55.3333 50.5 55.5V65.5C50.5 66.2083 50.2608 66.8025 49.7825 67.2825C49.3042 67.7625 48.71 68.0017 48 68H38ZM26.75 37L29.5 34.25L26.75 31.5L24 34.25L26.75 37ZM43 30.5C40.9167 30.5 39.1458 29.7708 37.6875 28.3125C36.2292 26.8542 35.5 25.0833 35.5 23C35.5 20.9167 36.2292 19.1458 37.6875 17.6875C39.1458 16.2292 40.9167 15.5 43 15.5C45.0833 15.5 46.8542 16.2292 48.3125 17.6875C49.7708 19.1458 50.5 20.9167 50.5 23C50.5 25.0833 49.7708 26.8542 48.3125 28.3125C46.8542 29.7708 45.0833 30.5 43 30.5ZM43 48C41.625 48 40.4483 47.5108 39.47 46.5325C38.4917 45.5542 38.0017 44.3767 38 43C37.9983 41.6233 38.4883 40.4467 39.47 39.47C40.4517 38.4933 41.6283 38.0033 43 38C44.3717 37.9967 45.5492 38.4867 46.5325 39.47C47.5158 40.4533 48.005 41.63 48 43C47.995 44.37 47.5058 45.5475 46.5325 46.5325C45.5592 47.5175 44.3817 48.0067 43 48ZM43 25.5C43.7083 25.5 44.3025 25.26 44.7825 24.78C45.2625 24.3 45.5017 23.7067 45.5 23C45.4983 22.2933 45.2583 21.7 44.78 21.22C44.3017 20.74 43.7083 20.5 43 20.5C42.2917 20.5 41.6983 20.74 41.22 21.22C40.7417 21.7 40.5017 22.2933 40.5 23C40.4983 23.7067 40.7383 24.3008 41.22 24.7825C41.7017 25.2642 42.295 25.5033 43 25.5ZM54.9375 41.75L52.0625 36.75C51.8542 36.375 51.75 35.9583 51.75 35.5C51.75 35.0417 51.8542 34.625 52.0625 34.25L54.9375 29.25C55.1458 28.8333 55.4375 28.5208 55.8125 28.3125C56.1875 28.1042 56.6042 28 57.0625 28H62.6875C63.1458 28 63.5625 28.1042 63.9375 28.3125C64.3125 28.5208 64.6042 28.8333 64.8125 29.25L67.6875 34.25C67.8958 34.625 68 35.0417 68 35.5C68 35.9583 67.8958 36.375 67.6875 36.75L64.8125 41.75C64.6042 42.1667 64.3125 42.4792 63.9375 42.6875C63.5625 42.8958 63.1458 43 62.6875 43H57.0625C56.6042 43 56.1875 42.8958 55.8125 42.6875C55.4375 42.4792 55.1458 42.1667 54.9375 41.75ZM58.5 38H61.25L62.625 35.5L61.25 33H58.5L57.125 35.5L58.5 38Z" fill="#FAFCF7"/>
</svg>
