<svg width="232" height="232" viewBox="0 0 232 232" fill="none" xmlns="http://www.w3.org/2000/svg">
<path d="M115.846 115.845C106.818 117.437 98.5235 115.586 90.9613 110.29C83.3992 104.995 78.8222 97.8341 77.2304 88.8067C75.6387 79.7793 77.4903 71.4845 82.7854 63.9224C88.0804 56.3603 95.2417 51.7833 104.269 50.1915C113.296 48.5997 121.591 50.4514 129.153 55.7465C136.716 61.0415 141.293 68.2028 142.884 77.2302C144.476 86.2576 142.624 94.5524 137.329 102.114C132.034 109.677 124.873 114.254 115.846 115.845ZM78.1818 190.182C73.6681 190.978 69.5223 190.053 65.7445 187.408C61.9666 184.762 59.6765 181.181 58.8742 176.662L57.7165 170.097C56.8965 165.446 57.3413 160.962 59.0508 156.644C60.7603 152.326 63.4142 148.789 67.0126 146.034C73.2486 141.408 79.5786 137.508 86.0027 134.333C92.4267 131.159 99.2683 128.576 106.527 126.585C109.625 125.757 112.36 126.473 114.734 128.734C117.107 130.995 118.241 133.828 118.136 137.231C118.119 137.939 118.166 138.602 118.275 139.22L118.618 141.165C119.341 145.269 120.779 149.212 122.929 152.996C125.08 156.78 128.244 160.135 132.421 163.059L136.246 165.558C139.303 167.699 140.411 170.572 139.569 174.179C138.727 177.785 136.456 179.912 132.757 180.559L78.1818 190.182ZM169.084 168.23L142.054 149.303C139.962 147.838 138.36 146.146 137.249 144.227C136.138 142.307 135.399 140.322 135.031 138.271C134.26 133.894 135.145 129.719 137.688 125.745C140.231 121.77 143.965 119.349 148.889 118.481C152.718 117.806 155.884 118.164 158.386 119.556C160.888 120.949 163.909 122.884 167.449 125.362C169.702 122.145 171.79 119.379 173.712 117.066C175.634 114.752 178.575 113.246 182.536 112.548C187.597 111.656 191.975 112.683 195.671 115.631C199.367 118.578 201.597 122.235 202.361 126.602C202.723 128.654 202.674 130.778 202.216 132.974C201.757 135.171 200.851 137.234 199.499 139.165L180.572 166.196C179.22 168.126 177.45 169.285 175.262 169.671C173.073 170.057 171.015 169.582 169.084 168.23Z" fill="#1A267C" fill-opacity="0.1"/>
</svg>
