<svg width="232" height="232" viewBox="0 0 232 232" fill="none" xmlns="http://www.w3.org/2000/svg">
<path d="M108.114 167.98C103.601 168.776 99.455 167.851 95.6771 165.206C91.8993 162.561 89.6092 158.979 88.8069 154.461L86.998 144.202C78.2611 140.243 71.0041 134.471 65.2271 126.886C59.4501 119.302 55.7268 110.792 54.0572 101.355C51.2354 85.3517 54.4171 70.7947 63.6022 57.6839C72.7873 44.5731 85.3782 36.6045 101.375 33.7782C117.372 30.952 131.931 34.1331 145.054 43.3218C158.177 52.5104 166.143 65.1018 168.951 81.0959C170.616 90.5336 170.022 99.7715 167.17 108.81C164.318 117.848 159.479 125.786 152.652 132.626L154.461 142.884C155.257 147.398 154.332 151.546 151.688 155.33C149.044 159.113 145.462 161.4 140.941 162.192L108.114 167.98ZM113.903 200.807C111.578 201.217 109.491 200.773 107.643 199.474C105.795 198.175 104.663 196.366 104.249 194.047C103.834 191.729 104.279 189.642 105.582 187.787C106.886 185.933 108.694 184.802 111.009 184.394L143.836 178.605C146.161 178.195 148.25 178.639 150.104 179.937C151.957 181.235 153.086 183.044 153.489 185.365C153.893 187.686 153.449 189.775 152.158 191.633C150.866 193.491 149.057 194.62 146.73 195.019L113.903 200.807Z" fill="#FAFCF7" fill-opacity="0.1"/>
</svg>
