<svg width="459" height="400" viewBox="0 0 459 400" fill="none" xmlns="http://www.w3.org/2000/svg">
<path d="M287.347 158.3C290.66 153.936 296.507 152.369 301.558 154.493L461.112 221.584C465.93 223.61 468.912 228.525 468.259 233.71C464.999 259.627 457.717 284.37 446.415 307.939C436.789 328.014 424.732 345.938 410.246 361.71C404.175 368.32 393.548 365.239 391.225 356.57L365.85 261.867C364.135 255.465 357.555 251.666 351.153 253.381L293.841 268.738C287.44 270.453 283.641 277.033 285.356 283.435L310.728 378.124C313.052 386.796 305.383 394.779 296.818 392.085C276.4 385.661 257.007 376.171 238.641 363.612C217.071 348.863 198.388 331.078 182.592 310.256C179.433 306.092 179.557 300.342 182.717 296.179L287.347 158.3ZM248.739 2.07155C251.1 0.384415 253.991 -0.390415 256.879 -0.10951L421.287 15.8835C426.266 16.3678 430.422 19.8896 431.717 24.7213L462.321 138.939C464.118 145.646 465.559 152.364 466.642 159.09C466.658 159.186 466.673 159.281 466.688 159.377C468.139 168.421 459.045 175.272 450.595 171.736L287.919 103.654C282.879 101.545 277.05 103.106 273.74 107.453L166.242 248.614C160.847 255.699 149.937 254.601 146.913 246.225C146.753 245.78 146.594 245.334 146.438 244.889C144.191 238.488 142.16 231.929 140.346 225.212L109.741 110.994C108.447 106.163 110.285 101.035 114.354 98.1259L248.739 2.07155Z" fill="#FAFCF7" fill-opacity="0.2"/>
</svg>
