<svg width="24" height="24" viewBox="0 4 24 24" fill="none" xmlns="http://www.w3.org/2000/svg">
<path d="M5.61522 7.75736C5.81557 7.55701 6.05127 7.45708 6.32233 7.45755C6.59339 7.45802 6.82909 7.55796 7.02943 7.75736L12.6863 13.4142L18.3431 7.75736C18.5435 7.55701 18.7792 7.45708 19.0503 7.45755C19.3213 7.45802 19.557 7.55796 19.7574 7.75736C19.9577 7.95677 20.0576 8.19247 20.0572 8.46447C20.0567 8.73647 19.9568 8.97217 19.7574 9.17158L13.3934 15.5355C13.193 15.7359 12.9571 15.8361 12.6856 15.8361C12.4141 15.8361 12.1786 15.7359 11.9792 15.5355L5.61522 9.17158C5.41487 8.97123 5.3147 8.73529 5.3147 8.46376C5.3147 8.19223 5.41487 7.95677 5.61522 7.75736ZM5.61522 14.8284C5.81557 14.6281 6.05127 14.5281 6.32233 14.5286C6.59339 14.5291 6.82909 14.629 7.02943 14.8284L12.6863 20.4853L18.3431 14.8284C18.5435 14.6281 18.7792 14.5281 19.0503 14.5286C19.3213 14.5291 19.557 14.629 19.7574 14.8284C19.9577 15.0278 20.0576 15.2635 20.0572 15.5355C20.0567 15.8075 19.9568 16.0432 19.7574 16.2426L13.3934 22.6066C13.193 22.807 12.9571 22.9071 12.6856 22.9071C12.4141 22.9071 12.1786 22.807 11.9792 22.6066L5.61522 16.2426C5.41487 16.0423 5.3147 15.8064 5.3147 15.5348C5.3147 15.2633 5.41487 15.0278 5.61522 14.8284Z" fill="#E76715"/>
</svg>
