<svg width="116" height="17" viewBox="0 0 116 17" fill="none" xmlns="http://www.w3.org/2000/svg">
<g clip-path="url(#clip0_633_2567)">
<path d="M0.0402832 16.6765V0.303314H2.4488L10.5037 12.4695V0.303314H12.9122V16.6765H10.5037L2.4488 4.49893V16.6765H0.0402832Z" fill="#1A267C"/>
<path d="M27.0566 11.2074C27.1475 9.73681 26.9745 8.46713 26.539 7.39833C26.1035 6.32953 25.4471 5.50455 24.5685 4.92467C23.69 4.34479 22.6258 4.05548 21.3761 4.05548C20.1794 4.05548 19.1305 4.32458 18.2292 4.86277C17.3279 5.40096 16.6247 6.16277 16.1211 7.14819C15.6174 8.13361 15.3662 9.29716 15.3662 10.6389C15.3662 11.9047 15.6212 13.0178 16.1324 13.9754C16.6437 14.9355 17.3594 15.6809 18.2797 16.2153C19.2011 16.7497 20.2703 17.0176 21.4897 17.0176C22.6788 17.0176 23.7581 16.7156 24.7276 16.113C25.6971 15.5104 26.4204 14.6601 26.8975 13.561L24.5685 12.8219C24.2656 13.4511 23.8427 13.935 23.3024 14.271C22.7596 14.6083 22.1184 14.7776 21.3761 14.7776C20.2476 14.7776 19.3842 14.4075 18.7858 13.6684C18.291 13.0569 18.0007 12.237 17.9161 11.2074H27.0566ZM17.9691 9.35402C18.0941 8.49998 18.3668 7.81019 18.7858 7.28463C19.3842 6.53419 20.2779 6.15898 21.467 6.15898C22.5425 6.15898 23.3428 6.50008 23.8705 7.1823C24.2656 7.69522 24.5168 8.41913 24.6241 9.35402H17.9691Z" fill="#1A267C"/>
<path d="M35.4472 11.6508C36.1175 11.6508 36.6603 11.1076 36.6603 10.4367C36.6603 9.76587 36.1175 9.22263 35.4472 9.22263C34.7769 9.22263 34.2341 9.76587 34.2341 10.4367C34.2329 11.1076 34.7769 11.6508 35.4472 11.6508Z" stroke="#E76715" stroke-linecap="round"/>
<path d="M30.5923 14.0803C29.8033 13.0291 29.3766 11.7506 29.3792 10.4355C29.3792 7.08124 32.0957 4.36249 35.4471 4.36249C38.7986 4.36249 41.5151 7.08124 41.5151 10.4355C41.5151 11.8037 41.0632 13.0645 40.302 14.0803" stroke="#E76715" stroke-linecap="round"/>
<path d="M32.7344 13.0658C32.2673 12.544 31.9581 11.8934 31.8483 11.1947C31.7384 10.5024 31.8356 9.7924 32.1209 9.14809C32.4125 8.50378 32.8733 7.96432 33.4678 7.58152C34.0561 7.19873 34.7415 6.9928 35.4459 6.9928C36.1503 6.9928 36.8357 7.19873 37.4239 7.58152C38.0185 7.96432 38.4792 8.50504 38.7708 9.14809C39.0561 9.7924 39.1533 10.5024 39.0435 11.1947C38.9337 11.8934 38.6244 12.5427 38.1573 13.0658M35.4471 11.8517V14.8509V14.8875" stroke="#E76715" stroke-linecap="round"/>
<path d="M33.5217 16.0972V16.0982C33.5286 16.0892 33.5494 16.0619 33.5979 16.0123C33.6839 15.9243 33.8093 15.8101 34.0002 15.6373C34.0734 15.5747 34.1352 15.523 34.1965 15.4781C34.257 15.4386 34.337 15.4071 34.429 15.3931L34.4338 15.3922C34.4631 15.3874 34.5018 15.3863 34.6819 15.3863H36.2112C36.3901 15.3863 36.4288 15.3882 36.4602 15.3931L36.4719 15.3941L36.4836 15.3961C36.5456 15.4031 36.6157 15.428 36.6985 15.48C36.7591 15.5245 36.8206 15.5755 36.8928 15.6373C37.0834 15.8097 37.2092 15.9243 37.2952 16.0123C37.3411 16.0593 37.3622 16.0866 37.3704 16.0972C37.3734 16.1071 37.3742 16.1149 37.3694 16.1255C37.3628 16.1398 37.343 16.1659 37.2981 16.1861L37.2942 16.188C37.3147 16.1786 37.2935 16.1936 37.1448 16.2017C37.0074 16.2092 36.8201 16.2095 36.5442 16.2095H34.3489C34.0729 16.2095 33.8855 16.2092 33.7483 16.2017C33.6003 16.1937 33.5787 16.1793 33.5979 16.188L33.595 16.1861L33.5452 16.1539C33.534 16.143 33.528 16.1327 33.5247 16.1255C33.5198 16.115 33.5188 16.1071 33.5217 16.0972ZM33.5217 16.0972L33.5266 16.0845L33.5227 16.0933C33.5222 16.0946 33.5221 16.096 33.5217 16.0972Z" fill="#E76715" stroke="#E76715"/>
<path d="M43.5864 16.6765V0.303314H45.9609V14.4365H53.3682V16.6765H43.5864Z" fill="#1A267C"/>
<path d="M66.0472 4.39661V16.6765H63.9341V15.2021C63.5932 15.6355 63.1842 15.998 62.7071 16.2899C61.927 16.7674 60.984 17.0062 59.8782 17.0062C59.0299 17.0062 58.318 16.8698 57.7424 16.5969C57.1667 16.324 56.6984 15.9652 56.3387 15.5218C55.9789 15.0783 55.705 14.5957 55.5156 14.0727C55.3263 13.5497 55.1975 13.038 55.1293 12.5377C55.0612 12.0374 55.0271 11.5978 55.0271 11.2188V4.39661H57.4356V10.4342C57.4356 10.9118 57.4747 11.4032 57.5543 11.906C57.6338 12.4114 57.7853 12.8788 58.0087 13.3109C58.2321 13.7429 58.5465 14.0916 58.9517 14.3569C59.3569 14.6222 59.8858 14.7549 60.5371 14.7549C60.9613 14.7549 61.3627 14.6854 61.7414 14.5439C62.1201 14.4037 62.4508 14.1788 62.7348 13.868C63.0189 13.5572 63.2423 13.1479 63.4051 12.64C63.568 12.1322 63.65 11.5144 63.65 10.7867V4.39661H66.0472Z" fill="#1A267C"/>
<path d="M67.8193 16.6765L72.4091 10.4683L67.9216 4.39661H70.7391L73.7952 8.61497L76.8172 4.39661H79.6347L75.1471 10.4683L79.7483 16.6765H76.9194L73.7952 12.3217L70.6482 16.6765H67.8193Z" fill="#1A267C"/>
<path d="M87.4511 17.0176C86.2771 17.0176 85.2181 16.8142 84.2751 16.4086C83.3321 16.0031 82.5558 15.4232 81.9461 14.669C81.3364 13.9148 80.9413 13.019 80.7595 11.9793L83.2362 11.6041C83.4861 12.6047 84.0087 13.3829 84.804 13.9413C85.5993 14.4984 86.5271 14.7776 87.5874 14.7776C88.2464 14.7776 88.8523 14.674 89.4052 14.4643C89.9581 14.2559 90.4037 13.9565 90.7407 13.5661C91.0778 13.1757 91.2456 12.7083 91.2456 12.1625C91.2456 11.8669 91.1952 11.6053 91.0929 11.3779C90.9907 11.1505 90.8505 10.9509 90.6725 10.7804C90.4946 10.6098 90.2787 10.462 90.025 10.3369C89.7712 10.2119 89.4923 10.1045 89.1893 10.0122L84.9971 8.77289C84.5881 8.65161 84.1716 8.49369 83.7474 8.30039C83.3233 8.1071 82.9345 7.85316 82.5823 7.53859C82.2301 7.22401 81.9448 6.83363 81.7252 6.36745C81.5056 5.90127 81.3957 5.33529 81.3957 4.66697C81.3957 3.65881 81.6545 2.80478 82.1746 2.10361C82.6934 1.40245 83.3953 0.871834 84.2814 0.511776C85.1676 0.151718 86.1597 -0.0276794 87.258 -0.0276794C88.3638 -0.0125191 89.3547 0.184566 90.2295 0.563574C91.1043 0.942582 91.8314 1.48709 92.4108 2.19457C92.9902 2.90332 93.3891 3.7624 93.61 4.77057L91.0651 5.20263C90.9515 4.58864 90.7092 4.06056 90.338 3.61585C89.9669 3.17241 89.5125 2.83131 88.9747 2.59253C88.437 2.35376 87.8538 2.23121 87.2251 2.22237C86.6192 2.20721 86.0638 2.29817 85.5601 2.49525C85.0565 2.69234 84.6551 2.96901 84.3559 3.32528C84.0567 3.68155 83.9078 4.09088 83.9078 4.55327C83.9078 5.00808 84.0403 5.37571 84.3054 5.65618C84.5705 5.93665 84.8974 6.159 85.2875 6.32197C85.6775 6.48495 86.0663 6.62012 86.4526 6.72498L89.4746 7.57775C89.8533 7.68387 90.2825 7.82663 90.7647 8.00477C91.2456 8.1829 91.7114 8.43178 92.1621 8.75015C92.6127 9.06852 92.9864 9.49174 93.2818 10.0186C93.5772 10.5454 93.7248 11.2061 93.7248 12.002C93.7248 12.8283 93.5582 13.5547 93.225 14.1801C92.8917 14.8054 92.436 15.3285 91.8566 15.7492C91.2772 16.1699 90.6082 16.487 89.852 16.6992C89.0909 16.9115 88.2918 17.0176 87.4511 17.0176Z" fill="#1A267C"/>
<path d="M106.014 7.67122C105.968 7.22399 105.847 6.7995 105.65 6.39775C105.271 5.58667 104.675 4.99289 103.861 4.61768C103.047 4.24246 102.09 4.05548 100.992 4.05548C99.5757 4.05548 98.4421 4.36627 97.5901 4.98784C96.738 5.60941 96.1599 6.44702 95.8569 7.50067L98.0723 8.18288C98.2843 7.49308 98.6592 6.99911 99.197 6.69843C99.7347 6.39901 100.326 6.24994 100.969 6.24994C101.992 6.24994 102.714 6.4824 103.134 6.94858C103.5 7.35538 103.702 7.95168 103.736 8.73749C103.273 8.80319 102.807 8.86762 102.339 8.93332C101.578 9.03944 100.852 9.15314 100.164 9.27442C99.4734 9.39571 98.8562 9.53594 98.3121 9.69512C97.6822 9.89979 97.152 10.1664 96.7203 10.4961C96.2886 10.8258 95.9629 11.2263 95.7433 11.6963C95.5236 12.1663 95.4138 12.712 95.4138 13.3336C95.4138 14.0007 95.5716 14.6121 95.8859 15.1693C96.2002 15.7264 96.6635 16.1749 97.277 16.511C97.8918 16.8483 98.6517 17.0176 99.5605 17.0176C100.704 17.0176 101.669 16.7876 102.453 16.329C103.04 15.9867 103.548 15.5091 103.98 14.8951V16.6765H106.082V9.11524C106.082 8.59979 106.059 8.11845 106.014 7.67122ZM103.691 11.412C103.672 11.8668 103.597 12.2762 103.469 12.64C103.378 13.0418 103.185 13.4284 102.889 13.7998C102.594 14.1712 102.204 14.4757 101.72 14.7145C101.234 14.9532 100.655 15.0732 99.9809 15.0732C99.4734 15.0732 99.0569 14.9937 98.7325 14.8345C98.4055 14.6753 98.1644 14.4618 98.0041 14.1914C97.8451 13.9236 97.7655 13.6292 97.7655 13.3109C97.7655 12.9849 97.84 12.7082 97.9877 12.4808C98.1354 12.2534 98.3361 12.0601 98.5898 11.9009C98.8435 11.7418 99.1326 11.6053 99.4583 11.4916C99.8446 11.3703 100.286 11.2655 100.782 11.1783C101.279 11.0924 101.833 11.0027 102.446 10.9117C102.84 10.8536 103.263 10.7905 103.714 10.7222C103.71 10.9231 103.702 11.153 103.691 11.412Z" fill="#1A267C"/>
<path d="M112.364 6.30681V11.7304C112.364 12.2231 112.371 12.6514 112.382 13.0153C112.393 13.3791 112.47 13.6861 112.614 13.9362C112.887 14.4062 113.321 14.674 113.916 14.7372C114.51 14.8029 115.208 14.7776 116.011 14.6639V16.6765C115.239 16.8281 114.481 16.8925 113.739 16.8698C112.997 16.847 112.334 16.703 111.751 16.4377C111.168 16.1724 110.728 15.7555 110.433 15.187C110.168 14.6791 110.026 14.1611 110.007 13.6343C109.989 13.1087 109.978 12.5112 109.978 11.8441V6.30681H107.627V4.39661H109.978V0.985535H112.364V4.39661H116.011V6.30681H112.364Z" fill="#1A267C"/>
</g>
<defs>
<clipPath id="clip0_633_2567">
<rect width="116" height="17" fill="white"/>
</clipPath>
</defs>
</svg>
