<svg width="40" height="40" viewBox="0 0 40 40" fill="none" xmlns="http://www.w3.org/2000/svg">
<path d="M13.275 10.3368C12.9652 10.2915 12.6493 10.3538 12.38 10.5135H12.3567C11.7317 10.8802 11.1683 11.3418 10.6883 11.8852C10.2883 12.3468 10.0717 12.8135 10.015 13.2635C9.98166 13.5302 10.005 13.8002 10.0833 14.0552L10.1133 14.0718C10.5633 15.3935 11.15 16.6652 11.8667 17.8618C12.7912 19.5424 13.9283 21.0968 15.25 22.4868L15.29 22.5435L15.3533 22.5902L15.3917 22.6352L15.4383 22.6752C16.8333 24.0007 18.3914 25.1432 20.075 26.0752C22 27.1235 23.1683 27.6185 23.87 27.8252V27.8352C24.075 27.8985 24.2617 27.9268 24.45 27.9268C25.0479 27.8839 25.6139 27.6409 26.0567 27.2368C26.5983 26.7568 27.0567 26.1918 27.4133 25.5635V25.5518C27.7483 24.9185 27.635 24.3218 27.1517 23.9168C26.1816 23.0675 25.1317 22.314 24.0167 21.6668C23.27 21.2618 22.5117 21.5068 22.205 21.9168L21.55 22.7435C21.2133 23.1535 20.6033 23.0968 20.6033 23.0968L20.5867 23.1068C16.035 21.9452 14.82 17.3368 14.82 17.3368C14.82 17.3368 14.7633 16.7102 15.185 16.3902L16.005 15.7302C16.3983 15.4102 16.6717 14.6535 16.25 13.9068C15.6043 12.7925 14.8525 11.7432 14.005 10.7735C13.8196 10.5458 13.56 10.3906 13.2717 10.3352M20.9667 8.3335C20.7456 8.3335 20.5337 8.42129 20.3774 8.57757C20.2211 8.73385 20.1333 8.94582 20.1333 9.16683C20.1333 9.38784 20.2211 9.5998 20.3774 9.75608C20.5337 9.91237 20.7456 10.0002 20.9667 10.0002C23.0733 10.0002 24.8233 10.6885 26.2083 12.0085C26.92 12.7302 27.475 13.5852 27.8383 14.5218C28.2033 15.4602 28.37 16.4618 28.3267 17.4652C28.3174 17.6862 28.3963 17.9018 28.546 18.0647C28.6957 18.2275 28.904 18.3242 29.125 18.3335C29.346 18.3428 29.5617 18.2639 29.7245 18.1142C29.8873 17.9644 29.984 17.7562 29.9933 17.5352C30.0431 16.3011 29.8382 15.07 29.3917 13.9185C28.943 12.7611 28.2598 11.7091 27.385 10.8285L27.3683 10.8118C25.65 9.17016 23.4767 8.3335 20.9667 8.3335Z" fill="#FAFCF7"/>
<path d="M20.9083 11.0734C20.6873 11.0734 20.4753 11.1612 20.319 11.3175C20.1627 11.4738 20.075 11.6858 20.075 11.9068C20.075 12.1278 20.1627 12.3398 20.319 12.496C20.4753 12.6523 20.6873 12.7401 20.9083 12.7401H20.9366C22.4566 12.8484 23.5633 13.3551 24.3383 14.1868C25.1333 15.0434 25.545 16.1084 25.5133 17.4251C25.5082 17.6461 25.5911 17.8601 25.7438 18.02C25.8965 18.1799 26.1064 18.2725 26.3275 18.2776C26.5485 18.2827 26.7624 18.1998 26.9223 18.0471C27.0822 17.8944 27.1749 17.6845 27.18 17.4634C27.22 15.7351 26.6633 14.2434 25.56 13.0534V13.0501C24.4316 11.8401 22.8833 11.2001 21.02 11.0751L20.9916 11.0718L20.9083 11.0734Z" fill="#FAFCF7"/>
<path d="M20.8765 13.865C20.765 13.8552 20.6527 13.8679 20.5462 13.9025C20.4397 13.937 20.3412 13.9927 20.2567 14.0661C20.1722 14.1395 20.1034 14.2292 20.0543 14.3299C20.0052 14.4305 19.9769 14.54 19.9711 14.6518C19.9653 14.7636 19.982 14.8754 20.0204 14.9806C20.0587 15.0858 20.1179 15.1822 20.1943 15.264C20.2707 15.3458 20.3629 15.4114 20.4652 15.4568C20.5675 15.5022 20.6779 15.5266 20.7899 15.5284C21.4865 15.565 21.9315 15.775 22.2115 16.0567C22.4932 16.34 22.7032 16.795 22.7416 17.5067C22.7436 17.6185 22.7682 17.7288 22.8138 17.8309C22.8594 17.9331 22.9251 18.025 23.007 18.1012C23.0888 18.1774 23.1852 18.2363 23.2904 18.2745C23.3955 18.3127 23.5072 18.3293 23.6189 18.3234C23.7306 18.3174 23.84 18.2891 23.9405 18.24C24.041 18.1909 24.1306 18.1221 24.2039 18.0376C24.2773 17.9532 24.3329 17.8548 24.3674 17.7484C24.4019 17.6421 24.4147 17.5298 24.4049 17.4184C24.3515 16.4184 24.0382 15.535 23.3965 14.885C22.7515 14.235 21.8732 13.9184 20.8765 13.865Z" fill="#FAFCF7"/>
<path fill-rule="evenodd" clip-rule="evenodd" d="M11.7784 3.9731C17.0819 2.78761 22.5816 2.78761 27.8851 3.9731L28.4501 4.0981C30 4.44557 31.4234 5.21549 32.5625 6.32251C33.7016 7.42953 34.5119 8.83039 34.9034 10.3698C36.2509 15.6744 36.2509 21.2318 34.9034 26.5364C34.5119 28.0758 33.7016 29.4767 32.5625 30.5837C31.4234 31.6907 30 32.4606 28.4501 32.8081L27.8834 32.9331C24.5616 33.6749 21.1534 33.9547 17.7551 33.7648L13.3334 37.7214C13.1667 37.8707 12.963 37.9725 12.7436 38.0161C12.5241 38.0598 12.297 38.0438 12.0858 37.9697C11.8747 37.8956 11.6873 37.7662 11.5432 37.595C11.3992 37.4238 11.3037 37.2171 11.2668 36.9964L10.5351 32.6264C9.13245 32.1892 7.86522 31.3998 6.85426 30.3337C5.8433 29.2676 5.12232 27.9603 4.76009 26.5364C3.41265 21.2318 3.41265 15.6744 4.76009 10.3698C5.15166 8.83039 5.96191 7.42953 7.10099 6.32251C8.24008 5.21549 9.6635 4.44557 11.2134 4.0981L11.7784 3.9731ZM27.3401 6.41144C22.3956 5.30611 17.268 5.30611 12.3234 6.41144L11.7568 6.5381C10.6584 6.78508 9.64974 7.33121 8.84256 8.11603C8.03538 8.90085 7.46114 9.89374 7.18343 10.9848C5.93842 15.8858 5.93842 21.0204 7.18343 25.9214C7.46128 27.0127 8.03576 28.0057 8.84325 28.7906C9.65074 29.5754 10.6597 30.1214 11.7584 30.3681L11.9084 30.4014C12.1511 30.4557 12.372 30.5811 12.543 30.7616C12.7141 30.9421 12.8273 31.1695 12.8684 31.4148L13.3584 34.3448L16.4784 31.5531C16.603 31.4413 16.7488 31.3556 16.9071 31.3012C17.0655 31.2469 17.2331 31.2248 17.4001 31.2364C20.7319 31.4717 24.0801 31.2219 27.3401 30.4948L27.9051 30.3681C29.0038 30.1214 30.0128 29.5754 30.8203 28.7906C31.6278 28.0057 32.2022 27.0127 32.4801 25.9214C33.7234 21.0214 33.7234 15.8864 32.4801 10.9848C32.2022 9.89353 31.6278 8.90049 30.8203 8.11565C30.0128 7.33081 29.0038 6.7848 27.9051 6.5381L27.3401 6.41144Z" fill="#FAFCF7"/>
</svg>
