<svg width="60" height="60" viewBox="0 0 60 60" fill="none" xmlns="http://www.w3.org/2000/svg">
<path d="M6.81251 52.5C6.35418 52.5 5.93751 52.3858 5.56251 52.1575C5.18751 51.9292 4.89584 51.6267 4.68751 51.25C4.47918 50.8733 4.36501 50.4667 4.34501 50.03C4.32501 49.5933 4.43918 49.1667 4.68751 48.75L27.8125 8.75C28.0625 8.33333 28.3858 8.02083 28.7825 7.8125C29.1792 7.60417 29.585 7.5 30 7.5C30.415 7.5 30.8217 7.60417 31.22 7.8125C31.6183 8.02083 31.9408 8.33333 32.1875 8.75L55.3125 48.75C55.5625 49.1667 55.6775 49.5942 55.6575 50.0325C55.6375 50.4708 55.5225 50.8767 55.3125 51.25C55.1025 51.6233 54.8108 51.9258 54.4375 52.1575C54.0642 52.3892 53.6475 52.5033 53.1875 52.5H6.81251ZM30 45C30.7083 45 31.3025 44.76 31.7825 44.28C32.2625 43.8 32.5017 43.2067 32.5 42.5C32.4983 41.7933 32.2583 41.2 31.78 40.72C31.3017 40.24 30.7083 40 30 40C29.2917 40 28.6983 40.24 28.22 40.72C27.7417 41.2 27.5017 41.7933 27.5 42.5C27.4983 43.2067 27.7383 43.8008 28.22 44.2825C28.7017 44.7642 29.295 45.0033 30 45ZM30 37.5C30.7083 37.5 31.3025 37.26 31.7825 36.78C32.2625 36.3 32.5017 35.7067 32.5 35V27.5C32.5 26.7917 32.26 26.1983 31.78 25.72C31.3 25.2417 30.7067 25.0017 30 25C29.2933 24.9983 28.7 25.2383 28.22 25.72C27.74 26.2017 27.5 26.795 27.5 27.5V35C27.5 35.7083 27.74 36.3025 28.22 36.7825C28.7 37.2625 29.2933 37.5017 30 37.5Z" fill="#FAFCF7"/>
</svg>
