<svg width="40" height="40" viewBox="0 0 40 40" fill="none" xmlns="http://www.w3.org/2000/svg">
<path d="M4.54151 35C4.23595 35 3.95818 34.9239 3.70818 34.7717C3.45818 34.6194 3.26373 34.4178 3.12484 34.1667C2.98595 33.9156 2.90984 33.6444 2.89651 33.3533C2.88318 33.0622 2.95929 32.7778 3.12484 32.5L18.5415 5.83333C18.7082 5.55556 18.9237 5.34722 19.1882 5.20833C19.4526 5.06944 19.7232 5 19.9998 5C20.2765 5 20.5476 5.06944 20.8132 5.20833C21.0787 5.34722 21.2937 5.55556 21.4582 5.83333L36.8748 32.5C37.0415 32.7778 37.1182 33.0628 37.1048 33.355C37.0915 33.6472 37.0148 33.9178 36.8748 34.1667C36.7348 34.4156 36.5404 34.6172 36.2915 34.7717C36.0426 34.9261 35.7648 35.0022 35.4582 35H4.54151ZM19.9998 30C20.4721 30 20.8682 29.84 21.1882 29.52C21.5082 29.2 21.6676 28.8044 21.6665 28.3333C21.6654 27.8622 21.5054 27.4667 21.1865 27.1467C20.8676 26.8267 20.4721 26.6667 19.9998 26.6667C19.5276 26.6667 19.1321 26.8267 18.8132 27.1467C18.4943 27.4667 18.3343 27.8622 18.3332 28.3333C18.3321 28.8044 18.4921 29.2006 18.8132 29.5217C19.1343 29.8428 19.5298 30.0022 19.9998 30ZM19.9998 25C20.4721 25 20.8682 24.84 21.1882 24.52C21.5082 24.2 21.6676 23.8044 21.6665 23.3333V18.3333C21.6665 17.8611 21.5065 17.4656 21.1865 17.1467C20.8665 16.8278 20.471 16.6678 19.9998 16.6667C19.5287 16.6656 19.1332 16.8256 18.8132 17.1467C18.4932 17.4678 18.3332 17.8633 18.3332 18.3333V23.3333C18.3332 23.8056 18.4932 24.2017 18.8132 24.5217C19.1332 24.8417 19.5287 25.0011 19.9998 25Z" fill="#EC221F"/>
</svg>
