<svg width="24" height="24" viewBox="0 0 24 24" xmlns="http://www.w3.org/2000/svg">
<path d="M14 20C13.7167 20 13.4793 19.904 13.288 19.712C13.0967 19.52 13.0007 19.2827 13 19V11H5C4.71667 11 4.47934 10.904 4.288 10.712C4.09667 10.52 4.00067 10.2827 4 10C3.99934 9.71733 4.09534 9.48 4.288 9.288C4.48067 9.096 4.718 9 5 9H14C14.2833 9 14.521 9.096 14.713 9.288C14.905 9.48 15.0007 9.71733 15 10V19C15 19.2833 14.904 19.521 14.712 19.713C14.52 19.905 14.2827 20.0007 14 20ZM19 15C18.7167 15 18.4793 14.904 18.288 14.712C18.0967 14.52 18.0007 14.2827 18 14V6H10C9.71667 6 9.47934 5.904 9.288 5.712C9.09667 5.52 9.00067 5.28267 9 5C8.99934 4.71733 9.09534 4.48 9.288 4.288C9.48067 4.096 9.718 4 10 4H19C19.2833 4 19.521 4.096 19.713 4.288C19.905 4.48 20.0007 4.71733 20 5V14C20 14.2833 19.904 14.521 19.712 14.713C19.52 14.905 19.2827 15.0007 19 15Z"/>
</svg>
