<svg width="60" height="60" viewBox="0 0 60 60" fill="none" xmlns="http://www.w3.org/2000/svg">
<rect width="60" height="60" rx="30" fill="#FAFCF7"/>
<path d="M29.6936 26.1545C29.874 26.0145 30.1262 26.0145 30.3066 26.1545L41.7945 35.0675C41.9666 35.201 42.033 35.4308 41.9543 35.6338C41.1558 37.6923 40.0394 39.5577 38.6051 41.23C37.2757 42.7799 35.7582 44.0452 34.0525 45.0258C33.7283 45.2122 33.3334 44.9721 33.3334 44.5982V35.5417C33.3334 35.2655 33.1096 35.0417 32.8334 35.0417H27.1667C26.8906 35.0417 26.6667 35.2655 26.6667 35.5417V44.5976C26.6667 44.9717 26.2716 45.2117 25.9474 45.0251C24.2428 44.0438 22.7259 42.7787 21.3967 41.23C19.9624 39.5587 18.8455 37.6934 18.046 35.6338C17.9672 35.4308 18.0336 35.201 18.2057 35.0675L29.6936 26.1545ZM29.8245 13.4408C29.9377 13.3984 30.0625 13.3984 30.1756 13.4408L43.009 18.2533C43.2041 18.3265 43.3334 18.5131 43.3334 18.7215V28.5C43.3334 29.0556 43.3056 29.6044 43.2501 30.1467C43.2229 30.4124 43.1923 30.6795 43.1584 30.9481C43.1106 31.3268 42.67 31.5042 42.368 31.2708L30.3059 21.9448C30.1258 21.8055 29.8744 21.8055 29.6942 21.9448L17.5964 31.2984C17.3028 31.5254 16.8746 31.3643 16.8226 30.9969C16.7823 30.7115 16.7515 30.4281 16.7301 30.1467C16.689 29.6056 16.6679 29.0567 16.6667 28.5V18.7215C16.6667 18.5131 16.796 18.3265 16.9912 18.2533L29.8245 13.4408Z" fill="#E76715"/>
</svg>
