<svg width="60" height="60" viewBox="0 0 60 60" fill="none" xmlns="http://www.w3.org/2000/svg">
<rect width="60" height="60" rx="30" fill="#FAFCF7"/>
<path d="M30.0001 45C28.8334 45 27.8473 44.5972 27.0417 43.7916C26.2362 42.9861 25.8334 42 25.8334 40.8333C25.8334 39.6666 26.2362 38.6805 27.0417 37.875C27.8473 37.0694 28.8334 36.6666 30.0001 36.6666C31.1667 36.6666 32.1529 37.0694 32.9584 37.875C33.764 38.6805 34.1667 39.6666 34.1667 40.8333C34.1667 42 33.764 42.9861 32.9584 43.7916C32.1529 44.5972 31.1667 45 30.0001 45ZM30.0001 26.6666C32.0834 26.6666 34.0629 27 35.9384 27.6666C37.814 28.3333 39.5151 29.25 41.0417 30.4166C41.5973 30.8333 41.8823 31.3822 41.8967 32.0633C41.9112 32.7444 41.6679 33.3344 41.1667 33.8333C40.6945 34.3055 40.1112 34.5488 39.4167 34.5633C38.7223 34.5777 38.0973 34.39 37.5417 34C36.4862 33.2777 35.3195 32.7083 34.0417 32.2916C32.764 31.875 31.4167 31.6666 30.0001 31.6666C28.5834 31.6666 27.2362 31.875 25.9584 32.2916C24.6806 32.7083 23.514 33.2777 22.4584 34C21.9029 34.3888 21.2779 34.5694 20.5834 34.5416C19.889 34.5138 19.3056 34.2638 18.8334 33.7916C18.3612 33.2916 18.1251 32.7016 18.1251 32.0216C18.1251 31.3416 18.4029 30.7927 18.9584 30.375C20.4862 29.2083 22.1879 28.2983 24.0634 27.645C25.939 26.9916 27.9179 26.6655 30.0001 26.6666ZM30.0001 16.6666C33.4723 16.6666 36.7434 17.2361 39.8134 18.375C42.8834 19.5138 45.6401 21.125 48.0834 23.2083C48.639 23.6805 48.9306 24.2638 48.9584 24.9583C48.9862 25.6527 48.7501 26.25 48.2501 26.75C47.7779 27.2222 47.1945 27.4655 46.5001 27.48C45.8056 27.4944 45.1806 27.2788 44.6251 26.8333C42.6251 25.1944 40.3823 23.9238 37.8967 23.0216C35.4112 22.1194 32.779 21.6677 30.0001 21.6666C27.2212 21.6655 24.5895 22.1172 22.1051 23.0216C19.6206 23.9261 17.3773 25.1966 15.3751 26.8333C14.8195 27.2777 14.1945 27.4933 13.5001 27.48C12.8056 27.4666 12.2223 27.2233 11.7501 26.75C11.2501 26.25 11.014 25.6527 11.0417 24.9583C11.0695 24.2638 11.3612 23.6805 11.9167 23.2083C14.3612 21.125 17.1184 19.5138 20.1884 18.375C23.2584 17.2361 26.529 16.6666 30.0001 16.6666Z" fill="#E76715"/>
</svg>
