<svg width="60" height="60" viewBox="0 0 60 60" fill="none" xmlns="http://www.w3.org/2000/svg">
<rect width="60" height="60" rx="30" fill="#FAFCF7"/>
<path d="M28.4166 34.1667L35.3333 29.75C35.8333 29.4167 36.0833 28.9444 36.0833 28.3333C36.0833 27.7222 35.8333 27.25 35.3333 26.9167L28.4166 22.5C27.861 22.1389 27.2916 22.1111 26.7083 22.4167C26.1249 22.7222 25.8333 23.2083 25.8333 23.875V32.7917C25.8333 33.4583 26.1249 33.9444 26.7083 34.25C27.2916 34.5556 27.861 34.5278 28.4166 34.1667ZM16.6666 41.6667C15.7499 41.6667 14.9655 41.3406 14.3133 40.6883C13.661 40.0361 13.3344 39.2511 13.3333 38.3333V18.3333C13.3333 17.4167 13.6599 16.6322 14.3133 15.98C14.9666 15.3278 15.751 15.0011 16.6666 15H43.3333C44.2499 15 45.0349 15.3267 45.6883 15.98C46.3416 16.6333 46.6677 17.4178 46.6666 18.3333V38.3333C46.6666 39.25 46.3405 40.035 45.6883 40.6883C45.036 41.3417 44.251 41.6678 43.3333 41.6667H36.6666V43.3333C36.6666 43.8056 36.5066 44.2017 36.1866 44.5217C35.8666 44.8417 35.471 45.0011 34.9999 45H24.9999C24.5277 45 24.1321 44.84 23.8133 44.52C23.4944 44.2 23.3344 43.8044 23.3333 43.3333V41.6667H16.6666Z" fill="#E76715"/>
</svg>
