<svg width="60" height="60" viewBox="0 0 60 60" fill="none" xmlns="http://www.w3.org/2000/svg">
<rect width="60" height="60" rx="30" fill="#FAFCF7"/>
<path d="M23.4583 43.3333C23.1528 43.3333 22.8683 43.2572 22.605 43.105C22.3417 42.9527 22.14 42.7372 22 42.4583L18.75 36.6666H21.1667L22.375 39.0833C22.5139 39.3889 22.7222 39.6183 23 39.7716C23.2778 39.925 23.5694 40.0011 23.875 40H25.8333C26.0556 40 26.25 39.9166 26.4167 39.75C26.5833 39.5833 26.6667 39.3889 26.6667 39.1666C26.6667 38.9444 26.5833 38.75 26.4167 38.5833C26.25 38.4166 26.0556 38.3333 25.8333 38.3333H23.8333L22.625 35.9166C22.4861 35.6111 22.2778 35.3816 22 35.2283C21.7222 35.075 21.4306 34.9989 21.125 35H17.8333L15.4583 30.8333C15.4028 30.6944 15.3544 30.5555 15.3133 30.4166C15.2722 30.2777 15.2511 30.1389 15.25 30C15.25 29.8889 15.3194 29.6111 15.4583 29.1666L17.8333 25H21.125C21.4306 25 21.7222 24.9239 22 24.7716C22.2778 24.6194 22.4861 24.39 22.625 24.0833L23.8333 21.6666H25.8333C26.0556 21.6666 26.25 21.5833 26.4167 21.4166C26.5833 21.25 26.6667 21.0555 26.6667 20.8333C26.6667 20.6111 26.5833 20.4166 26.4167 20.25C26.25 20.0833 26.0556 20 25.8333 20H23.875C23.5694 20 23.2778 20.0766 23 20.23C22.7222 20.3833 22.5139 20.6122 22.375 20.9166L21.1667 23.3333H18.75L22 17.5416C22.1389 17.2639 22.3406 17.0489 22.605 16.8966C22.8694 16.7444 23.1539 16.6677 23.4583 16.6666H27.5C27.9722 16.6666 28.3683 16.8266 28.6883 17.1466C29.0083 17.4666 29.1678 17.8622 29.1667 18.3333V25H26.6667C26.4444 25 26.25 25.0833 26.0833 25.25C25.9167 25.4166 25.8333 25.6111 25.8333 25.8333C25.8333 26.0555 25.9167 26.25 26.0833 26.4166C26.25 26.5833 26.4444 26.6666 26.6667 26.6666H29.1667V31.6666H25.5L24.2917 29.25C24.1528 28.9444 23.9444 28.715 23.6667 28.5616C23.3889 28.4083 23.0972 28.3322 22.7917 28.3333H20C19.7778 28.3333 19.5833 28.4166 19.4167 28.5833C19.25 28.75 19.1667 28.9444 19.1667 29.1666C19.1667 29.3889 19.25 29.5833 19.4167 29.75C19.5833 29.9166 19.7778 30 20 30H22.8333L24.0417 32.4166C24.1806 32.7222 24.3889 32.9516 24.6667 33.105C24.9444 33.2583 25.2361 33.3344 25.5417 33.3333H29.1667V41.6666C29.1667 42.1389 29.0072 42.535 28.6883 42.855C28.3694 43.175 27.9733 43.3344 27.5 43.3333H23.4583ZM33.3333 43.3333C32.4167 43.3333 31.6322 43.0072 30.98 42.355C30.3278 41.7027 30.0011 40.9177 30 40C30 39.3611 30.1528 38.7989 30.4583 38.3133C30.7639 37.8277 31.1667 37.4316 31.6667 37.125V22.875C31.1667 22.5694 30.7639 22.1739 30.4583 21.6883C30.1528 21.2027 30 20.64 30 20C30 19.0833 30.3267 18.2989 30.98 17.6466C31.6333 16.9944 32.4178 16.6677 33.3333 16.6666C34.2489 16.6655 35.0339 16.9922 35.6883 17.6466C36.3428 18.3011 36.6689 19.0855 36.6667 20C36.6667 20.6389 36.5139 21.2016 36.2083 21.6883C35.9028 22.175 35.5 22.5705 35 22.875V27.0833L38.3333 25.0833C38.3333 24.1389 38.66 23.3333 39.3133 22.6666C39.9667 22 40.7511 21.6666 41.6667 21.6666C42.5822 21.6666 43.3672 21.9933 44.0217 22.6466C44.6761 23.3 45.0022 24.0844 45 25C44.9978 25.9155 44.6717 26.7005 44.0217 27.355C43.3717 28.0094 42.5867 28.3355 41.6667 28.3333C41.3611 28.3333 41.0761 28.2989 40.8117 28.23C40.5472 28.1611 40.2906 28.0566 40.0417 27.9166L36.25 30.2083L40.4583 33.5416C40.6528 33.4583 40.8472 33.4027 41.0417 33.375C41.2361 33.3472 41.4444 33.3333 41.6667 33.3333C42.5833 33.3333 43.3683 33.66 44.0217 34.3133C44.675 34.9666 45.0011 35.7511 45 36.6666C44.9989 37.5822 44.6728 38.3672 44.0217 39.0216C43.3706 39.6761 42.5856 40.0022 41.6667 40C40.6389 40 39.7983 39.6111 39.145 38.8333C38.4917 38.0555 38.235 37.1666 38.375 36.1666L35 33.4583V37.1666C35.5 37.4722 35.8961 37.8683 36.1883 38.355C36.4806 38.8416 36.6261 39.39 36.625 40C36.625 40.9166 36.3056 41.7016 35.6667 42.355C35.0278 43.0083 34.25 43.3344 33.3333 43.3333Z" fill="#E76715"/>
</svg>
