<svg viewBox="0 0 1320 193" fill="none" xmlns="http://www.w3.org/2000/svg">
<g clip-path="url(#clip0_758_2464)">
<path d="M0.45752 189.327V3.44336H27.8647L119.524 141.565V3.44336H146.931V189.327H119.524L27.8647 51.076V189.327H0.45752Z" fill="#FAFCF7"/>
<path d="M307.884 127.237C308.918 110.542 306.95 96.1272 301.994 83.9932C297.039 71.8591 289.569 62.4932 279.571 55.9099C269.574 49.3265 257.465 46.042 243.244 46.042C229.627 46.042 217.69 49.097 207.434 55.2071C197.177 61.3171 189.177 69.9659 183.445 81.1533C177.714 92.3407 174.855 105.551 174.855 120.783C174.855 135.154 177.757 147.79 183.574 158.662C189.392 169.563 197.537 178.025 208.008 184.092C218.494 190.159 230.661 193.2 244.537 193.2C258.068 193.2 270.35 189.772 281.381 182.93C292.413 176.089 300.644 166.436 306.074 153.958L279.571 145.567C276.124 152.71 271.312 158.203 265.164 162.018C258.987 165.848 251.69 167.77 243.244 167.77C230.402 167.77 220.577 163.567 213.768 155.177C208.137 148.235 204.834 138.926 203.871 127.237H307.884ZM204.475 106.196C205.897 96.5002 208.999 88.669 213.768 82.7023C220.577 74.1827 230.747 69.9228 244.278 69.9228C256.517 69.9228 265.624 73.7954 271.628 81.5406C276.124 87.3638 278.983 95.5822 280.203 106.196H204.475Z" fill="#FAFCF7"/>
<path d="M403.364 132.271C410.991 132.271 417.168 126.104 417.168 118.488C417.168 110.872 410.991 104.704 403.364 104.704C395.736 104.704 389.559 110.872 389.559 118.488C389.545 126.104 395.736 132.271 403.364 132.271Z" stroke="#E76715" stroke-width="10" stroke-linecap="round"/>
<path d="M348.118 159.853C339.14 147.919 334.285 133.404 334.314 118.473C334.314 80.3932 365.226 49.5273 403.364 49.5273C441.501 49.5273 472.413 80.3932 472.413 118.473C472.413 134.007 467.271 148.321 458.609 159.853" stroke="#E76715" stroke-width="10" stroke-linecap="round"/>
<path d="M372.494 148.335C367.18 142.411 363.66 135.025 362.411 127.093C361.161 119.233 362.267 111.172 365.513 103.858C368.832 96.5427 374.075 90.4183 380.84 86.0724C387.534 81.7266 395.334 79.3887 403.349 79.3887C411.364 79.3887 419.164 81.7266 425.858 86.0724C432.624 90.4183 437.867 96.5571 441.185 103.858C444.431 111.172 445.537 119.233 444.288 127.093C443.038 135.025 439.519 142.397 434.204 148.335M403.364 134.551V168.601V169.017" stroke="#E76715" stroke-width="10" stroke-linecap="round"/>
<path d="M426.763 188.94C425.111 189.701 421.994 189.701 415.846 189.701H390.867C384.719 189.701 381.616 189.701 379.95 188.94C376.56 187.42 374.908 183.906 376.158 180.665C376.703 179.073 378.844 177.151 383.196 173.221C384.087 172.461 384.992 171.7 385.954 171.012C387.405 170.051 389.129 169.42 390.924 169.147C391.815 169.004 392.792 169.004 394.659 169.004H412.054C413.921 169.004 414.884 169.004 415.789 169.147C417.584 169.348 419.236 170.037 420.759 171.012C421.721 171.7 422.626 172.461 423.517 173.221C427.869 177.151 430.01 179.087 430.555 180.665C431.805 183.906 430.153 187.42 426.763 188.94Z" fill="#E76715"/>
<path d="M495.985 189.327V3.44336H523.004V163.897H607.294V189.327H495.985Z" fill="#FAFCF7"/>
<path d="M751.57 49.9141V189.327H727.524V172.589C723.646 177.508 718.992 181.625 713.562 184.938C704.685 190.359 693.955 193.07 681.371 193.07C671.719 193.07 663.617 191.521 657.067 188.423C650.517 185.325 645.188 181.252 641.094 176.217C637 171.183 633.883 165.704 631.728 159.766C629.574 153.828 628.108 148.019 627.333 142.339C626.557 136.66 626.169 131.668 626.169 127.365V49.9141H653.576V118.459C653.576 123.88 654.022 129.46 654.927 135.168C655.832 140.905 657.555 146.212 660.098 151.117C662.64 156.023 666.217 159.981 670.828 162.993C675.439 166.005 681.458 167.511 688.87 167.511C693.696 167.511 698.264 166.722 702.573 165.116C706.883 163.524 710.646 160.971 713.878 157.442C717.11 153.914 719.652 149.267 721.505 143.501C723.358 137.735 724.292 130.722 724.292 122.46V49.9141H751.57Z" fill="#FAFCF7"/>
<path d="M771.738 189.327L823.966 118.846L772.901 49.9141H804.962L839.739 97.8049L874.127 49.9141H906.188L855.123 118.846L907.481 189.327H875.29L839.739 139.887L803.928 189.327H771.738Z" fill="#FAFCF7"/>
<path d="M995.132 193.199C981.773 193.199 969.722 190.89 958.992 186.286C948.261 181.682 939.427 175.099 932.489 166.536C925.551 157.973 921.055 147.804 918.987 136L947.17 131.74C950.014 143.1 955.961 151.935 965.01 158.275C974.06 164.6 984.618 167.77 996.684 167.77C1004.18 167.77 1011.08 166.593 1017.37 164.212C1023.66 161.846 1028.73 158.447 1032.57 154.015C1036.4 149.583 1038.31 144.276 1038.31 138.08C1038.31 134.724 1037.74 131.755 1036.57 129.173C1035.41 126.591 1033.82 124.325 1031.79 122.389C1029.76 120.452 1027.31 118.774 1024.42 117.354C1021.53 115.934 1018.36 114.715 1014.91 113.668L967.208 99.5979C962.554 98.221 957.814 96.4281 952.987 94.2337C948.161 92.0392 943.736 89.1563 939.729 85.5849C935.721 82.0135 932.475 77.5816 929.975 72.2891C927.476 66.9966 926.226 60.571 926.226 52.9836C926.226 41.538 929.171 31.8422 935.089 23.882C940.993 15.9217 948.98 9.89767 959.063 5.80995C969.147 1.72224 980.438 -0.314453 992.935 -0.314453C1005.52 -0.142339 1016.79 2.09516 1026.75 6.39802C1036.7 10.7009 1044.98 16.8827 1051.57 24.9146C1058.16 32.961 1062.7 42.7141 1065.22 54.1597L1036.26 59.065C1034.96 52.0944 1032.21 46.0991 1027.98 41.0504C1023.76 36.016 1018.59 32.1434 1012.47 29.4326C1006.35 26.7218 999.714 25.3306 992.561 25.2302C985.666 25.0581 979.346 26.0907 973.614 28.3282C967.883 30.5657 963.315 33.7068 959.911 37.7515C956.506 41.7962 954.811 46.4433 954.811 51.6928C954.811 56.8562 956.32 61.03 959.336 64.2141C962.353 67.3982 966.073 69.9225 970.512 71.7728C974.95 73.623 979.375 75.1577 983.77 76.3481L1018.16 86.0295C1022.47 87.2343 1027.35 88.8551 1032.84 90.8774C1038.31 92.8998 1043.61 95.7253 1048.74 99.3397C1053.87 102.954 1058.12 107.759 1061.48 113.74C1064.84 119.721 1066.52 127.222 1066.52 136.258C1066.52 145.638 1064.63 153.886 1060.83 160.985C1057.04 168.085 1051.86 174.023 1045.26 178.799C1038.67 183.575 1031.06 187.175 1022.45 189.585C1013.79 191.995 1004.7 193.199 995.132 193.199Z" fill="#FAFCF7"/>
<path d="M1206.36 87.0912C1205.84 82.0139 1204.46 77.1947 1202.22 72.6336C1197.91 63.4255 1191.13 56.6844 1181.87 52.4246C1172.6 48.1647 1161.72 46.042 1149.22 46.042C1133.1 46.042 1120.2 49.5703 1110.51 56.627C1100.81 63.6837 1094.23 73.193 1090.78 85.155L1115.99 92.9001C1118.41 85.0689 1122.67 79.4608 1128.79 76.0472C1134.91 72.648 1141.63 70.9555 1148.96 70.9555C1160.6 70.9555 1168.81 73.5946 1173.6 78.8871C1177.76 83.5055 1180.06 90.2754 1180.45 99.1966C1175.18 99.9424 1169.87 100.674 1164.55 101.42C1155.88 102.625 1147.62 103.915 1139.8 105.292C1131.94 106.669 1124.91 108.261 1118.72 110.069C1111.56 112.392 1105.52 115.418 1100.61 119.162C1095.7 122.905 1091.99 127.452 1089.49 132.788C1086.99 138.123 1085.74 144.319 1085.74 151.376C1085.74 158.949 1087.54 165.891 1091.11 172.216C1094.69 178.541 1099.96 183.633 1106.94 187.448C1113.94 191.278 1122.59 193.2 1132.93 193.2C1145.94 193.2 1156.92 190.589 1165.84 185.383C1172.52 181.496 1178.31 176.074 1183.22 169.104V189.327H1207.14V103.485C1207.14 97.6333 1206.88 92.1686 1206.36 87.0912ZM1179.93 129.56C1179.71 134.724 1178.87 139.371 1177.4 143.502C1176.37 148.063 1174.17 152.452 1170.81 156.668C1167.45 160.885 1163.01 164.342 1157.51 167.053C1151.98 169.763 1145.38 171.126 1137.71 171.126C1131.94 171.126 1127.2 170.222 1123.51 168.415C1119.79 166.608 1117.04 164.184 1115.22 161.115C1113.41 158.074 1112.5 154.732 1112.5 151.118C1112.5 147.417 1113.35 144.276 1115.03 141.694C1116.71 139.113 1119 136.918 1121.88 135.111C1124.77 133.304 1128.06 131.755 1131.77 130.464C1136.16 129.087 1141.19 127.897 1146.83 126.907C1152.48 125.932 1158.79 124.913 1165.77 123.881C1170.25 123.221 1175.06 122.504 1180.19 121.729C1180.15 124.01 1180.06 126.62 1179.93 129.56Z" fill="#FAFCF7"/>
<path d="M1278.63 71.6006V133.174C1278.63 138.768 1278.7 143.63 1278.83 147.761C1278.96 151.892 1279.83 155.377 1281.47 158.217C1284.57 163.553 1289.52 166.593 1296.28 167.31C1303.05 168.056 1310.99 167.769 1320.13 166.479V189.327C1311.33 191.048 1302.72 191.779 1294.27 191.521C1285.82 191.263 1278.28 189.628 1271.65 186.616C1265.01 183.604 1260.01 178.871 1256.65 172.417C1253.63 166.651 1252.02 160.77 1251.81 154.789C1251.59 148.823 1251.48 142.038 1251.48 134.465V71.6006H1224.72V49.9142H1251.48V11.1885H1278.63V49.9142H1320.13V71.6006H1278.63Z" fill="#FAFCF7"/>
</g>
<defs>
<clipPath id="clip0_758_2464">
<rect width="100%" height="100%" fill="white"/>
</clipPath>
</defs>
</svg>
