<svg viewBox="0 0 1320 194" fill="none" xmlns="http://www.w3.org/2000/svg">
<g clip-path="url(#clip0_2322_4515)">
<path fill-rule="evenodd" clip-rule="evenodd" d="M1182.86 169.287C1177.96 176.254 1172.15 181.702 1165.46 185.631C1156.61 190.791 1145.69 193.371 1132.72 193.371C1122.41 193.371 1113.77 191.479 1106.81 187.695C1099.85 183.825 1094.56 178.751 1090.95 172.473C1087.44 166.109 1085.67 159.143 1085.67 151.575C1085.67 144.523 1086.92 138.331 1089.4 132.999C1091.9 127.667 1095.6 123.152 1100.5 119.454C1105.39 115.67 1111.41 112.617 1118.54 110.295C1124.73 108.489 1131.73 106.898 1139.55 105.522C1147.37 104.146 1155.57 102.856 1164.17 101.652C1169.51 100.911 1174.82 100.17 1180.1 99.4285C1179.7 90.5255 1177.39 83.7845 1173.19 79.2055C1168.46 73.8735 1160.3 71.2075 1148.7 71.2075C1141.4 71.2075 1134.7 72.9275 1128.59 76.3675C1122.49 79.7215 1118.24 85.3115 1115.83 93.1375L1090.69 85.3975C1094.13 73.4435 1100.67 63.9405 1110.29 56.8885C1120 49.8365 1132.89 46.3105 1148.96 46.3105C1161.42 46.3105 1172.25 48.4605 1181.44 52.7605C1190.73 56.9745 1197.51 63.6825 1201.81 72.8845C1204.05 77.4425 1205.42 82.2585 1205.94 87.3325C1206.46 92.4065 1206.71 97.8675 1206.71 103.716V189.501H1182.86V169.287ZM1179.82 121.951C1174.72 122.72 1169.93 123.435 1165.46 124.098C1158.5 125.13 1152.19 126.162 1146.51 127.194C1140.93 128.14 1135.94 129.301 1131.56 130.677C1127.87 131.967 1124.56 133.515 1121.63 135.321C1118.8 137.127 1116.52 139.32 1114.81 141.9C1113.17 144.48 1112.36 147.619 1112.36 151.317C1112.36 154.929 1113.26 158.283 1115.06 161.379C1116.86 164.389 1119.61 166.797 1123.31 168.603C1127.01 170.409 1131.73 171.312 1137.49 171.312C1145.13 171.312 1151.71 169.979 1157.21 167.313C1162.71 164.561 1167.14 161.078 1170.48 156.864C1173.84 152.65 1176.03 148.264 1177.06 143.706C1178.53 139.578 1179.34 134.934 1179.51 129.774C1179.65 126.83 1179.76 124.223 1179.82 121.951Z" fill="#FAFCF7"/>
<path fill-rule="evenodd" clip-rule="evenodd" d="M1251.39 71.8534H1224.71V50.1814H1251.39V11.4814H1278.46V50.1814H1319.84V71.8534H1278.46V133.386C1278.46 138.976 1278.51 143.835 1278.59 147.963C1278.77 152.091 1279.67 155.574 1281.3 158.412C1284.4 163.744 1289.29 166.797 1296 167.571C1302.78 168.259 1310.74 167.958 1319.84 166.668V189.501C1311.08 191.221 1302.48 191.952 1294.06 191.694C1285.65 191.436 1278.12 189.802 1271.51 186.792C1264.89 183.782 1259.91 179.052 1256.55 172.602C1253.54 166.84 1251.91 160.992 1251.65 155.058C1251.48 149.038 1251.39 142.244 1251.39 134.676V71.8534Z" fill="#FAFCF7"/>
<path fill-rule="evenodd" clip-rule="evenodd" d="M994.779 193.371C981.459 193.371 969.429 191.092 958.687 186.534C948.031 181.89 939.222 175.311 932.262 166.797C925.387 158.197 920.918 148.006 918.856 136.224L946.957 131.967C949.792 143.319 955.722 152.177 964.745 158.541C973.768 164.819 984.295 167.958 996.326 167.958C1003.8 167.958 1010.67 166.797 1016.95 164.475C1023.22 162.067 1028.25 158.67 1032.03 154.284C1035.9 149.812 1037.83 144.48 1037.83 138.288C1037.83 134.934 1037.23 131.967 1036.03 129.387C1034.92 126.807 1033.32 124.571 1031.26 122.679C1029.28 120.701 1026.83 119.024 1023.91 117.648C1021.08 116.186 1017.94 114.939 1014.5 113.907L966.936 99.846C962.296 98.47 957.57 96.707 952.757 94.557C947.945 92.321 943.519 89.44 939.48 85.914C935.527 82.302 932.305 77.873 929.813 72.627C927.321 67.295 926.074 60.845 926.074 53.277C926.074 41.839 928.996 32.164 934.84 24.252C940.769 16.254 948.761 10.234 958.816 6.192C968.87 2.064 980.128 0 992.588 0C1005.14 0.172 1016.35 2.408 1026.23 6.708C1036.21 11.008 1044.45 17.2 1050.98 25.284C1057.6 33.282 1062.16 43 1064.64 54.438L1035.78 59.34C1034.49 52.374 1031.73 46.397 1027.52 41.409C1023.31 36.335 1018.16 32.465 1012.05 29.799C1005.95 27.047 999.333 25.628 992.201 25.542C985.327 25.37 979.01 26.402 973.253 28.638C967.581 30.874 963.026 34.013 959.589 38.055C956.238 42.097 954.562 46.741 954.562 51.987C954.562 57.147 956.066 61.318 959.073 64.5C962.081 67.682 965.776 70.219 970.159 72.111C974.628 73.917 979.053 75.422 983.436 76.626L1017.73 86.301C1022.03 87.505 1026.87 89.139 1032.29 91.203C1037.79 93.181 1043.08 95.976 1048.15 99.588C1053.3 103.2 1057.56 108.016 1060.91 114.036C1064.25 119.97 1065.93 127.452 1065.93 136.482C1065.93 145.856 1064.04 154.112 1060.27 161.25C1056.48 168.302 1051.28 174.236 1044.67 179.052C1038.13 183.782 1030.57 187.351 1021.98 189.759C1013.38 192.167 1004.32 193.371 994.779 193.371Z" fill="#FAFCF7"/>
<path fill-rule="evenodd" clip-rule="evenodd" d="M771.541 189.501L823.617 119.067L772.701 50.1807H804.668L839.343 98.0397L873.631 50.1807H905.599L854.683 119.067L906.888 189.501H874.791L839.343 140.094L803.637 189.501H771.541Z" fill="#FAFCF7"/>
<path fill-rule="evenodd" clip-rule="evenodd" d="M726.88 172.815C723.01 177.703 718.37 181.803 712.959 185.115C704.108 190.533 693.409 193.242 680.862 193.242C671.237 193.242 663.16 191.694 656.629 188.598C650.097 185.502 644.77 181.46 640.645 176.472C636.606 171.398 633.512 165.894 631.364 159.96C629.215 154.026 627.754 148.221 626.981 142.545C626.208 136.869 625.821 131.881 625.821 127.581V50.1807H653.148V118.68C653.148 124.098 653.578 129.688 654.437 135.45C655.382 141.126 657.101 146.415 659.593 151.317C662.171 156.219 665.738 160.175 670.292 163.185C674.933 166.195 680.948 167.7 688.339 167.7C693.151 167.7 697.705 166.926 702.002 165.378C706.299 163.744 710.037 161.164 713.217 157.638C716.482 154.112 719.017 149.468 720.822 143.706C722.712 137.944 723.658 130.935 723.658 122.679V50.1807H750.856V189.501H726.88V172.815Z" fill="#FAFCF7"/>
<path fill-rule="evenodd" clip-rule="evenodd" d="M495.529 189.501V3.74121H522.469V164.088H606.514V189.501H495.529Z" fill="#FAFCF7"/>
<path fill-rule="evenodd" clip-rule="evenodd" d="M352.086 178.163C345.637 172.682 340.397 165.97 336.366 158.025C330.866 146.931 328.116 134.16 328.116 119.712C328.116 105.178 330.952 92.4065 336.624 81.3985C342.296 70.3045 350.245 61.7045 360.471 55.5985C370.697 49.4065 382.642 46.3105 396.306 46.3105C410.227 46.3105 422.301 49.4495 432.527 55.7275C442.754 62.0055 450.66 70.6485 456.245 81.6565C461.831 92.6645 464.624 105.35 464.624 119.712C464.624 134.246 461.788 147.06 456.117 158.154C452.137 165.998 446.978 172.641 440.642 178.083L425.821 154.894C425.909 154.778 425.996 154.66 426.082 154.542C432.699 145.512 436.008 133.902 436.008 119.712C436.008 105.178 432.656 93.5676 425.953 84.8815C419.336 76.1096 409.454 71.7235 396.306 71.7235C387.283 71.7235 379.849 73.7875 374.006 77.9155C368.162 81.9575 363.822 87.5905 360.987 94.8145C358.151 101.953 356.733 110.252 356.733 119.712C356.733 134.332 360.084 146.028 366.787 154.8C366.829 154.855 366.871 154.91 366.913 154.964L352.086 178.163Z" fill="#FAFCF7"/>
<path fill-rule="evenodd" clip-rule="evenodd" d="M203.209 127.452C204.177 139.139 207.471 148.47 213.09 155.445C219.878 163.787 229.675 167.958 242.479 167.958C250.901 167.958 258.162 166.066 264.264 162.282C270.451 158.412 275.263 152.908 278.701 145.77L305.126 154.155C299.712 166.625 291.505 176.3 280.506 183.18C269.506 189.974 257.26 193.371 243.768 193.371C229.933 193.371 217.773 190.361 207.289 184.341C196.891 178.235 188.77 169.764 182.926 158.928C177.169 148.006 174.29 135.364 174.29 121.002C174.29 105.78 177.126 92.5785 182.798 81.3985C188.555 70.2185 196.547 61.5755 206.773 55.4695C217 49.3635 228.902 46.3105 242.479 46.3105C256.659 46.3105 268.732 49.6215 278.701 56.2435C288.669 62.7795 296.103 72.1105 301.001 84.2365C305.985 96.3625 307.962 110.768 306.93 127.452H203.209ZM279.326 106.425C278.109 95.8245 275.237 87.6115 270.709 81.7855C264.779 74.0455 255.713 70.1755 243.511 70.1755C230.019 70.1755 219.878 74.4325 213.09 82.9465C208.331 88.9135 205.241 96.7395 203.818 106.425H279.326Z" fill="#FAFCF7"/>
<path fill-rule="evenodd" clip-rule="evenodd" d="M0 189.501V3.74121H27.3273L118.719 141.771V3.74121H146.046V189.501H118.719L27.3273 51.3422V189.501H0Z" fill="#FAFCF7"/>
<path d="M396.379 123.333C405.16 123.333 412.271 116.228 412.271 107.453C412.271 98.6779 405.16 91.5713 396.379 91.5713C387.597 91.5713 380.485 98.6779 380.485 107.453C380.469 116.228 387.597 123.333 396.379 123.333Z" stroke="#E76715" stroke-width="11.5217" stroke-linecap="round"/>
<path d="M396.379 125.961V165.672" stroke="#E76715" stroke-width="11.5217" stroke-linecap="round"/>
<path fill-rule="evenodd" clip-rule="evenodd" d="M428.162 189.501H364.577L380.473 165.672H412.266L428.162 189.501Z" fill="#E76715"/>
</g>
<defs>
<clipPath id="clip0_2322_4515">
<rect width="1320" height="194" fill="white"/>
</clipPath>
</defs>
</svg>
