<svg width="116" height="17" viewBox="0 0 116 17" fill="none" xmlns="http://www.w3.org/2000/svg">
<g clip-path="url(#clip0_2322_4868)">
<path fill-rule="evenodd" clip-rule="evenodd" d="M103.949 14.8344C103.517 15.4449 103.008 15.9223 102.419 16.2666C101.642 16.7188 100.682 16.9449 99.5422 16.9449C98.636 16.9449 97.8764 16.7791 97.2653 16.4475C96.6532 16.1084 96.1887 15.6637 95.8717 15.1136C95.5626 14.5559 95.4072 13.9455 95.4072 13.2823C95.4072 12.6644 95.5169 12.1218 95.7356 11.6545C95.9551 11.1873 96.28 10.7917 96.7103 10.4676C97.1406 10.136 97.6692 9.86849 98.2962 9.66501C98.8397 9.50675 99.4553 9.36734 100.142 9.24676C100.83 9.12618 101.551 9.01314 102.306 8.90764C102.775 8.8427 103.242 8.77777 103.706 8.71284C103.67 7.93268 103.468 7.34197 103.099 6.94072C102.683 6.47348 101.966 6.23986 100.946 6.23986C100.304 6.23986 99.7161 6.39058 99.1796 6.69203C98.643 6.98593 98.2699 7.47578 98.0582 8.16156L95.8489 7.48332C96.1509 6.4358 96.7252 5.60306 97.5709 4.9851C98.4244 4.36715 99.5572 4.05817 100.969 4.05817C102.064 4.05817 103.016 4.24657 103.824 4.62337C104.64 4.99264 105.236 5.58046 105.614 6.38682C105.81 6.78623 105.931 7.20825 105.976 7.65288C106.022 8.09751 106.044 8.57605 106.044 9.0885V16.6057H103.949V14.8344ZM103.682 10.6864C103.233 10.7538 102.812 10.8165 102.419 10.8746C101.808 10.965 101.253 11.0554 100.754 11.1459C100.263 11.2287 99.825 11.3305 99.4404 11.4511C99.1155 11.5641 98.8248 11.6998 98.5675 11.858C98.319 12.0163 98.1188 12.2084 97.9678 12.4345C97.8238 12.6606 97.7526 12.9357 97.7526 13.2597C97.7526 13.5762 97.8317 13.8701 97.9897 14.1414C98.1487 14.4052 98.3902 14.6162 98.7151 14.7745C99.04 14.9327 99.4553 15.0119 99.9611 15.0119C100.633 15.0119 101.211 14.8951 101.695 14.6614C102.177 14.4203 102.566 14.1151 102.861 13.7458C103.156 13.3765 103.348 12.9922 103.438 12.5928C103.568 12.231 103.639 11.8241 103.654 11.3719C103.667 11.114 103.676 10.8855 103.682 10.6864Z" fill="#1A267C"/>
<path fill-rule="evenodd" clip-rule="evenodd" d="M109.971 6.2964H107.626V4.39731H109.971V1.00607H112.35V4.39731H115.986V6.2964H112.35V11.6885C112.35 12.1783 112.354 12.6041 112.361 12.9658C112.377 13.3276 112.456 13.6328 112.599 13.8815C112.871 14.3487 113.302 14.6162 113.891 14.6841C114.487 14.7444 115.186 14.718 115.986 14.6049V16.6058C115.216 16.7565 114.461 16.8205 113.72 16.7979C112.981 16.7753 112.32 16.6321 111.738 16.3684C111.157 16.1046 110.719 15.6901 110.424 15.1249C110.16 14.62 110.016 14.1076 109.994 13.5876C109.979 13.06 109.971 12.4647 109.971 11.8015V6.2964Z" fill="#1A267C"/>
<path fill-rule="evenodd" clip-rule="evenodd" d="M87.42 16.9449C86.2495 16.9449 85.1922 16.7452 84.2482 16.3458C83.3118 15.9388 82.5377 15.3623 81.926 14.6162C81.3219 13.8626 80.9292 12.9696 80.7479 11.9372L83.2174 11.5641C83.4666 12.5589 83.9877 13.3351 84.7806 13.8928C85.5736 14.4429 86.4987 14.718 87.5559 14.718C88.2127 14.718 88.8168 14.6162 89.3683 14.4128C89.9197 14.2017 90.3614 13.9041 90.6934 13.5197C91.0332 13.1279 91.2036 12.6606 91.2036 12.118C91.2036 11.8241 91.1509 11.5641 91.0446 11.338C90.9471 11.112 90.8066 10.916 90.6258 10.7502C90.4519 10.5769 90.2367 10.4299 89.9803 10.3094C89.7309 10.1812 89.4552 10.072 89.1531 9.98154L84.9732 8.74939C84.5654 8.62881 84.15 8.47432 83.7271 8.28592C83.3042 8.08998 82.9153 7.83753 82.5604 7.52855C82.213 7.21203 81.9298 6.82392 81.7108 6.36422C81.4918 5.89698 81.3823 5.33178 81.3823 4.6686C81.3823 3.6663 81.639 2.81849 82.1526 2.12518C82.6736 1.42432 83.376 0.896794 84.2595 0.542598C85.1431 0.180866 86.1324 0 87.2274 0C88.3303 0.0150722 89.3156 0.21101 90.1841 0.587814C91.0604 0.964619 91.7849 1.50722 92.3592 2.21561C92.9405 2.91646 93.3409 3.76804 93.5596 4.77034L91.0227 5.1999C90.9094 4.58947 90.667 4.06572 90.2973 3.62862C89.9276 3.18399 89.4745 2.84487 88.938 2.61125C88.4015 2.3701 87.8201 2.24575 87.1934 2.23822C86.5893 2.22314 86.0342 2.31358 85.5282 2.50952C85.0298 2.70545 84.6296 2.98052 84.3275 3.33472C84.033 3.68891 83.8857 4.09586 83.8857 4.55556C83.8857 5.00773 84.0179 5.37323 84.2822 5.65206C84.5465 5.9309 84.8712 6.15321 85.2564 6.31901C85.6491 6.47726 86.038 6.60914 86.4231 6.71465L89.4368 7.56246C89.8144 7.66796 90.2403 7.81115 90.7162 7.99202C91.2 8.16535 91.6646 8.41027 92.1098 8.72678C92.5629 9.0433 92.937 9.46532 93.2311 9.99285C93.5253 10.5128 93.6728 11.1685 93.6728 11.9598C93.6728 12.7812 93.5069 13.5047 93.1749 14.1302C92.8421 14.7481 92.3855 15.2681 91.8042 15.6901C91.2299 16.1046 90.5652 16.4174 89.81 16.6284C89.0548 16.8394 88.2583 16.9449 87.42 16.9449Z" fill="#1A267C"/>
<path fill-rule="evenodd" clip-rule="evenodd" d="M67.8021 16.6058L72.3785 10.4337L67.904 4.39731H70.7133L73.7605 8.59114L76.7737 4.39731H79.583L75.1085 10.4337L79.6962 16.6058H76.8756L73.7605 12.2763L70.6227 16.6058H67.8021Z" fill="#1A267C"/>
<path fill-rule="evenodd" clip-rule="evenodd" d="M63.8774 15.1436C63.5373 15.5719 63.1295 15.9312 62.654 16.2214C61.8761 16.6962 60.9359 16.9336 59.8334 16.9336C58.9876 16.9336 58.2777 16.7979 57.7037 16.5266C57.1298 16.2553 56.6616 15.9011 56.2991 15.464C55.9442 15.0194 55.6723 14.5371 55.4835 14.0171C55.2947 13.4971 55.1663 12.9884 55.0983 12.4911C55.0304 11.9937 54.9964 11.5566 54.9964 11.1798V4.39731H57.3979V10.3998C57.3979 10.8746 57.4356 11.3644 57.5112 11.8693C57.5942 12.3667 57.7453 12.8302 57.9643 13.2597C58.1908 13.6893 58.5042 14.036 58.9045 14.2997C59.3123 14.5635 59.8409 14.6954 60.4904 14.6954C60.9133 14.6954 61.3135 14.6275 61.6911 14.4919C62.0687 14.3487 62.3972 14.1226 62.6766 13.8136C62.9636 13.5047 63.1864 13.0977 63.345 12.5928C63.5111 12.0879 63.5942 11.4737 63.5942 10.7502V4.39731H65.9843V16.6058H63.8774V15.1436Z" fill="#1A267C"/>
<path fill-rule="evenodd" clip-rule="evenodd" d="M43.5464 16.6058V0.32782H45.914V14.3788H53.2997V16.6058H43.5464Z" fill="#1A267C"/>
<path fill-rule="evenodd" clip-rule="evenodd" d="M30.9409 15.6122C30.3742 15.1319 29.9137 14.5437 29.5595 13.8475C29.0761 12.8754 28.8345 11.7563 28.8345 10.4902C28.8345 9.21661 29.0837 8.09751 29.5821 7.13289C30.0805 6.16073 30.7791 5.40713 31.6777 4.87206C32.5764 4.32947 33.6261 4.05817 34.8269 4.05817C36.0503 4.05817 37.1113 4.33323 38.01 4.88337C38.9086 5.4335 39.6034 6.19088 40.0943 7.1555C40.5852 8.12011 40.8306 9.23169 40.8306 10.4902C40.8306 11.7638 40.5814 12.8867 40.083 13.8588C39.7332 14.5462 39.2799 15.1283 38.7231 15.6052L37.4207 13.5732C37.4284 13.563 37.436 13.5527 37.4436 13.5423C38.0251 12.751 38.3158 11.7337 38.3158 10.4902C38.3158 9.21661 38.0213 8.19924 37.4323 7.4381C36.8508 6.66942 35.9823 6.28508 34.8269 6.28508C34.0339 6.28508 33.3807 6.46594 32.8672 6.82768C32.3536 7.18187 31.9723 7.67549 31.7231 8.30852C31.4738 8.93401 31.3492 9.66124 31.3492 10.4902C31.3492 11.7713 31.6438 12.7963 32.2328 13.5649C32.2365 13.5698 32.2402 13.5746 32.2439 13.5793L30.9409 15.6122Z" fill="#1A267C"/>
<path fill-rule="evenodd" clip-rule="evenodd" d="M17.8578 11.1685C17.9429 12.1926 18.2323 13.0102 18.7261 13.6215C19.3227 14.3525 20.1836 14.718 21.3088 14.718C22.0489 14.718 22.687 14.5522 23.2232 14.2206C23.7669 13.8814 24.1898 13.3991 24.4919 12.7736L26.8141 13.5084C26.3383 14.6011 25.6171 15.449 24.6505 16.0518C23.6839 16.6472 22.6077 16.9449 21.4221 16.9449C20.2062 16.9449 19.1376 16.6811 18.2163 16.1536C17.3025 15.6185 16.5889 14.8762 16.0754 13.9267C15.5694 12.9696 15.3164 11.8618 15.3164 10.6033C15.3164 9.26937 15.5656 8.11258 16.064 7.13289C16.57 6.1532 17.2723 5.39582 18.171 4.86076C19.0697 4.3257 20.1156 4.05817 21.3088 4.05817C22.5549 4.05817 23.6159 4.34831 24.4919 4.92858C25.3679 5.50133 26.0212 6.31899 26.4516 7.38158C26.8896 8.44417 27.0633 9.70646 26.9727 11.1685H17.8578ZM24.5469 9.32589C24.4399 8.39702 24.1875 7.67733 23.7896 7.1668C23.2685 6.48855 22.4718 6.14943 21.3994 6.14943C20.2138 6.14943 19.3227 6.52247 18.7261 7.26854C18.3079 7.79142 18.0363 8.4772 17.9113 9.32589H24.5469Z" fill="#1A267C"/>
<path fill-rule="evenodd" clip-rule="evenodd" d="M0 16.6058V0.32782H2.40149L10.4329 12.4232V0.32782H12.8344V16.6058H10.4329L2.40149 4.49904V16.6058H0Z" fill="#1A267C"/>
<path d="M34.8333 10.8075C35.605 10.8075 36.2299 10.1849 36.2299 9.41594C36.2299 8.647 35.605 8.02426 34.8333 8.02426C34.0615 8.02426 33.4366 8.647 33.4366 9.41594C33.4352 10.1849 34.0615 10.8075 34.8333 10.8075Z" stroke="#E76715" stroke-linecap="round"/>
<path d="M34.8333 11.0378V14.5176" stroke="#E76715" stroke-linecap="round"/>
<path fill-rule="evenodd" clip-rule="evenodd" d="M37.6264 16.6057H32.0386L33.4356 14.5176H36.2295L37.6264 16.6057Z" fill="#E76715"/>
</g>
<defs>
<clipPath id="clip0_2322_4868">
<rect width="116" height="17" fill="white"/>
</clipPath>
</defs>
</svg>
