<svg width="20" height="20" viewBox="0 0 20 20" fill="none" xmlns="http://www.w3.org/2000/svg">
<path d="M13.75 17.0833C12.8333 17.0833 12.0486 16.7569 11.3958 16.1042C10.7431 15.4514 10.4167 14.6667 10.4167 13.75C10.4167 12.8333 10.7431 12.0486 11.3958 11.3958C12.0486 10.7431 12.8333 10.4167 13.75 10.4167C14.6667 10.4167 15.4514 10.7431 16.1042 11.3958C16.7569 12.0486 17.0833 12.8333 17.0833 13.75C17.0833 14.0694 17.0417 14.3717 16.9583 14.6567C16.875 14.9417 16.7569 15.2089 16.6042 15.4583L18.5833 17.4167C18.6667 17.4861 18.7292 17.5731 18.7708 17.6775C18.8125 17.7819 18.8333 17.8894 18.8333 18C18.8333 18.1106 18.8125 18.2147 18.7708 18.3125C18.7292 18.4103 18.6667 18.5006 18.5833 18.5833C18.5139 18.6528 18.4272 18.7083 18.3233 18.75C18.2194 18.7917 18.1117 18.8125 18 18.8125C17.8883 18.8125 17.7842 18.7917 17.6875 18.75C17.5908 18.7083 17.5006 18.6528 17.4167 18.5833L15.4375 16.625C15.1875 16.7778 14.9203 16.8925 14.6358 16.9692C14.3514 17.0458 14.0561 17.0839 13.75 17.0833ZM4.58333 17.0833C3.66667 17.0833 2.88194 16.7569 2.22917 16.1042C1.57639 15.4514 1.25 14.6667 1.25 13.75C1.25 12.8333 1.57639 12.0486 2.22917 11.3958C2.88194 10.7431 3.66667 10.4167 4.58333 10.4167C5.5 10.4167 6.28472 10.7431 6.9375 11.3958C7.59028 12.0486 7.91667 12.8333 7.91667 13.75C7.91667 14.6667 7.59028 15.4514 6.9375 16.1042C6.28472 16.7569 5.5 17.0833 4.58333 17.0833ZM13.75 15.4167C14.2083 15.4167 14.6008 15.2536 14.9275 14.9275C15.2542 14.6014 15.4172 14.2089 15.4167 13.75C15.4161 13.2911 15.2531 12.8989 14.9275 12.5733C14.6019 12.2478 14.2094 12.0844 13.75 12.0833C13.2906 12.0822 12.8983 12.2456 12.5733 12.5733C12.2483 12.9011 12.085 13.2933 12.0833 13.75C12.0817 14.2067 12.245 14.5992 12.5733 14.9275C12.9017 15.2558 13.2939 15.4189 13.75 15.4167ZM4.58333 7.91667C3.66667 7.91667 2.88194 7.59028 2.22917 6.9375C1.57639 6.28472 1.25 5.5 1.25 4.58333C1.25 3.66667 1.57639 2.88194 2.22917 2.22917C2.88194 1.57639 3.66667 1.25 4.58333 1.25C5.5 1.25 6.28472 1.57639 6.9375 2.22917C7.59028 2.88194 7.91667 3.66667 7.91667 4.58333C7.91667 5.5 7.59028 6.28472 6.9375 6.9375C6.28472 7.59028 5.5 7.91667 4.58333 7.91667ZM13.75 7.91667C12.8333 7.91667 12.0486 7.59028 11.3958 6.9375C10.7431 6.28472 10.4167 5.5 10.4167 4.58333C10.4167 3.66667 10.7431 2.88194 11.3958 2.22917C12.0486 1.57639 12.8333 1.25 13.75 1.25C14.6667 1.25 15.4514 1.57639 16.1042 2.22917C16.7569 2.88194 17.0833 3.66667 17.0833 4.58333C17.0833 5.5 16.7569 6.28472 16.1042 6.9375C15.4514 7.59028 14.6667 7.91667 13.75 7.91667Z" fill="#1A267C" fill-opacity="0.8"/>
</svg>
