<svg width="20" height="20" viewBox="0 0 20 20" fill="none" xmlns="http://www.w3.org/2000/svg">
<path d="M10 9.16699C10.6904 9.16699 11.25 8.60735 11.25 7.91699C11.25 7.22664 10.6904 6.66699 10 6.66699C9.30964 6.66699 8.75 7.22664 8.75 7.91699C8.75 8.60735 9.30964 9.16699 10 9.16699Z" fill="#1A267C" fill-opacity="0.8"/>
<path d="M9.99999 1.66699C8.24338 1.6669 6.55771 2.36012 5.30936 3.59598C4.06102 4.83185 3.35089 6.51046 3.33333 8.26699C3.33333 12.8337 9.20833 17.917 9.45833 18.1337C9.60927 18.2628 9.80137 18.3337 9.99999 18.3337C10.1986 18.3337 10.3907 18.2628 10.5417 18.1337C10.8333 17.917 16.6667 12.8337 16.6667 8.26699C16.6491 6.51046 15.939 4.83185 14.6906 3.59598C13.4423 2.36012 11.7566 1.6669 9.99999 1.66699ZM9.99999 10.8337C9.42313 10.8337 8.85922 10.6626 8.37958 10.3421C7.89994 10.0216 7.5261 9.5661 7.30535 9.03315C7.08459 8.5002 7.02683 7.91376 7.13937 7.34798C7.25191 6.7822 7.5297 6.2625 7.9376 5.8546C8.3455 5.44669 8.8652 5.16891 9.43098 5.05637C9.99676 4.94383 10.5832 5.00159 11.1162 5.22234C11.6491 5.4431 12.1046 5.81694 12.4251 6.29658C12.7456 6.77622 12.9167 7.34013 12.9167 7.91699C12.9167 8.69054 12.6094 9.43241 12.0624 9.97939C11.5154 10.5264 10.7735 10.8337 9.99999 10.8337Z" fill="#1A267C" fill-opacity="0.8"/>
</svg>
