<svg width="24" height="24" viewBox="0 0 24 24" fill="none" xmlns="http://www.w3.org/2000/svg">
<path d="M14.975 12.0002C14.975 12.1335 14.9543 12.2585 14.913 12.3752C14.8717 12.4919 14.8007 12.6002 14.7 12.7002L10.1 17.3002C9.91667 17.4835 9.68334 17.5752 9.4 17.5752C9.11667 17.5752 8.88334 17.4835 8.7 17.3002C8.51667 17.1169 8.425 16.8835 8.425 16.6002C8.425 16.3169 8.51667 16.0835 8.7 15.9002L12.6 12.0002L8.7 8.1002C8.51667 7.91686 8.425 7.68353 8.425 7.4002C8.425 7.11686 8.51667 6.88353 8.7 6.7002C8.88334 6.51686 9.11667 6.42519 9.4 6.42519C9.68334 6.42519 9.91667 6.51686 10.1 6.7002L14.7 11.3002C14.8 11.4002 14.871 11.5085 14.913 11.6252C14.955 11.7419 14.9757 11.8669 14.975 12.0002Z" fill="#1A267C" fill-opacity="0.8"/>
</svg>
