<svg width="20" height="20" viewBox="0 0 20 20" fill="none" xmlns="http://www.w3.org/2000/svg">
<path d="M9.99996 15.0003C11.3888 15.0003 12.5694 14.5142 13.5416 13.542C14.5138 12.5698 15 11.3892 15 10.0003C15 8.792 14.6144 7.7295 13.8433 6.81283C13.0722 5.89616 12.0966 5.31977 10.9166 5.08366C10.6666 5.05589 10.4513 5.12533 10.2708 5.292C10.0902 5.45866 9.99996 5.667 9.99996 5.917V10.0003L7.12496 12.8753C6.94441 13.0559 6.86107 13.2712 6.87496 13.5212C6.88885 13.7712 6.99302 13.9726 7.18746 14.1253C7.59024 14.4448 8.03468 14.6706 8.52079 14.8028C9.0069 14.9351 9.49996 15.0009 9.99996 15.0003ZM9.99996 18.3337C8.84718 18.3337 7.76385 18.1151 6.74996 17.6778C5.73607 17.2406 4.85413 16.6467 4.10413 15.8962C3.35413 15.1456 2.76052 14.2637 2.32329 13.2503C1.88607 12.237 1.66718 11.1537 1.66663 10.0003C1.66607 8.847 1.88496 7.76366 2.32329 6.75033C2.76163 5.737 3.35524 4.85505 4.10413 4.1045C4.85302 3.35394 5.73496 2.76033 6.74996 2.32366C7.76496 1.887 8.84829 1.66811 9.99996 1.667C11.1516 1.66589 12.235 1.88477 13.25 2.32366C14.265 2.76255 15.1469 3.35616 15.8958 4.1045C16.6447 4.85283 17.2386 5.73477 17.6775 6.75033C18.1163 7.76589 18.335 8.84922 18.3333 10.0003C18.3316 11.1514 18.1127 12.2348 17.6766 13.2503C17.2405 14.2659 16.6469 15.1478 15.8958 15.8962C15.1447 16.6445 14.2627 17.2384 13.25 17.6778C12.2372 18.1173 11.1538 18.3359 9.99996 18.3337Z" fill="#1A267C" fill-opacity="0.8"/>
</svg>
