<svg width="24" height="25" viewBox="0 0 24 25" fill="none" xmlns="http://www.w3.org/2000/svg">
<path d="M10.6 14.3L8.45 12.15C8.26667 11.9667 8.03333 11.875 7.75 11.875C7.46667 11.875 7.23334 11.9667 7.05 12.15C6.86667 12.3333 6.775 12.5667 6.775 12.85C6.775 13.1333 6.86667 13.3667 7.05 13.55L9.9 16.4C10.1 16.6 10.3333 16.7 10.6 16.7C10.8667 16.7 11.1 16.6 11.3 16.4L16.95 10.75C17.1333 10.5667 17.225 10.3333 17.225 10.05C17.225 9.76667 17.1333 9.53333 16.95 9.35C16.7667 9.16667 16.5333 9.075 16.25 9.075C15.9667 9.075 15.7333 9.16667 15.55 9.35L10.6 14.3ZM12 22.5C10.6167 22.5 9.31667 22.2373 8.1 21.712C6.88334 21.1867 5.825 20.4743 4.925 19.575C4.025 18.6757 3.31267 17.6173 2.788 16.4C2.26333 15.1827 2.00067 13.8827 2 12.5C1.99933 11.1173 2.262 9.81733 2.788 8.6C3.314 7.38267 4.02633 6.32433 4.925 5.425C5.82367 4.52567 6.882 3.81333 8.1 3.288C9.318 2.76267 10.618 2.5 12 2.5C13.382 2.5 14.682 2.76267 15.9 3.288C17.118 3.81333 18.1763 4.52567 19.075 5.425C19.9737 6.32433 20.6863 7.38267 21.213 8.6C21.7397 9.81733 22.002 11.1173 22 12.5C21.998 13.8827 21.7353 15.1827 21.212 16.4C20.6887 17.6173 19.9763 18.6757 19.075 19.575C18.1737 20.4743 17.1153 21.187 15.9 21.713C14.6847 22.239 13.3847 22.5013 12 22.5Z" fill="#14AE5C"/>
</svg>
