<svg width="24" height="25" viewBox="0 0 24 25" fill="none" xmlns="http://www.w3.org/2000/svg">
<path d="M12 18.5C13.6667 18.5 15.0833 17.9167 16.25 16.75C17.4167 15.5833 18 14.1667 18 12.5C18 11.05 17.5373 9.77501 16.612 8.67501C15.6867 7.57501 14.516 6.88334 13.1 6.60001C12.8 6.56667 12.5417 6.65001 12.325 6.85001C12.1083 7.05 12 7.3 12 7.60001V12.5L8.55 15.95C8.33333 16.1667 8.23333 16.425 8.25 16.725C8.26667 17.025 8.39167 17.2667 8.625 17.45C9.10833 17.8333 9.64167 18.1043 10.225 18.263C10.8083 18.4217 11.4 18.5007 12 18.5ZM12 22.5C10.6167 22.5 9.31667 22.2377 8.1 21.713C6.88334 21.1883 5.825 20.4757 4.925 19.575C4.025 18.6743 3.31267 17.616 2.788 16.4C2.26333 15.184 2.00067 13.884 2 12.5C1.99933 11.116 2.262 9.81601 2.788 8.60001C3.314 7.38401 4.02633 6.32567 4.925 5.42501C5.82367 4.52434 6.882 3.81201 8.1 3.28801C9.318 2.76401 10.618 2.50134 12 2.50001C13.382 2.49867 14.682 2.76134 15.9 3.28801C17.118 3.81467 18.1763 4.52701 19.075 5.42501C19.9737 6.32301 20.6863 7.38134 21.213 8.60001C21.7397 9.81867 22.002 11.1187 22 12.5C21.998 13.8813 21.7353 15.1813 21.212 16.4C20.6887 17.6187 19.9763 18.677 19.075 19.575C18.1737 20.473 17.1153 21.1857 15.9 21.713C14.6847 22.2403 13.3847 22.5027 12 22.5Z" fill="#337BFF"/>
</svg>
