<svg width="24" height="25" viewBox="0 0 24 25" fill="none" xmlns="http://www.w3.org/2000/svg">
<path d="M4 20.5C3.45 20.5 2.97933 20.3043 2.588 19.913C2.19667 19.5217 2.00067 19.0507 2 18.5V6.5C2 5.95 2.196 5.47933 2.588 5.088C2.98 4.69667 3.45067 4.50067 4 4.5H9.175C9.44167 4.5 9.696 4.55 9.938 4.65C10.18 4.75 10.3923 4.89167 10.575 5.075L12 6.5H20C20.55 6.5 21.021 6.696 21.413 7.088C21.805 7.48 22.0007 7.95067 22 8.5V18.5C22 19.05 21.8043 19.521 21.413 19.913C21.0217 20.305 20.5507 20.5007 20 20.5H4ZM14 14.5V15.5C14 15.7833 14.096 16.021 14.288 16.213C14.48 16.405 14.7173 16.5007 15 16.5C15.2827 16.4993 15.5203 16.4033 15.713 16.212C15.9057 16.0207 16.0013 15.7833 16 15.5V14.5H17C17.2833 14.5 17.521 14.404 17.713 14.212C17.905 14.02 18.0007 13.7827 18 13.5C17.9993 13.2173 17.9033 12.98 17.712 12.788C17.5207 12.596 17.2833 12.5 17 12.5H16V11.5C16 11.2167 15.904 10.9793 15.712 10.788C15.52 10.5967 15.2827 10.5007 15 10.5C14.7173 10.4993 14.48 10.5953 14.288 10.788C14.096 10.9807 14 11.218 14 11.5V12.5H13C12.7167 12.5 12.4793 12.596 12.288 12.788C12.0967 12.98 12.0007 13.2173 12 13.5C11.9993 13.7827 12.0953 14.0203 12.288 14.213C12.4807 14.4057 12.718 14.5013 13 14.5H14Z" fill="#E76715"/>
</svg>
