<svg width="20" height="20" viewBox="0 0 20 20" fill="none" xmlns="http://www.w3.org/2000/svg">
<path d="M3.33329 16.6663C2.87496 16.6663 2.48274 16.5033 2.15663 16.1772C1.83051 15.8511 1.66718 15.4586 1.66663 14.9997V11.6663C1.66663 11.4302 1.74663 11.2325 1.90663 11.073C2.06663 10.9136 2.2644 10.8336 2.49996 10.833H6.14579L7.58329 13.708C7.65274 13.8608 7.7569 13.9755 7.89579 14.0522C8.03468 14.1288 8.18051 14.1669 8.33329 14.1663C8.48607 14.1658 8.6319 14.1277 8.77079 14.0522C8.90968 13.9766 9.01385 13.8619 9.08329 13.708L11.6666 8.54134L12.5833 10.3747C12.6527 10.5275 12.7569 10.6422 12.8958 10.7188C13.0347 10.7955 13.1805 10.8336 13.3333 10.833H17.5C17.7361 10.833 17.9341 10.9127 18.0941 11.0722C18.2541 11.2316 18.3338 11.4297 18.3333 11.6663V14.9997C18.3333 15.458 18.1702 15.8505 17.8441 16.1772C17.518 16.5038 17.1255 16.6669 16.6666 16.6663H3.33329ZM1.66663 4.99967C1.66663 4.54134 1.82996 4.14912 2.15663 3.82301C2.48329 3.4969 2.87551 3.33356 3.33329 3.33301H16.6666C17.125 3.33301 17.5175 3.49634 17.8441 3.82301C18.1708 4.14967 18.3338 4.5419 18.3333 4.99967V8.33301C18.3333 8.56912 18.2533 8.76717 18.0933 8.92717C17.9333 9.08717 17.7355 9.1669 17.5 9.16634H13.8541L12.4166 6.29134C12.3472 6.13856 12.243 6.03106 12.1041 5.96884C11.9652 5.90662 11.8194 5.87523 11.6666 5.87467C11.5138 5.87412 11.368 5.90551 11.2291 5.96884C11.0902 6.03217 10.9861 6.13967 10.9166 6.29134L8.33329 11.458L7.41663 9.62467C7.34718 9.4719 7.24301 9.35717 7.10413 9.28051C6.96524 9.20384 6.8194 9.16579 6.66663 9.16634H2.49996C2.26385 9.16634 2.06607 9.08634 1.90663 8.92634C1.74718 8.76634 1.66718 8.56856 1.66663 8.33301V4.99967Z" fill="#1A267C" fill-opacity="0.8"/>
</svg>
