<svg width="276" height="279" viewBox="0 0 276 279" fill="none" xmlns="http://www.w3.org/2000/svg">
<path d="M67.5876 148.563L38.6262 128.284C36.3093 126.662 34.9193 124.537 34.4562 121.911C33.9932 119.285 34.5728 116.814 36.1951 114.497L56.4741 85.5353C58.0964 83.2184 60.2207 81.8284 62.8468 81.3653C65.473 80.9022 67.9445 81.4819 70.2614 83.1042L99.2228 103.383C101.54 105.006 102.93 107.13 103.393 109.756C103.856 112.382 103.276 114.854 101.654 117.17L81.3749 146.132C79.7526 148.449 77.6283 149.839 75.0022 150.302C72.376 150.765 69.9045 150.185 67.5876 148.563ZM136.683 240.968C133.893 241.46 131.389 240.927 129.171 239.369C126.954 237.81 125.596 235.639 125.099 232.857L118.153 193.465C109.83 194.255 101.547 194.785 93.3013 195.054C85.0562 195.323 76.7531 195.264 68.3921 194.877C65.4861 194.712 62.9559 193.551 60.8017 191.392C58.6474 189.233 57.7314 186.687 58.0535 183.753C58.3756 180.819 59.6978 178.471 62.0202 176.707C64.3426 174.944 66.9503 174.146 69.8432 174.312C82.317 174.99 94.7564 174.743 107.161 173.571C119.566 172.399 131.921 170.728 144.224 168.559C156.528 166.39 168.712 163.733 180.776 160.591C192.84 157.448 204.61 153.426 216.087 148.526C218.762 147.377 221.488 147.235 224.267 148.099C227.046 148.963 229.089 150.718 230.395 153.365C231.701 156.011 231.714 158.717 230.435 161.481C229.155 164.245 227.172 166.203 224.484 167.354C216.76 170.577 208.978 173.473 201.138 176.04C193.298 178.607 185.332 180.942 177.241 183.046L184.187 222.438C184.679 225.228 184.15 227.735 182.599 229.958C181.048 232.181 178.874 233.536 176.076 234.023L136.683 240.968ZM70.8346 126.666L79.7574 113.923L67.0144 105.001L58.0916 117.744L70.8346 126.666ZM130.332 89.7743C122.126 91.2214 114.643 89.579 107.886 84.8473C101.128 80.1155 97.0257 73.6463 95.5786 65.4395C94.1315 57.2328 95.7739 49.7506 100.506 42.993C105.237 36.2353 111.707 32.1329 119.913 30.6859C128.12 29.2388 135.602 30.8811 142.36 35.6129C149.118 40.3447 153.22 46.8139 154.667 55.0207C156.114 63.2274 154.472 70.7096 149.74 77.4672C145.008 84.2249 138.539 88.3273 130.332 89.7743ZM142.488 158.711C137.071 159.666 132.096 158.556 127.563 155.382C123.029 152.208 120.281 147.91 119.319 142.488C118.356 137.066 119.469 132.09 122.657 127.561C125.846 123.032 130.141 120.284 135.542 119.319C140.943 118.353 145.922 119.465 150.478 122.656C155.035 125.846 157.779 130.142 158.711 135.542C159.643 140.942 158.534 145.92 155.384 150.476C152.234 155.033 147.935 157.777 142.488 158.711ZM126.859 70.0782C129.65 69.5862 131.823 68.228 133.381 66.0038C134.938 63.7796 135.468 61.2762 134.971 58.4936C134.474 55.7111 133.116 53.5405 130.898 51.9819C128.681 50.4233 126.177 49.89 123.386 50.382C120.596 50.874 118.425 52.2316 116.875 54.4546C115.324 56.6777 114.79 59.1817 115.275 61.9666C115.759 64.7515 117.117 66.9253 119.349 68.4881C121.581 70.051 124.084 70.581 126.859 70.0782ZM185.171 125.799L170.373 108.1C169.292 106.767 168.592 105.198 168.274 103.393C167.955 101.587 168.076 99.8736 168.636 98.2517L176.489 76.5586C177.02 74.7725 177.952 73.3389 179.284 72.2578C180.617 71.1766 182.186 70.4769 183.991 70.1585L206.149 66.2515C207.955 65.9331 209.669 66.054 211.291 66.6142C212.912 67.1744 214.278 68.2028 215.389 69.6995L230.187 87.3987C231.268 88.7312 231.968 90.3002 232.286 92.1057C232.604 93.9112 232.483 95.6248 231.923 97.2468L224.071 118.94C223.54 120.726 222.608 122.16 221.275 123.241C219.943 124.322 218.374 125.022 216.568 125.34L194.41 129.247C192.605 129.565 190.891 129.444 189.269 128.884C187.647 128.324 186.281 127.296 185.171 125.799ZM196.6 108.552L207.433 106.642L211.113 95.8391L203.96 86.9461L193.127 88.8562L189.447 99.6594L196.6 108.552Z" fill="#FAFCF7" fill-opacity="0.1"/>
</svg>
