<svg width="279" height="279" viewBox="0 0 279 279" fill="none" xmlns="http://www.w3.org/2000/svg">
<path d="M129.827 176.174C134.654 179.554 140.165 180.573 146.359 179.23C152.553 177.888 156.669 174.833 158.706 170.067L189.33 100.441C190.402 97.883 189.83 95.8245 187.612 94.2659C185.394 92.7073 183.264 92.8731 181.221 94.7632L126.269 147.355C122.522 151.062 120.974 155.948 121.624 162.014C122.274 168.08 125.008 172.8 129.827 176.174ZM84.9543 229.781C81.3434 230.418 77.8835 230.222 74.5748 229.194C71.2661 228.167 68.4313 226.257 66.0706 223.464C60.4428 216.502 55.7495 209.081 51.9907 201.201C48.2318 193.321 45.5704 184.945 44.0064 176.076C41.6043 162.452 41.9336 149.194 44.9944 136.3C48.0552 123.406 53.2326 111.746 60.5264 101.321C67.8203 90.8963 77.0059 82.0435 88.0832 74.7626C99.1605 67.4818 111.507 62.6376 125.122 60.2301C138.581 57.8569 151.668 58.1725 164.383 61.1769C177.098 64.1813 188.662 69.2943 199.074 76.5159C209.486 83.7376 218.353 92.7515 225.674 103.558C232.995 114.364 237.924 126.482 240.461 139.912C242.217 148.911 242.749 157.915 242.056 166.926C241.364 175.936 239.41 184.783 236.196 193.466C234.941 196.903 232.934 199.671 230.176 201.768C227.418 203.865 224.227 205.23 220.602 205.863L84.9543 229.781Z" fill="#FAFCF7" fill-opacity="0.1"/>
</svg>
