<svg width="279" height="279" viewBox="0 0 279 279" fill="none" xmlns="http://www.w3.org/2000/svg">
<path d="M85.7067 239.803C82.9164 240.295 80.4125 239.762 78.1948 238.203C75.9771 236.644 74.6196 234.474 74.1222 231.691L72.3857 221.843L62.5376 223.58L55.5917 184.187C55.0997 181.397 55.633 178.893 57.1916 176.675C58.7501 174.458 60.9207 173.1 63.7033 172.603L73.5514 170.866L61.396 101.93C59.4859 91.0969 61.7078 81.1431 68.0619 72.0686C74.416 62.994 83.0095 57.5016 93.8424 55.5915C104.675 53.6814 114.629 55.9034 123.704 62.2574C132.778 68.6115 138.27 77.205 140.181 88.0379L157.545 186.519C158.5 191.935 161.249 196.233 165.79 199.413C170.331 202.593 175.306 203.702 180.715 202.742C186.123 201.781 190.422 199.037 193.611 194.507C196.799 189.978 197.908 185 196.938 179.573L184.782 110.636L174.934 112.373C172.144 112.865 169.64 112.331 167.422 110.773C165.205 109.214 163.847 107.044 163.35 104.261L156.404 64.8688L166.252 63.1323L164.515 53.2842C164.023 50.4939 164.557 47.9899 166.115 45.7723C167.674 43.5546 169.844 42.1971 172.627 41.6997L192.323 38.2267C195.113 37.7347 197.621 38.2674 199.845 39.8248C202.069 41.3823 203.423 43.5534 203.908 46.3383L205.644 56.1864L215.492 54.4499L222.438 93.8422C222.93 96.6325 222.397 99.1398 220.84 101.364C219.283 103.588 217.111 104.942 214.327 105.427L204.479 107.163L216.634 176.1C218.544 186.933 216.322 196.886 209.968 205.961C203.614 215.036 195.02 220.528 184.188 222.438C173.355 224.348 163.401 222.126 154.326 215.772C145.252 209.418 139.759 200.825 137.849 189.992L120.484 91.5109C119.529 86.0944 116.785 81.799 112.252 78.6247C107.718 75.4503 102.74 74.338 97.3153 75.2877C91.8912 76.2373 87.5964 78.9848 84.4309 83.5302C81.2654 88.0756 80.1525 93.0512 81.0921 98.4568L93.2475 167.393L103.096 165.657C105.886 165.165 108.393 165.698 110.617 167.255C112.842 168.812 114.196 170.984 114.68 173.768L121.626 213.161L111.778 214.897L113.514 224.745C114.006 227.536 113.474 230.043 111.916 232.267C110.359 234.491 108.188 235.846 105.403 236.33L85.7067 239.803Z" fill="#FAFCF7" fill-opacity="0.1"/>
</svg>
