<svg width="279" height="279" viewBox="0 0 279 279" fill="none" xmlns="http://www.w3.org/2000/svg">
<path d="M139.014 139.015C128.181 140.925 118.228 138.703 109.153 132.349C100.079 125.995 94.5863 117.401 92.6761 106.568C90.766 95.7355 92.988 85.7817 99.3421 76.7072C105.696 67.6326 114.29 62.1402 125.123 60.2301C135.955 58.32 145.909 60.542 154.984 66.8961C164.058 73.2501 169.551 81.8436 171.461 92.6765C173.371 103.509 171.149 113.463 164.795 122.538C158.441 131.612 149.847 137.105 139.014 139.015ZM93.8178 228.218C88.4013 229.173 83.4264 228.064 78.893 224.889C74.3595 221.715 71.6114 217.417 70.6486 211.995L69.2595 204.117C68.2754 198.536 68.8091 193.155 70.8605 187.973C72.9119 182.792 76.0966 178.548 80.4147 175.241C87.8979 169.69 95.4939 165.01 103.203 161.2C110.912 157.391 119.122 154.291 127.832 151.902C131.55 150.908 134.832 151.768 137.68 154.481C140.528 157.195 141.888 160.593 141.762 164.677C141.743 165.527 141.799 166.323 141.929 167.065L142.341 169.399C143.209 174.323 144.934 179.055 147.515 183.596C150.096 188.137 153.893 192.162 158.905 195.672L163.495 198.67C167.164 201.239 168.493 204.687 167.482 209.015C166.472 213.343 163.747 215.895 159.307 216.671L93.8178 228.218ZM202.901 201.876L170.464 179.164C167.954 177.406 166.032 175.376 164.699 173.072C163.365 170.769 162.478 168.387 162.037 165.926C161.111 160.673 162.174 155.663 165.225 150.894C168.277 146.125 172.757 143.219 178.666 142.177C183.262 141.367 187.061 141.797 190.063 143.468C193.066 145.139 196.691 147.461 200.938 150.435C203.642 146.574 206.147 143.255 208.454 140.479C210.76 137.703 214.29 135.896 219.043 135.058C225.116 133.987 230.37 135.22 234.805 138.757C239.24 142.294 241.916 146.683 242.833 151.923C243.267 154.385 243.209 156.934 242.658 159.569C242.108 162.205 241.021 164.681 239.399 166.998L216.686 199.435C215.064 201.752 212.94 203.142 210.314 203.605C207.687 204.068 205.218 203.498 202.901 201.876Z" fill="#FAFCF7" fill-opacity="0.1"/>
</svg>
