<svg width="279" height="279" viewBox="0 0 279 279" fill="none" xmlns="http://www.w3.org/2000/svg">
<path d="M134.499 115.174C134.653 115.005 134.901 114.961 135.103 115.068L215.603 157.522C215.795 157.624 215.9 157.839 215.861 158.053C213.369 171.723 208.602 184.507 201.56 196.406C194.6 208.165 185.888 218.077 175.423 226.139C175.127 226.368 174.696 226.199 174.631 225.83L164.05 165.825C164.002 165.553 163.743 165.371 163.471 165.419L125.063 172.191C124.791 172.239 124.61 172.499 124.658 172.771L135.238 232.776C135.303 233.144 134.955 233.451 134.599 233.337C122.013 229.332 110.44 222.998 99.8789 214.335C89.1933 205.569 80.3382 195.187 73.3134 183.188C73.2034 183 73.2284 182.762 73.3746 182.601L134.499 115.174ZM121.531 40.8755C121.635 40.814 121.758 40.7924 121.877 40.8145L205.346 56.3691C205.551 56.4073 205.711 56.5685 205.747 56.7738L216.236 116.26C216.815 119.542 217.223 122.815 217.459 126.076C217.676 129.063 217.829 132.091 217.919 135.162C217.93 135.544 217.526 135.795 217.188 135.617L130.717 90.2003C130.516 90.0944 130.268 90.1381 130.115 90.3065L64.3624 162.593C64.1127 162.867 63.6618 162.784 63.5301 162.437C62.4239 159.522 61.4994 156.612 60.7566 153.707C59.9499 150.553 59.2533 147.331 58.6668 144.043L48.1778 84.5575C48.1416 84.3522 48.2366 84.1461 48.416 84.0401L121.531 40.8755Z" fill="#FAFCF7" fill-opacity="0.1"/>
</svg>
