<svg width="279" height="279" viewBox="0 0 279 279" fill="none" xmlns="http://www.w3.org/2000/svg">
<path d="M95.5553 238.066C90.1388 239.021 85.1639 237.912 80.6305 234.737C76.0971 231.563 73.349 227.265 72.3862 221.843L56.7578 133.21C56.2079 130.092 56.3862 127.014 57.2926 123.977C58.1991 120.94 59.7208 118.303 61.8579 116.064L113.132 61.3291C116.116 58.0951 119.824 56.0875 124.255 55.306C128.687 54.5246 132.858 55.1431 136.768 57.1615L203.67 91.059C206.451 92.4303 208.786 94.3879 210.676 96.9316C212.567 99.4753 213.784 102.307 214.327 105.427C212.84 107.551 211.771 109.898 211.121 112.47C210.472 115.042 208.836 116.556 206.215 117.011L147.127 127.43C141.711 128.385 137.416 131.133 134.243 135.673C131.069 140.213 129.956 145.188 130.904 150.599L137.85 189.992C138.805 195.408 141.553 199.706 146.094 202.886C150.635 206.066 155.61 207.175 161.019 206.215L220.107 195.796C222.898 195.304 225.405 195.837 227.629 197.394C229.853 198.951 231.208 201.123 231.692 203.907C232.176 206.692 231.643 209.2 230.094 211.429C228.544 213.659 226.373 215.013 223.58 215.492L95.5553 238.066ZM159.282 196.367C156.492 196.859 153.988 196.325 151.77 194.767C149.553 193.208 148.195 191.038 147.698 188.255L140.752 148.863C140.26 146.072 140.793 143.569 142.352 141.351C143.91 139.133 146.081 137.776 148.863 137.278L188.256 130.332C191.046 129.84 193.553 130.373 195.778 131.93C198.002 133.488 199.356 135.659 199.84 138.444L201.577 148.292L212.961 139.431C214.458 138.32 216.074 138.12 217.81 138.829C219.547 139.539 220.571 140.797 220.882 142.603L225.137 166.731C225.455 168.536 224.92 170.069 223.531 171.33C222.142 172.59 220.558 172.954 218.778 172.422L205.05 167.988L206.786 177.836C207.278 180.626 206.746 183.134 205.188 185.358C203.631 187.582 201.46 188.936 198.675 189.421L159.282 196.367Z" fill="#FAFCF7" fill-opacity="0.1"/>
</svg>
