<svg width="279" height="279" viewBox="0 0 279 279" fill="none" xmlns="http://www.w3.org/2000/svg">
<path d="M134 165.285L170.268 131.981C172.875 129.49 173.86 126.439 173.223 122.828C172.587 119.218 170.617 116.688 167.316 115.239L121.845 96.348C118.186 94.7931 114.792 95.2223 111.663 97.6355C108.535 100.049 107.318 103.225 108.013 107.164L117.303 159.851C117.997 163.791 120.227 166.359 123.992 167.557C127.758 168.755 131.093 167.997 134 165.285ZM72.3851 221.843C66.9687 222.798 61.9938 221.689 57.4603 218.514C52.9269 215.34 50.1788 211.042 49.216 205.62L28.3782 87.443C27.4232 82.0266 28.5361 77.0511 31.717 72.5165C34.8979 67.9819 39.1927 65.2344 44.6014 64.2739L202.171 36.4902C207.587 35.5351 212.566 36.6475 217.107 39.8272C221.648 43.0069 224.392 47.3023 225.34 52.7134L246.178 170.89C247.133 176.307 246.024 181.285 242.85 185.825C239.677 190.365 235.379 193.11 229.954 194.059L190.562 201.005L192.299 210.853C192.791 213.644 192.258 216.151 190.7 218.375C189.143 220.599 186.972 221.954 184.187 222.438L125.098 232.857C122.308 233.349 119.804 232.816 117.587 231.257C115.369 229.698 114.011 227.528 113.514 224.745L111.777 214.897L72.3851 221.843Z" fill="#FAFCF7" fill-opacity="0.1"/>
</svg>
