<svg width="276" height="279" viewBox="0 0 276 279" fill="none" xmlns="http://www.w3.org/2000/svg">
<path d="M74.1215 231.691C68.705 232.646 63.7301 231.537 59.1967 228.362C54.6632 225.188 51.9151 220.89 50.9523 215.468L30.1146 97.291C29.1595 91.8746 30.2724 86.8991 33.4533 82.3645C36.6342 77.8299 40.929 75.0824 46.3378 74.1219L203.907 46.3382C209.323 45.3831 214.302 46.4955 218.843 49.6752C223.385 52.855 226.129 57.1504 227.076 62.5614L247.914 180.738C248.869 186.155 247.76 191.133 244.587 195.673C241.414 200.213 237.115 202.958 231.691 203.907L74.1215 231.691ZM120.415 171.742C122.452 172.736 124.413 173.531 126.298 174.126C128.183 174.721 130.181 175.259 132.289 175.74L135.026 182.62C135.923 184.831 137.359 186.483 139.332 187.577C141.305 188.671 143.437 189.013 145.727 188.602L149.666 187.908C151.964 187.503 153.846 186.409 155.312 184.627C156.779 182.846 157.552 180.763 157.633 178.38L157.894 171.226C159.719 170.058 161.416 168.872 162.984 167.668C164.552 166.464 166.119 165.043 167.685 163.407L175.216 164.363C177.465 164.644 179.545 164.192 181.456 163.009C183.366 161.826 184.733 160.231 185.557 158.224L186.919 154.43C187.721 152.258 187.755 150.052 187.021 147.812C186.288 145.572 184.888 143.873 182.822 142.714L176.581 138.991C176.533 136.799 176.321 134.637 175.945 132.503C175.568 130.369 175.028 128.264 174.323 126.188L178.915 120.556C180.46 118.76 181.202 116.727 181.14 114.457C181.078 112.186 180.298 110.164 178.801 108.391L175.934 105.088C174.467 103.485 172.676 102.447 170.561 101.974C168.447 101.5 166.381 101.78 164.363 102.813L157.614 106.288C155.577 105.293 153.616 104.498 151.73 103.903C149.845 103.308 147.848 102.77 145.739 102.289L143.003 95.4096C142.105 93.1985 140.674 91.5487 138.708 90.4602C136.743 89.3716 134.607 89.0272 132.301 89.427L128.362 90.1216C126.064 90.5268 124.186 91.6196 122.726 93.4001C121.266 95.1806 120.49 97.2638 120.396 99.6497L120.134 106.804C118.309 107.972 116.616 109.16 115.056 110.37C113.496 111.579 111.925 112.997 110.343 114.623L102.812 113.666C100.563 113.386 98.4864 113.836 96.5827 115.018C94.679 116.2 93.3086 117.796 92.4714 119.805L91.1096 123.599C90.3079 125.771 90.2738 127.977 91.0073 130.217C91.7407 132.457 93.1404 134.157 95.2064 135.316L101.448 139.038C101.496 141.23 101.708 143.393 102.084 145.526C102.46 147.66 103.001 149.765 103.705 151.841L99.1134 157.474C97.5684 159.269 96.8274 161.306 96.8905 163.583C96.9535 165.86 97.7325 167.878 99.2276 169.639L102.095 172.941C103.562 174.544 105.353 175.582 107.467 176.056C109.581 176.529 111.648 176.249 113.665 175.216L120.415 171.742ZM142.487 158.711C137.071 159.666 132.095 158.553 127.561 155.372C123.026 152.191 120.279 147.896 119.318 142.488C118.358 137.079 119.471 132.103 122.657 127.561C125.843 123.019 130.138 120.271 135.541 119.319C140.945 118.366 145.923 119.478 150.478 122.656C155.032 125.833 157.776 130.128 158.71 135.542C159.645 140.955 158.536 145.933 155.383 150.476C152.231 155.019 147.932 157.764 142.487 158.711Z" fill="#FAFCF7" fill-opacity="0.1"/>
</svg>
