<svg width="24" height="24" viewBox="0 0 24 24" fill="none" xmlns="http://www.w3.org/2000/svg">
<path d="M7.00091 19.9999C6.45091 19.9999 5.98024 19.8042 5.58891 19.4129C5.19758 19.0216 5.00158 18.5506 5.00091 17.9999V10.8499L3.00091 12.3749C2.76758 12.5416 2.51758 12.6126 2.25091 12.5879C1.98424 12.5632 1.76758 12.4339 1.60091 12.1999C1.43424 11.9659 1.36758 11.7159 1.40091 11.4499C1.43424 11.1839 1.56758 10.9672 1.80091 10.7999L10.7759 3.9249C10.9592 3.79157 11.1552 3.69157 11.3639 3.6249C11.5726 3.55824 11.7849 3.5249 12.0009 3.5249C12.2169 3.5249 12.4296 3.55824 12.6389 3.6249C12.8482 3.69157 13.0439 3.79157 13.2259 3.9249L16.0009 6.0499V5.4999C16.0009 5.08324 16.1469 4.72924 16.4389 4.4379C16.7309 4.14657 17.0849 4.00057 17.5009 3.9999C17.9169 3.99924 18.2712 4.14524 18.5639 4.4379C18.8566 4.73057 19.0022 5.08457 19.0009 5.4999V8.3499L22.2009 10.7999C22.4176 10.9666 22.5469 11.1832 22.5889 11.4499C22.6309 11.7166 22.5682 11.9666 22.4009 12.1999C22.2336 12.4332 22.0169 12.5626 21.7509 12.5879C21.4849 12.6132 21.2349 12.5422 21.0009 12.3749L19.0009 10.8499V17.9999C19.0009 18.5499 18.8052 19.0209 18.4139 19.4129C18.0226 19.8049 17.5516 20.0006 17.0009 19.9999H16.0009C15.4509 19.9999 14.9802 19.8042 14.5889 19.4129C14.1976 19.0216 14.0016 18.5506 14.0009 17.9999V15.9999C14.0009 15.4499 13.8052 14.9792 13.4139 14.5879C13.0226 14.1966 12.5516 14.0006 12.0009 13.9999C11.4502 13.9992 10.9796 14.1952 10.5889 14.5879C10.1982 14.9806 10.0022 15.4512 10.0009 15.9999V17.9999C10.0009 18.5499 9.80525 19.0209 9.41391 19.4129C9.02258 19.8049 8.55158 20.0006 8.00091 19.9999H7.00091ZM10.0009 10.0249H14.0009C14.0009 9.49157 13.8009 9.0539 13.4009 8.7119C13.0009 8.3699 12.5342 8.19924 12.0009 8.1999C11.4676 8.20057 11.0009 8.37157 10.6009 8.7129C10.2009 9.05424 10.0009 9.49157 10.0009 10.0249Z" fill="#1A267C" fill-opacity="0.8"/>
</svg>
