<svg width="24" height="24" viewBox="0 0 24 24" fill="none" xmlns="http://www.w3.org/2000/svg">
<path d="M10 22.9999C10 22.4499 10.196 21.9792 10.588 21.5879C10.98 21.1965 11.4507 21.0005 12 20.9999V15.2749C12.15 15.3415 12.3083 15.3915 12.475 15.4249C12.6417 15.4582 12.8167 15.4749 13 15.4749C13.7 15.4749 14.2877 15.2375 14.763 14.7629C15.2383 14.2882 15.4753 13.7005 15.474 12.9999V12.7749L18.674 13.5499C18.9407 13.6165 19.1823 13.7332 19.399 13.8999C19.6157 14.0665 19.7907 14.2665 19.924 14.4999L22.199 18.5999C22.449 19.0499 22.5407 19.5249 22.474 20.0249C22.4073 20.5249 22.1907 20.9582 21.824 21.3249C21.3747 21.7749 20.8377 21.9999 20.213 21.9999C19.5883 21.9999 19.0507 21.7749 18.6 21.3249L14 16.7249V20.9999C14.55 20.9999 15.021 21.1959 15.413 21.5879C15.805 21.9799 16.0007 22.4505 16 22.9999H10ZM4 20.9999C3.71667 20.9999 3.47934 20.9039 3.288 20.7119C3.09667 20.5199 3.00067 20.2825 3 19.9999C2.99934 19.7172 3.09534 19.4799 3.288 19.2879C3.48067 19.0959 3.718 18.9999 4 18.9999H7C7.28334 18.9999 7.521 19.0959 7.713 19.2879C7.905 19.4799 8.00067 19.7172 8 19.9999C7.99934 20.2825 7.90334 20.5202 7.712 20.7129C7.52067 20.9055 7.28334 21.0012 7 20.9999H4ZM7.15 16.7499L2.65 15.4749C2.16667 15.3415 1.771 15.0709 1.463 14.6629C1.155 14.2549 1.00067 13.7922 1 13.2749C1 12.6415 1.221 12.1042 1.663 11.6629C2.105 11.2215 2.64234 11.0005 3.275 10.9999H11.525C11.2083 11.2332 10.9627 11.5209 10.788 11.8629C10.6133 12.2049 10.5257 12.5839 10.525 12.9999C10.525 13.3832 10.6 13.7332 10.75 14.0499C10.9 14.3665 11.1083 14.6415 11.375 14.8749L8.75 16.5499C8.51667 16.6832 8.26234 16.7709 7.987 16.8129C7.71167 16.8549 7.43267 16.8339 7.15 16.7499ZM13 14.4999C12.5833 14.4999 12.2293 14.3542 11.938 14.0629C11.6467 13.7715 11.5007 13.4172 11.5 12.9999C11.4993 12.5825 11.6453 12.2285 11.938 11.9379C12.2307 11.6472 12.5847 11.5012 13 11.4999C13.4153 11.4985 13.7697 11.6445 14.063 11.9379C14.3563 12.2312 14.502 12.5852 14.5 12.9999C14.498 13.4145 14.3523 13.7689 14.063 14.0629C13.7737 14.3569 13.4193 14.5025 13 14.4999ZM15.3 12.0499C15.1167 11.5999 14.8207 11.2332 14.412 10.9499C14.0033 10.6665 13.5327 10.5249 13 10.5249C12.8167 10.5249 12.6417 10.5415 12.475 10.5749C12.3083 10.6082 12.15 10.6582 12 10.7249V6.77488C12 6.49155 12.0543 6.22488 12.163 5.97488C12.2717 5.72488 12.4257 5.50821 12.625 5.32488L16.05 2.12488C16.4333 1.75821 16.8793 1.54988 17.388 1.49988C17.8967 1.44988 18.3673 1.55821 18.8 1.82488C19.3333 2.15821 19.6793 2.62921 19.838 3.23788C19.9967 3.84655 19.909 4.41721 19.575 4.94988L15.3 12.0499ZM2 8.99988C1.71667 8.99988 1.47934 8.90388 1.288 8.71188C1.09667 8.51988 1.00067 8.28255 1 7.99988C0.999337 7.71721 1.09534 7.47988 1.288 7.28788C1.48067 7.09588 1.718 6.99988 2 6.99988H5C5.28334 6.99988 5.521 7.09588 5.713 7.28788C5.905 7.47988 6.00067 7.71721 6 7.99988C5.99934 8.28255 5.90334 8.52021 5.712 8.71288C5.52067 8.90555 5.28334 9.00121 5 8.99988H2ZM5 4.99988C4.71667 4.99988 4.47934 4.90388 4.288 4.71188C4.09667 4.51988 4.00067 4.28255 4 3.99988C3.99934 3.71721 4.09534 3.47988 4.288 3.28788C4.48067 3.09588 4.718 2.99988 5 2.99988H9C9.28334 2.99988 9.521 3.09588 9.713 3.28788C9.905 3.47988 10.0007 3.71721 10 3.99988C9.99934 4.28255 9.90334 4.52021 9.712 4.71288C9.52067 4.90555 9.28334 5.00121 9 4.99988H5Z" fill="#1A267C" fill-opacity="0.8"/>
</svg>
