<svg width="24" height="24" viewBox="0 0 24 24" fill="none" xmlns="http://www.w3.org/2000/svg">
<path d="M3.50048 10H1.95048C1.75048 10 1.60481 9.91267 1.51348 9.738C1.42214 9.56333 1.43448 9.39233 1.55048 9.225L4.05048 5.65C4.13381 5.55 4.22981 5.51667 4.33848 5.55C4.44714 5.58333 4.50114 5.66667 4.50048 5.8V8H6.05048C6.25048 8 6.39614 8.08767 6.48748 8.263C6.57881 8.43833 6.56648 8.609 6.45048 8.775L3.95048 12.35C3.86714 12.45 3.77114 12.4833 3.66248 12.45C3.55381 12.4167 3.49981 12.3333 3.50048 12.2V10ZM6.80048 20C5.96714 20 5.25881 19.7083 4.67548 19.125C4.09214 18.5417 3.80048 17.8333 3.80048 17C3.80048 16.5833 3.89648 16.1917 4.08848 15.825C4.28048 15.4583 4.54281 15.1417 4.87548 14.875L10.8505 6H7.75048C7.46714 6 7.23381 5.904 7.05048 5.712C6.86714 5.52 6.77548 5.28267 6.77548 5C6.77548 4.71733 6.87148 4.48 7.06348 4.288C7.25548 4.096 7.49281 4 7.77548 4H16.7505C17.0838 4 17.3505 4.125 17.5505 4.375C17.7505 4.625 17.8088 4.90833 17.7255 5.225L17.0755 8H19.0005C19.3171 8 19.6171 8.071 19.9005 8.213C20.1838 8.355 20.4171 8.55067 20.6005 8.8L22.4755 11.275C22.6588 11.5083 22.7755 11.7627 22.8255 12.038C22.8755 12.3133 22.8755 12.5923 22.8255 12.875L22.1505 16.2C22.1005 16.4333 21.9838 16.625 21.8005 16.775C21.6171 16.925 21.4088 17 21.1755 17H20.0005C20.0005 17.8333 19.7088 18.5417 19.1255 19.125C18.5421 19.7083 17.8338 20 17.0005 20C16.1671 20 15.4588 19.7083 14.8755 19.125C14.2921 18.5417 14.0005 17.8333 14.0005 17H9.80048C9.80048 17.8333 9.50881 18.5417 8.92548 19.125C8.34214 19.7083 7.63381 20 6.80048 20ZM7.00048 18C7.28381 18 7.52148 17.904 7.71348 17.712C7.90548 17.52 8.00114 17.2827 8.00048 17C7.99981 16.7173 7.90381 16.48 7.71248 16.288C7.52114 16.096 7.28381 16 7.00048 16C6.71714 16 6.47981 16.096 6.28848 16.288C6.09714 16.48 6.00114 16.7173 6.00048 17C5.99981 17.2827 6.09581 17.5203 6.28848 17.713C6.48114 17.9057 6.71848 18.0013 7.00048 18ZM17.0005 18C17.2838 18 17.5215 17.904 17.7135 17.712C17.9055 17.52 18.0011 17.2827 18.0005 17C17.9998 16.7173 17.9038 16.48 17.7125 16.288C17.5211 16.096 17.2838 16 17.0005 16C16.7171 16 16.4798 16.096 16.2885 16.288C16.0971 16.48 16.0011 16.7173 16.0005 17C15.9998 17.2827 16.0958 17.5203 16.2885 17.713C16.4811 17.9057 16.7185 18.0013 17.0005 18ZM15.9255 13H20.7505L20.8505 12.475L19.0005 10H16.6255L15.9255 13Z" fill="#1A267C" fill-opacity="0.8"/>
</svg>
